<?xml version="1.0" encoding="utf-8"?>
<!-- Generator: Adobe Illustrator 26.3.1, SVG Export Plug-In . SVG Version: 6.00 Build 0)  -->
<svg version="1.1" id="Layer_1" xmlns="http://www.w3.org/2000/svg" xmlns:xlink="http://www.w3.org/1999/xlink" x="0px" y="0px"
	 viewBox="0 0 241 447.8" style="enable-background:new 0 0 241 447.8;" xml:space="preserve">
<style type="text/css">
	.st0{fill:none;stroke:url(#SVGID_1_);stroke-width:0.75;stroke-miterlimit:10;}
	.st1{fill:url(#SVGID_00000160889828551326073270000005124615285520737199_);}
	.st2{fill:none;stroke:url(#SVGID_00000022526419418074843050000002928546553929555626_);stroke-width:0.75;stroke-miterlimit:10;}
	.st3{fill:url(#SVGID_00000177485439513736017390000006034992427156119701_);}
	.st4{fill:none;stroke:url(#SVGID_00000088119717213670396140000007008564071642000549_);stroke-width:0.75;stroke-miterlimit:10;}
	.st5{fill:url(#SVGID_00000168094479802271046230000006492285479835994289_);}
	.st6{fill:none;stroke:url(#SVGID_00000073692018311892675190000005911318856228169399_);stroke-width:0.75;stroke-miterlimit:10;}
	.st7{fill:url(#SVGID_00000075150322038560283190000007184518426196631951_);}
	.st8{fill:none;stroke:url(#SVGID_00000158747481439147420780000003261363867774828729_);stroke-width:0.75;stroke-miterlimit:10;}
	.st9{fill:url(#SVGID_00000120532028173614476760000009826680463370732162_);}
	.st10{fill:url(#SVGID_00000039849631928269585180000017107138608230191781_);}
	.st11{fill:url(#SVGID_00000099620665262847294990000003533271008033823631_);}
	.st12{fill:#FFFFFF;}
	.st13{fill:url(#SVGID_00000109734466619582777570000001600283110225962930_);}
	.st14{fill:none;stroke:url(#SVGID_00000130620586484716497260000002927583929605509027_);stroke-width:0.75;stroke-miterlimit:10;}
	
		.st15{opacity:0.1;fill:url(#SVGID_00000093147091928041907460000007688933048832800162_);stroke:url(#SVGID_00000056407096623380687170000003694662019298277037_);stroke-width:0.75;stroke-miterlimit:10;}
	.st16{fill:#1E263A;}
	.st17{fill:none;stroke:url(#SVGID_00000013915869223407611890000003751271648915252101_);stroke-width:0.75;stroke-miterlimit:10;}
	
		.st18{opacity:0.1;fill:url(#SVGID_00000033352850999375664130000007679755990228172220_);stroke:url(#SVGID_00000161623372317786659440000004156940532640768671_);stroke-width:0.75;stroke-miterlimit:10;}
	.st19{fill:none;stroke:url(#SVGID_00000103234836610895605140000005546616605188407936_);stroke-width:0.75;stroke-miterlimit:10;}
	.st20{opacity:0.2;fill:url(#SVGID_00000069364441468867395590000015852277549516182705_);}
	.st21{opacity:0.4;fill:url(#SVGID_00000045598511641161420160000014765449936516156857_);}
	.st22{fill:url(#SVGID_00000144334839283364087110000016870582634041402813_);}
	.st23{fill:url(#SVGID_00000159442841113251291900000016654551888335421837_);}
	.st24{opacity:0.8;}
	.st25{fill:url(#SVGID_00000036241605502807553000000014095481781596020881_);}
	
		.st26{fill:none;stroke:url(#SVGID_00000016077403236793713040000003873114542716078755_);stroke-width:0.75;stroke-linecap:round;stroke-miterlimit:10;stroke-dasharray:0,1.9846,0,1.9846,0,1.9846;}
</style>
<g>
	
		<linearGradient id="SVGID_1_" gradientUnits="userSpaceOnUse" x1="100.202" y1="54.8959" x2="116.8728" y2="54.8959" gradientTransform="matrix(4.574281e-11 1 -1 4.574281e-11 174.1072 34.1203)">
		<stop  offset="0" style="stop-color:#52C1EA"/>
		<stop  offset="0.5529" style="stop-color:#3362AB"/>
		<stop  offset="1" style="stop-color:#2B4E9C"/>
	</linearGradient>
	<line class="st0" x1="119.2" y1="134.3" x2="119.2" y2="147.2"/>
	<g>
		
			<linearGradient id="SVGID_00000017512684835787560100000015509822325935438989_" gradientUnits="userSpaceOnUse" x1="100.202" y1="54.896" x2="116.8728" y2="54.896" gradientTransform="matrix(4.574281e-11 1 -1 4.574281e-11 174.1072 34.1203)">
			<stop  offset="0" style="stop-color:#52C1EA"/>
			<stop  offset="0.5529" style="stop-color:#3362AB"/>
			<stop  offset="1" style="stop-color:#2B4E9C"/>
		</linearGradient>
		<polygon style="fill:url(#SVGID_00000017512684835787560100000015509822325935438989_);" points="116.6,146.5 119.2,151 
			121.8,146.5 		"/>
	</g>
</g>
<g>
	
		<linearGradient id="SVGID_00000007429873333583751390000007381932570688041907_" gradientUnits="userSpaceOnUse" x1="131.0204" y1="249.7999" x2="216.0122" y2="249.7999" gradientTransform="matrix(3.799688e-12 1 -1 3.799688e-12 345.2129 109.6709)">
		<stop  offset="0" style="stop-color:#52C1EA"/>
		<stop  offset="0.5529" style="stop-color:#3362AB"/>
		<stop  offset="1" style="stop-color:#2B4E9C"/>
	</linearGradient>
	
		<line style="fill:none;stroke:url(#SVGID_00000007429873333583751390000007381932570688041907_);stroke-width:0.75;stroke-miterlimit:10;" x1="95.4" y1="240.7" x2="95.4" y2="321.9"/>
	<g>
		
			<linearGradient id="SVGID_00000137133398763062064160000006267466026288850864_" gradientUnits="userSpaceOnUse" x1="131.0204" y1="249.8" x2="216.0122" y2="249.8" gradientTransform="matrix(3.799688e-12 1 -1 3.799688e-12 345.2129 109.6709)">
			<stop  offset="0" style="stop-color:#52C1EA"/>
			<stop  offset="0.5529" style="stop-color:#3362AB"/>
			<stop  offset="1" style="stop-color:#2B4E9C"/>
		</linearGradient>
		<polygon style="fill:url(#SVGID_00000137133398763062064160000006267466026288850864_);" points="92.8,321.1 95.4,325.7 98,321.1 
					"/>
	</g>
</g>
<g>
	
		<linearGradient id="SVGID_00000143613449733860967910000002756898959187589254_" gradientUnits="userSpaceOnUse" x1="131.0204" y1="206.847" x2="216.0122" y2="206.847" gradientTransform="matrix(3.799688e-12 1 -1 3.799688e-12 345.2129 109.6709)">
		<stop  offset="0" style="stop-color:#52C1EA"/>
		<stop  offset="0.5529" style="stop-color:#3362AB"/>
		<stop  offset="1" style="stop-color:#2B4E9C"/>
	</linearGradient>
	
		<line style="fill:none;stroke:url(#SVGID_00000143613449733860967910000002756898959187589254_);stroke-width:0.75;stroke-miterlimit:10;" x1="138.4" y1="240.7" x2="138.4" y2="321.9"/>
	<g>
		
			<linearGradient id="SVGID_00000181056248406397737230000001221466647849759628_" gradientUnits="userSpaceOnUse" x1="131.0204" y1="206.8471" x2="216.0122" y2="206.8471" gradientTransform="matrix(3.799688e-12 1 -1 3.799688e-12 345.2129 109.6709)">
			<stop  offset="0" style="stop-color:#52C1EA"/>
			<stop  offset="0.5529" style="stop-color:#3362AB"/>
			<stop  offset="1" style="stop-color:#2B4E9C"/>
		</linearGradient>
		<polygon style="fill:url(#SVGID_00000181056248406397737230000001221466647849759628_);" points="135.7,321.1 138.4,325.7 
			141,321.1 		"/>
	</g>
</g>
<g>
	
		<linearGradient id="SVGID_00000051371683020171023820000006372864090397601160_" gradientUnits="userSpaceOnUse" x1="131.0204" y1="187.1595" x2="216.0122" y2="187.1595" gradientTransform="matrix(3.799688e-12 1 -1 3.799688e-12 345.2129 109.6709)">
		<stop  offset="0" style="stop-color:#52C1EA"/>
		<stop  offset="0.5529" style="stop-color:#3362AB"/>
		<stop  offset="1" style="stop-color:#2B4E9C"/>
	</linearGradient>
	
		<line style="fill:none;stroke:url(#SVGID_00000051371683020171023820000006372864090397601160_);stroke-width:0.75;stroke-miterlimit:10;" x1="158.1" y1="240.7" x2="158.1" y2="321.9"/>
	<g>
		
			<linearGradient id="SVGID_00000158741748925476145930000010258322279933411984_" gradientUnits="userSpaceOnUse" x1="131.0204" y1="187.1596" x2="216.0122" y2="187.1596" gradientTransform="matrix(3.799688e-12 1 -1 3.799688e-12 345.2129 109.6709)">
			<stop  offset="0" style="stop-color:#52C1EA"/>
			<stop  offset="0.5529" style="stop-color:#3362AB"/>
			<stop  offset="1" style="stop-color:#2B4E9C"/>
		</linearGradient>
		<polygon style="fill:url(#SVGID_00000158741748925476145930000010258322279933411984_);" points="155.4,321.1 158.1,325.7 
			160.7,321.1 		"/>
	</g>
</g>
<g>
	
		<linearGradient id="SVGID_00000127746090151562468110000009443195817562043325_" gradientUnits="userSpaceOnUse" x1="64.0458" y1="75.3833" x2="174.3764" y2="75.3833">
		<stop  offset="0" style="stop-color:#52C1EA"/>
		<stop  offset="0.8386" style="stop-color:#3362AB"/>
		<stop  offset="1" style="stop-color:#2B4E9C"/>
	</linearGradient>
	
		<path style="fill:none;stroke:url(#SVGID_00000127746090151562468110000009443195817562043325_);stroke-width:0.75;stroke-miterlimit:10;" d="
		M102.7,23.1h65.6c3.1,0,5.7,2.5,5.7,5.7V122c0,3.1-2.5,5.7-5.7,5.7H70.1c-3.1,0-5.7-2.5-5.7-5.7V28.8c0-3.1,2.5-5.7,5.7-5.7h8.8"/>
	
		<linearGradient id="SVGID_00000004540917494026761100000009711110068068599734_" gradientUnits="userSpaceOnUse" x1="74.0352" y1="61.5249" x2="164.3871" y2="61.5249">
		<stop  offset="0" style="stop-color:#52C1EA"/>
		<stop  offset="0.5" style="stop-color:#3362AB"/>
		<stop  offset="1" style="stop-color:#2B4E9C"/>
	</linearGradient>
	<polygon style="fill:url(#SVGID_00000004540917494026761100000009711110068068599734_);" points="77.1,53.2 164.4,53.2 161.4,69.9 
		74,69.9 	"/>
	
		<linearGradient id="SVGID_00000132046915995907292010000007136260317617912201_" gradientUnits="userSpaceOnUse" x1="74.0352" y1="83.8686" x2="164.3871" y2="83.8686">
		<stop  offset="0" style="stop-color:#52C1EA"/>
		<stop  offset="0.5" style="stop-color:#3362AB"/>
		<stop  offset="1" style="stop-color:#2B4E9C"/>
	</linearGradient>
	<polygon style="fill:url(#SVGID_00000132046915995907292010000007136260317617912201_);" points="77.1,75.5 164.4,75.5 161.4,92.2 
		74,92.2 	"/>
	
		<linearGradient id="SVGID_00000094616566076442904080000015867039115864601487_" gradientUnits="userSpaceOnUse" x1="74.0352" y1="106.2122" x2="164.3871" y2="106.2122">
		<stop  offset="0" style="stop-color:#52C1EA"/>
		<stop  offset="0.5" style="stop-color:#3362AB"/>
		<stop  offset="1" style="stop-color:#2B4E9C"/>
	</linearGradient>
	<polygon style="fill:url(#SVGID_00000094616566076442904080000015867039115864601487_);" points="77.1,97.9 164.4,97.9 
		161.4,114.5 74,114.5 	"/>
	<g>
		<path class="st12" d="M89.4,39.5v-6.2h2.2c0.7,0,1.3,0.2,1.6,0.5c0.4,0.3,0.5,0.8,0.5,1.4c0,0.6-0.2,1.1-0.6,1.5s-0.9,0.5-1.5,0.5
			h-1.1v2.3H89.4z M90.6,36.4h0.9c0.4,0,0.7-0.1,0.9-0.3c0.2-0.2,0.3-0.4,0.3-0.8c0-0.4-0.1-0.7-0.3-0.9c-0.2-0.2-0.5-0.3-0.9-0.3
			h-0.9V36.4z"/>
		<path class="st12" d="M94.9,39.5V33h1v6.6H94.9z"/>
		<path class="st12" d="M99.4,39.6c-0.8,0-1.3-0.2-1.7-0.6s-0.6-1-0.6-1.7v-0.1c0-0.8,0.2-1.3,0.6-1.7s0.9-0.6,1.5-0.6
			c0.7,0,1.2,0.2,1.5,0.6c0.3,0.4,0.5,0.9,0.5,1.7v0.4h-3c0,0.5,0.2,0.8,0.4,1c0.2,0.2,0.6,0.3,1,0.3c0.5,0,1-0.1,1.4-0.3v0.7
			C100.6,39.5,100.1,39.6,99.4,39.6z M99.2,35.6c-0.6,0-1,0.4-1,1.2h2c0-0.4-0.1-0.7-0.2-0.9C99.8,35.7,99.5,35.6,99.2,35.6z"/>
		<path class="st12" d="M103.5,39.6c-0.4,0-0.8-0.1-1-0.3c-0.3-0.2-0.4-0.5-0.4-1c0-0.8,0.5-1.2,1.5-1.4l1.1-0.1v-0.4
			c0-0.3-0.1-0.5-0.2-0.6c-0.2-0.1-0.4-0.2-0.8-0.2c-0.4,0-0.8,0-1.1,0.1v-0.7c0.4-0.2,0.9-0.3,1.5-0.3c1.1,0,1.7,0.5,1.7,1.4v3.3
			h-0.9l-0.1-0.4h-0.1C104.4,39.5,104,39.6,103.5,39.6z M103.8,38.9c0.4,0,0.6-0.1,0.8-0.3v-1.1l-0.9,0.1c-0.2,0-0.4,0.1-0.5,0.2
			c-0.1,0.1-0.2,0.3-0.2,0.5c0,0.2,0.1,0.4,0.2,0.5C103.4,38.8,103.6,38.9,103.8,38.9z"/>
		<path class="st12" d="M108.3,39.6c-0.6,0-1.1-0.1-1.5-0.3v-0.8c0.5,0.2,0.9,0.3,1.4,0.3c0.6,0,0.9-0.2,0.9-0.6
			c0-0.2-0.1-0.3-0.2-0.4c-0.1-0.1-0.3-0.2-0.5-0.2l-0.4-0.1c-0.4-0.1-0.7-0.2-0.9-0.4s-0.3-0.5-0.3-0.9c0-0.4,0.1-0.8,0.4-1
			c0.3-0.2,0.7-0.4,1.3-0.4c0.5,0,1,0.1,1.3,0.3v0.8c-0.4-0.2-0.8-0.3-1.2-0.3c-0.6,0-0.8,0.2-0.8,0.5c0,0.2,0,0.3,0.1,0.4
			s0.3,0.1,0.5,0.2l0.4,0.1c0.5,0.1,0.8,0.3,1,0.5s0.3,0.5,0.3,0.9c0,0.5-0.2,0.8-0.5,1.1C109.3,39.5,108.9,39.6,108.3,39.6z"/>
		<path class="st12" d="M112.6,39.6c-0.9,0-1.4-0.4-1.4-1.4v-3.4h1v3.2c0,0.3,0.1,0.4,0.2,0.5c0.1,0.1,0.3,0.2,0.6,0.2
			c0.3,0,0.6-0.1,1-0.3v-3.6h1v4.6h-0.9l-0.1-0.4h0C113.6,39.5,113.1,39.6,112.6,39.6z"/>
		<path class="st12" d="M116.5,39.5v-4.6h1v0.5h0c0.1-0.2,0.3-0.3,0.5-0.4s0.5-0.2,0.7-0.2c0.1,0,0.2,0,0.3,0v0.9
			c-0.1,0-0.2,0-0.4,0c-0.4,0-0.8,0.1-1.1,0.3v3.4H116.5z"/>
		<path class="st12" d="M122.1,39.6c-0.8,0-1.3-0.2-1.7-0.6s-0.6-1-0.6-1.7v-0.1c0-0.8,0.2-1.3,0.6-1.7s0.9-0.6,1.5-0.6
			c0.7,0,1.2,0.2,1.5,0.6c0.3,0.4,0.5,0.9,0.5,1.7v0.4h-3c0,0.5,0.2,0.8,0.4,1c0.2,0.2,0.6,0.3,1,0.3c0.5,0,1-0.1,1.4-0.3v0.7
			C123.3,39.5,122.7,39.6,122.1,39.6z M121.9,35.6c-0.6,0-1,0.4-1,1.2h2c0-0.4-0.1-0.7-0.2-0.9C122.4,35.7,122.2,35.6,121.9,35.6z"
			/>
		<path class="st12" d="M127.7,39.5v-6.2h2.2c0.7,0,1.3,0.2,1.6,0.5c0.4,0.3,0.5,0.8,0.5,1.4c0,0.6-0.2,1.1-0.6,1.5
			s-0.9,0.5-1.5,0.5h-1.1v2.3H127.7z M128.8,36.4h0.9c0.4,0,0.7-0.1,0.9-0.3c0.2-0.2,0.3-0.4,0.3-0.8c0-0.4-0.1-0.7-0.3-0.9
			c-0.2-0.2-0.5-0.3-0.9-0.3h-0.9V36.4z"/>
		<path class="st12" d="M133.1,39.5V33h1v6.6H133.1z"/>
		<path class="st12" d="M136.7,39.6c-0.4,0-0.8-0.1-1-0.3c-0.3-0.2-0.4-0.5-0.4-1c0-0.8,0.5-1.2,1.5-1.4l1.1-0.1v-0.4
			c0-0.3-0.1-0.5-0.2-0.6c-0.2-0.1-0.4-0.2-0.8-0.2c-0.4,0-0.8,0-1.1,0.1v-0.7c0.4-0.2,0.9-0.3,1.5-0.3c1.1,0,1.7,0.5,1.7,1.4v3.3
			h-0.9l-0.1-0.4h-0.1C137.7,39.5,137.3,39.6,136.7,39.6z M137.1,38.9c0.4,0,0.6-0.1,0.8-0.3v-1.1l-0.9,0.1c-0.2,0-0.4,0.1-0.5,0.2
			c-0.1,0.1-0.2,0.3-0.2,0.5c0,0.2,0.1,0.4,0.2,0.5C136.7,38.8,136.8,38.9,137.1,38.9z"/>
		<path class="st12" d="M141.9,39.6c-0.9,0-1.3-0.4-1.3-1.2v-2.7h-0.6v-0.8h0.6v-1.1h1v1.1h1.1v0.8h-1.1v2.5c0,0.2,0,0.3,0.1,0.4
			c0.1,0.1,0.3,0.1,0.5,0.1c0.2,0,0.4,0,0.5-0.1v0.7C142.5,39.5,142.2,39.6,141.9,39.6z"/>
		<path class="st12" d="M144.2,39.5v-3.8h-0.7v-0.8h0.7v-0.6c0-0.5,0.1-0.8,0.4-1.1c0.3-0.2,0.6-0.4,1.1-0.4c0.4,0,0.6,0,0.9,0.1
			v0.7c-0.2,0-0.4-0.1-0.6-0.1c-0.5,0-0.8,0.3-0.8,0.8v0.5h1v0.8h-1v3.8H144.2z"/>
		<path class="st12" d="M149.2,39.6c-0.7,0-1.2-0.2-1.6-0.6s-0.6-1-0.6-1.7v-0.1c0-0.7,0.2-1.3,0.6-1.7c0.4-0.4,0.9-0.6,1.6-0.6
			c0.7,0,1.2,0.2,1.6,0.6c0.4,0.4,0.6,1,0.6,1.7v0.1c0,0.7-0.2,1.3-0.6,1.7C150.4,39.4,149.8,39.6,149.2,39.6z M149.2,38.8
			c0.7,0,1.1-0.5,1.1-1.5v-0.2c0-0.6-0.1-1-0.3-1.2s-0.5-0.3-0.8-0.3c-0.4,0-0.6,0.1-0.8,0.4s-0.3,0.6-0.3,1.1v0.2
			c0,0.6,0.1,1,0.3,1.2C148.6,38.7,148.8,38.8,149.2,38.8z"/>
		<path class="st12" d="M154.6,39.6c-0.8,0-1.3-0.2-1.7-0.6c-0.4-0.4-0.6-1-0.6-1.7v-0.1c0-0.8,0.2-1.3,0.6-1.7
			c0.4-0.4,0.9-0.6,1.5-0.6c0.7,0,1.2,0.2,1.5,0.6c0.3,0.4,0.5,0.9,0.5,1.7v0.4h-3c0,0.5,0.2,0.8,0.4,1c0.2,0.2,0.6,0.3,1,0.3
			c0.5,0,1-0.1,1.4-0.3v0.7C155.8,39.5,155.2,39.6,154.6,39.6z M154.4,35.6c-0.6,0-1,0.4-1,1.2h2c0-0.4-0.1-0.7-0.2-0.9
			C154.9,35.7,154.7,35.6,154.4,35.6z"/>
		<path class="st12" d="M157.5,39.5v-4.6h1v0.4h0c0.5-0.3,0.9-0.5,1.4-0.5c0.5,0,0.9,0.2,1.1,0.5h0.1c0.5-0.3,1-0.5,1.5-0.5
			c0.4,0,0.7,0.1,1,0.3c0.2,0.2,0.3,0.5,0.3,1v3.4h-1v-3.2c0-0.2-0.1-0.4-0.2-0.5c-0.1-0.1-0.3-0.1-0.6-0.1c-0.3,0-0.6,0.1-1,0.3
			c0,0.1,0,0.2,0,0.2v3.4h-1v-3.2c0-0.2-0.1-0.4-0.2-0.5c-0.1-0.1-0.3-0.1-0.5-0.1c-0.3,0-0.6,0.1-1,0.3v3.6H157.5z"/>
	</g>
	<g>
		<path class="st12" d="M89.9,11.6c4.4,0,6.6,2,6.6,5.4c0,0.8-0.1,1.6-0.4,2.2l5.9,3.9c1.1-1.7,1.8-3.8,1.8-6.1
			c0-7-5.2-11.3-13.5-11.3H76.8h-7.5l7.5,6.2v28.6H84V30.5V14.1l-2.9-2.4H89.9z"/>
		
			<linearGradient id="SVGID_00000083055853134918196980000009782711026802574780_" gradientUnits="userSpaceOnUse" x1="89.3646" y1="21.8131" x2="96.5073" y2="28.9559">
			<stop  offset="0" style="stop-color:#52C1EA"/>
			<stop  offset="0.6844" style="stop-color:#3362AB"/>
			<stop  offset="1" style="stop-color:#2B4E9C"/>
		</linearGradient>
		<path style="fill:url(#SVGID_00000083055853134918196980000009782711026802574780_);" d="M94.4,21.4c-1.1,0.7-2.6,1.1-4.5,1.1
			h-1.2v5.9h1.6c4.1,0,7.5-1.1,9.8-3L94.4,21.4z"/>
	</g>
	<g>
		
			<image style="overflow:visible;opacity:0.15;" width="138" height="114" xlink:href="2F35990A.png"  transform="matrix(0.24 0 0 0.24 102.6934 48.919)">
		</image>
		<g>
			<g>
				<path class="st12" d="M112.1,65.2V59h2.2c0.7,0,1.3,0.2,1.6,0.5c0.4,0.3,0.5,0.8,0.5,1.4c0,0.6-0.2,1.1-0.6,1.5
					s-0.9,0.5-1.5,0.5h-1.1v2.3H112.1z M113.2,62h0.9c0.4,0,0.7-0.1,0.9-0.3c0.2-0.2,0.3-0.4,0.3-0.8c0-0.4-0.1-0.7-0.3-0.9
					s-0.5-0.3-0.9-0.3h-0.9V62z"/>
				<path class="st12" d="M117.3,65.2v-0.6l1.2-1.2c0.5-0.6,0.9-1,1.2-1.4c0.3-0.4,0.4-0.7,0.4-1.1c0-0.4-0.1-0.6-0.3-0.8
					c-0.2-0.2-0.5-0.2-0.9-0.2c-0.4,0-0.8,0.1-1.3,0.4l-0.2-0.8c0.5-0.3,1.1-0.5,1.8-0.5c0.7,0,1.2,0.2,1.5,0.5s0.5,0.7,0.5,1.3
					c0,0.3,0,0.5-0.1,0.8c-0.1,0.3-0.2,0.5-0.4,0.8s-0.4,0.5-0.5,0.6s-0.3,0.4-0.6,0.6l-0.7,0.7h2.5v0.9H117.3z"/>
				<path class="st12" d="M122.6,65.2V59h3.9v0.9h-2.7v1.7h2.1v0.9h-2.1v1.9h2.8v0.9H122.6z"/>
			</g>
		</g>
	</g>
	<g>
		
			<image style="overflow:visible;opacity:0.15;" width="246" height="114" xlink:href="2F35990E.png"  transform="matrix(0.24 0 0 0.24 89.7334 70.999)">
		</image>
		<g>
			<g>
				<path class="st12" d="M99.1,87.2V81h1.2l2.6,4.4h0V81h1v6.2h-1.1l-2.7-4.7h0v4.7H99.1z"/>
				<path class="st12" d="M105.6,87.2V81h3.8v0.9h-2.7v1.8h2.1v0.9h-2.1v2.6H105.6z"/>
				<path class="st12" d="M111.9,87.2v-5.3h-1.8V81h4.6v0.9H113v5.3H111.9z"/>
				<path class="st12" d="M121.6,86.8c-0.4,0.3-0.9,0.5-1.7,0.5s-1.3-0.1-1.8-0.4V86c0.6,0.3,1.2,0.4,1.8,0.4c0.8,0,1.2-0.3,1.2-0.9
					c0-0.3-0.1-0.4-0.2-0.6s-0.4-0.2-0.7-0.4l-0.6-0.2c-0.5-0.1-0.8-0.3-1-0.6s-0.4-0.7-0.4-1.2c0-0.5,0.2-1,0.5-1.3
					s0.9-0.5,1.5-0.5c0.6,0,1.2,0.1,1.6,0.3v0.9c-0.5-0.2-1-0.3-1.6-0.3c-0.3,0-0.6,0.1-0.7,0.2c-0.2,0.1-0.3,0.3-0.3,0.6
					s0.1,0.4,0.2,0.6c0.1,0.1,0.3,0.2,0.6,0.3l0.6,0.2c0.5,0.1,0.9,0.4,1.2,0.6c0.3,0.3,0.4,0.6,0.4,1.2
					C122.2,86,122,86.4,121.6,86.8z"/>
				<path class="st12" d="M124.9,87.2c-0.9,0-1.3-0.4-1.3-1.2v-2.7H123v-0.8h0.6v-1.1h1v1.1h1.1v0.8h-1.1v2.5c0,0.2,0,0.3,0.1,0.4
					c0.1,0.1,0.3,0.1,0.5,0.1c0.2,0,0.4,0,0.5-0.1V87C125.6,87.1,125.3,87.2,124.9,87.2z"/>
				<path class="st12" d="M128.9,87.2c-0.7,0-1.2-0.2-1.6-0.6s-0.6-1-0.6-1.7v-0.1c0-0.7,0.2-1.3,0.6-1.7c0.4-0.4,0.9-0.6,1.6-0.6
					c0.7,0,1.2,0.2,1.6,0.6c0.4,0.4,0.6,1,0.6,1.7v0.1c0,0.7-0.2,1.3-0.6,1.7S129.5,87.2,128.9,87.2z M128.9,86.5
					c0.7,0,1.1-0.5,1.1-1.5v-0.2c0-0.6-0.1-1-0.3-1.2c-0.2-0.2-0.5-0.3-0.8-0.3c-0.4,0-0.6,0.1-0.8,0.4c-0.2,0.3-0.3,0.6-0.3,1.1
					v0.2c0,0.6,0.1,1,0.3,1.2S128.5,86.5,128.9,86.5z"/>
				<path class="st12" d="M132.2,87.2v-4.6h1v0.5h0c0.1-0.2,0.3-0.3,0.5-0.4c0.2-0.1,0.5-0.2,0.7-0.2c0.1,0,0.2,0,0.3,0v0.9
					c-0.1,0-0.2,0-0.4,0c-0.4,0-0.8,0.1-1.1,0.3v3.4H132.2z"/>
				<path class="st12" d="M137.8,87.2c-0.8,0-1.3-0.2-1.7-0.6s-0.6-1-0.6-1.7v-0.1c0-0.8,0.2-1.3,0.6-1.7s0.9-0.6,1.5-0.6
					c0.7,0,1.2,0.2,1.5,0.6c0.3,0.4,0.5,0.9,0.5,1.7v0.4h-3c0,0.5,0.2,0.8,0.4,1c0.2,0.2,0.6,0.3,1,0.3c0.5,0,1-0.1,1.4-0.3v0.7
					C139,87.1,138.5,87.2,137.8,87.2z M137.6,83.2c-0.6,0-1,0.4-1,1.2h2c0-0.4-0.1-0.7-0.2-0.9C138.2,83.3,137.9,83.2,137.6,83.2z"
					/>
			</g>
		</g>
	</g>
	<g>
		
			<image style="overflow:visible;opacity:0.15;" width="201" height="113" xlink:href="2F359909.png"  transform="matrix(0.24 0 0 0.24 95.0134 93.079)">
		</image>
		<g>
			<g>
				<path class="st12" d="M107.5,108.7c-0.4,0.3-0.9,0.5-1.7,0.5c-0.7,0-1.3-0.1-1.8-0.4V108c0.6,0.3,1.2,0.4,1.8,0.4
					c0.8,0,1.2-0.3,1.2-0.9c0-0.3-0.1-0.4-0.2-0.6s-0.4-0.2-0.7-0.4l-0.6-0.2c-0.5-0.1-0.8-0.3-1-0.6c-0.2-0.3-0.4-0.7-0.4-1.2
					c0-0.5,0.2-1,0.5-1.3c0.4-0.3,0.9-0.5,1.5-0.5c0.6,0,1.2,0.1,1.6,0.3v0.9c-0.5-0.2-1-0.3-1.6-0.3c-0.3,0-0.6,0.1-0.7,0.2
					c-0.2,0.1-0.3,0.3-0.3,0.6s0.1,0.4,0.2,0.6c0.1,0.1,0.3,0.2,0.6,0.3l0.6,0.2c0.5,0.1,0.9,0.4,1.2,0.6c0.3,0.3,0.4,0.6,0.4,1.2
					C108.1,107.9,107.9,108.4,107.5,108.7z"/>
				<path class="st12" d="M110.8,109.2c-0.9,0-1.3-0.4-1.3-1.2v-2.7h-0.6v-0.8h0.6v-1.1h1v1.1h1.1v0.8h-1.1v2.5c0,0.2,0,0.3,0.1,0.4
					c0.1,0.1,0.3,0.1,0.5,0.1c0.2,0,0.4,0,0.5-0.1v0.7C111.4,109.1,111.2,109.2,110.8,109.2z"/>
				<path class="st12" d="M114,109.2c-0.4,0-0.8-0.1-1-0.3c-0.3-0.2-0.4-0.5-0.4-1c0-0.8,0.5-1.2,1.5-1.4l1.1-0.1V106
					c0-0.3-0.1-0.5-0.2-0.6c-0.2-0.1-0.4-0.2-0.8-0.2c-0.4,0-0.8,0-1.1,0.1v-0.7c0.4-0.2,0.9-0.3,1.5-0.3c1.1,0,1.7,0.5,1.7,1.4v3.3
					h-0.9l-0.1-0.4h-0.1C114.9,109.1,114.5,109.2,114,109.2z M114.3,108.5c0.4,0,0.6-0.1,0.8-0.3v-1.1l-0.9,0.1
					c-0.2,0-0.4,0.1-0.5,0.2c-0.1,0.1-0.2,0.3-0.2,0.5c0,0.2,0.1,0.4,0.2,0.5C113.9,108.4,114.1,108.5,114.3,108.5z"/>
				<path class="st12" d="M117.6,109.1v-6.6h1v6.6H117.6z M120.3,109.1c0,0-0.3-0.4-0.8-1.2c-0.5-0.8-0.8-1.2-0.8-1.2
					c0,0,0.3-0.4,0.8-1.1c0.5-0.7,0.8-1.1,0.8-1.1h1.1c0,0-0.3,0.4-0.8,1.1c-0.5,0.7-0.8,1-0.8,1.1c0,0,0.1,0.1,0.3,0.4
					c0.2,0.3,0.4,0.5,0.6,0.8c0.2,0.3,0.4,0.5,0.6,0.8c0.2,0.3,0.3,0.4,0.3,0.4H120.3z"/>
				<path class="st12" d="M122.5,103.7v-0.9h1.1v0.9H122.5z M122.5,109.1v-4.6h1v4.6H122.5z"/>
				<path class="st12" d="M124.9,109.1v-4.6h1v0.4h0c0.5-0.3,1-0.5,1.5-0.5c0.5,0,0.8,0.1,1,0.3c0.2,0.2,0.3,0.5,0.3,1v3.4h-1v-3.2
					c0-0.2-0.1-0.4-0.2-0.5c-0.1-0.1-0.3-0.1-0.6-0.1c-0.3,0-0.7,0.1-1,0.3v3.6H124.9z"/>
				<path class="st12" d="M131.9,110.5c-0.7,0-1.2-0.1-1.6-0.3c-0.4-0.2-0.5-0.5-0.5-0.8c0-0.4,0.3-0.7,0.9-0.9v0
					c-0.1,0-0.3-0.1-0.4-0.3c-0.1-0.1-0.1-0.3-0.1-0.4c0-0.1,0-0.3,0.1-0.4s0.2-0.2,0.4-0.3c-0.4-0.3-0.6-0.6-0.6-1.1v-0.1
					c0-0.5,0.2-0.8,0.5-1.1s0.8-0.4,1.4-0.4c0.2,0,0.5,0,0.7,0.1h1.6v0.7h-0.7c0.2,0.2,0.2,0.4,0.2,0.7v0.1c0,0.5-0.2,0.8-0.5,1.1
					c-0.3,0.2-0.8,0.4-1.3,0.4c-0.3,0-0.5,0-0.7-0.1c0,0,0,0,0,0c0,0,0,0,0,0c0,0,0,0,0,0c0,0,0,0,0,0c0,0,0,0,0,0c0,0,0,0,0,0
					c0,0.2,0.1,0.3,0.4,0.3h1.3c1,0,1.5,0.4,1.5,1.2c0,0.5-0.2,0.8-0.6,1.1C133.3,110.3,132.7,110.5,131.9,110.5z M131.9,109.7
					c0.9,0,1.3-0.2,1.3-0.6c0-0.2-0.1-0.3-0.2-0.4c-0.1-0.1-0.3-0.1-0.6-0.1h-1.2c-0.3,0.1-0.5,0.3-0.5,0.6
					C130.8,109.6,131.2,109.7,131.9,109.7z M132,106.7c0.5,0,0.8-0.2,0.8-0.7v-0.1c0-0.5-0.3-0.7-0.8-0.7c-0.6,0-0.8,0.2-0.8,0.7
					v0.1C131.1,106.4,131.4,106.7,132,106.7z"/>
			</g>
		</g>
	</g>
</g>
<linearGradient id="SVGID_00000070835262818065496030000009606517466164935056_" gradientUnits="userSpaceOnUse" x1="13.878" y1="193.7966" x2="114.011" y2="193.7966">
	<stop  offset="0" style="stop-color:#52C1EA"/>
	<stop  offset="0.8386" style="stop-color:#3362AB"/>
	<stop  offset="1" style="stop-color:#2B4E9C"/>
</linearGradient>
<path style="fill:none;stroke:url(#SVGID_00000070835262818065496030000009606517466164935056_);stroke-width:0.75;stroke-miterlimit:10;" d="
	M108,230.8h-88c-3.1,0-5.7-2.5-5.7-5.7v-62.6c0-3.1,2.5-5.7,5.7-5.7h88c3.1,0,5.7,2.5,5.7,5.7v62.6
	C113.6,228.2,111.1,230.8,108,230.8z"/>
<linearGradient id="SVGID_00000132773080779268129680000005656367591959512720_" gradientUnits="userSpaceOnUse" x1="12.4679" y1="164.0765" x2="115.4212" y2="223.5166">
	<stop  offset="0" style="stop-color:#52C1EA"/>
	<stop  offset="0.5" style="stop-color:#3362AB"/>
	<stop  offset="1" style="stop-color:#2B4E9C"/>
</linearGradient>
<linearGradient id="SVGID_00000060012589356389125720000006231919883184449691_" gradientUnits="userSpaceOnUse" x1="13.878" y1="193.7966" x2="114.011" y2="193.7966">
	<stop  offset="0" style="stop-color:#52C1EA"/>
	<stop  offset="0.8386" style="stop-color:#3362AB"/>
	<stop  offset="1" style="stop-color:#2B4E9C"/>
</linearGradient>
<path style="opacity:0.1;fill:url(#SVGID_00000132773080779268129680000005656367591959512720_);stroke:url(#SVGID_00000060012589356389125720000006231919883184449691_);stroke-width:0.75;stroke-miterlimit:10;" d="
	M108,230.8h-88c-3.1,0-5.7-2.5-5.7-5.7v-62.6c0-3.1,2.5-5.7,5.7-5.7h88c3.1,0,5.7,2.5,5.7,5.7v62.6
	C113.6,228.2,111.1,230.8,108,230.8z"/>
<path class="st12" d="M107.2,226.5H20.7c-2,0-3.6-1.6-3.6-3.6v-34.2c0-2,1.6-3.6,3.6-3.6h86.5c2,0,3.6,1.6,3.6,3.6V223
	C110.8,224.9,109.2,226.5,107.2,226.5z"/>
<g>
	<path class="st12" d="M46.9,174.4v-6.2h2.2c0.7,0,1.3,0.2,1.6,0.5c0.4,0.3,0.5,0.8,0.5,1.4c0,0.6-0.2,1.1-0.6,1.5s-0.9,0.5-1.5,0.5
		H48v2.3H46.9z M48,171.3H49c0.4,0,0.7-0.1,0.9-0.3c0.2-0.2,0.3-0.4,0.3-0.8c0-0.4-0.1-0.7-0.3-0.9s-0.5-0.3-0.9-0.3H48V171.3z"/>
	<path class="st12" d="M52.4,174.4v-4.6h1v0.5h0c0.1-0.2,0.3-0.3,0.5-0.4c0.2-0.1,0.5-0.2,0.7-0.2c0.1,0,0.2,0,0.3,0v0.9
		c-0.1,0-0.2,0-0.4,0c-0.4,0-0.8,0.1-1.1,0.3v3.4H52.4z"/>
	<path class="st12" d="M57.9,174.5c-0.7,0-1.2-0.2-1.6-0.6s-0.6-1-0.6-1.7V172c0-0.7,0.2-1.3,0.6-1.7s0.9-0.6,1.6-0.6
		c0.7,0,1.2,0.2,1.6,0.6c0.4,0.4,0.6,1,0.6,1.7v0.1c0,0.7-0.2,1.3-0.6,1.7S58.5,174.5,57.9,174.5z M57.9,173.7
		c0.7,0,1.1-0.5,1.1-1.5V172c0-0.6-0.1-1-0.3-1.2c-0.2-0.2-0.5-0.3-0.8-0.3c-0.4,0-0.6,0.1-0.8,0.4c-0.2,0.3-0.3,0.6-0.3,1.1v0.2
		c0,0.6,0.1,1,0.3,1.2C57.2,173.6,57.5,173.7,57.9,173.7z"/>
	<path class="st12" d="M62.9,175.7c-0.7,0-1.2-0.1-1.6-0.3c-0.4-0.2-0.5-0.5-0.5-0.8c0-0.4,0.3-0.7,0.9-0.9v0
		c-0.1,0-0.3-0.1-0.4-0.3c-0.1-0.1-0.1-0.3-0.1-0.4c0-0.1,0-0.3,0.1-0.4c0.1-0.1,0.2-0.2,0.4-0.3c-0.4-0.3-0.6-0.6-0.6-1.1v-0.1
		c0-0.5,0.2-0.8,0.5-1.1s0.8-0.4,1.4-0.4c0.2,0,0.5,0,0.7,0.1h1.6v0.7h-0.7c0.2,0.2,0.2,0.4,0.2,0.7v0.1c0,0.5-0.2,0.8-0.5,1.1
		c-0.3,0.2-0.8,0.4-1.3,0.4c-0.3,0-0.5,0-0.7-0.1c0,0,0,0-0.1,0c0,0,0,0,0,0c0,0,0,0,0,0c0,0,0,0,0,0c0,0,0,0,0,0s0,0,0,0
		c0,0.2,0.1,0.3,0.4,0.3h1.3c1,0,1.5,0.4,1.5,1.2c0,0.5-0.2,0.8-0.6,1.1C64.3,175.6,63.7,175.7,62.9,175.7z M62.9,175
		c0.9,0,1.3-0.2,1.3-0.6c0-0.2-0.1-0.3-0.2-0.4s-0.3-0.1-0.6-0.1h-1.2c-0.3,0.1-0.5,0.3-0.5,0.6C61.8,174.8,62.2,175,62.9,175z
		 M62.9,171.9c0.5,0,0.8-0.2,0.8-0.7v-0.1c0-0.5-0.3-0.7-0.8-0.7c-0.6,0-0.8,0.2-0.8,0.7v0.1C62.1,171.7,62.4,171.9,62.9,171.9z"/>
	<path class="st12" d="M66.2,174.4v-4.6h1v0.5h0c0.1-0.2,0.3-0.3,0.5-0.4c0.2-0.1,0.5-0.2,0.7-0.2c0.1,0,0.2,0,0.3,0v0.9
		c-0.1,0-0.2,0-0.4,0c-0.4,0-0.8,0.1-1.1,0.3v3.4H66.2z"/>
	<path class="st12" d="M70.9,174.5c-0.4,0-0.8-0.1-1-0.3c-0.3-0.2-0.4-0.5-0.4-1c0-0.8,0.5-1.2,1.5-1.4l1.1-0.1v-0.4
		c0-0.3-0.1-0.5-0.2-0.6c-0.2-0.1-0.4-0.2-0.8-0.2c-0.4,0-0.8,0-1.1,0.1V170c0.4-0.2,0.9-0.3,1.5-0.3c1.1,0,1.7,0.5,1.7,1.4v3.3
		h-0.9l-0.1-0.4h-0.1C71.9,174.3,71.5,174.5,70.9,174.5z M71.3,173.8c0.4,0,0.6-0.1,0.8-0.3v-1.1l-0.9,0.1c-0.2,0-0.4,0.1-0.5,0.2
		c-0.1,0.1-0.2,0.3-0.2,0.5c0,0.2,0.1,0.4,0.2,0.5C70.9,173.7,71,173.8,71.3,173.8z"/>
	<path class="st12" d="M74.5,174.4v-4.6h1v0.4h0c0.5-0.3,0.9-0.5,1.4-0.5c0.5,0,0.9,0.2,1.1,0.5h0.1c0.5-0.3,1-0.5,1.5-0.5
		c0.4,0,0.7,0.1,1,0.3c0.2,0.2,0.3,0.5,0.3,1v3.4h-1v-3.2c0-0.2-0.1-0.4-0.2-0.5c-0.1-0.1-0.3-0.1-0.6-0.1c-0.3,0-0.6,0.1-1,0.3
		c0,0.1,0,0.2,0,0.2v3.4h-1v-3.2c0-0.2-0.1-0.4-0.2-0.5c-0.1-0.1-0.3-0.1-0.5-0.1c-0.3,0-0.6,0.1-1,0.3v3.6H74.5z"/>
</g>
<g>
	<path class="st16" d="M45.4,202.2v-4.8H47c1.1,0,1.7,0.5,1.7,1.4c0,0.6-0.3,1-0.9,1.2v0l1.2,2.1H48l-1.1-1.9h-0.7v1.9H45.4z
		 M46.2,199.7h0.7c0.3,0,0.5-0.1,0.7-0.2c0.1-0.1,0.2-0.3,0.2-0.6c0-0.3-0.1-0.5-0.2-0.6c-0.1-0.1-0.4-0.2-0.7-0.2h-0.7V199.7z"/>
	<path class="st16" d="M50.8,202.3c-0.7,0-1.1-0.4-1.1-1v-2.6h0.8v2.5c0,0.2,0,0.3,0.1,0.4s0.2,0.1,0.5,0.1c0.2,0,0.5-0.1,0.8-0.2
		v-2.8h0.8v3.6H52l-0.1-0.3h0C51.6,202.2,51.2,202.3,50.8,202.3z"/>
	<path class="st16" d="M54.8,202.3c-0.5,0-0.9-0.1-1.2-0.2v-0.6c0.4,0.1,0.7,0.2,1.1,0.2c0.5,0,0.7-0.1,0.7-0.4c0-0.1,0-0.2-0.1-0.3
		c-0.1-0.1-0.2-0.1-0.4-0.2l-0.3-0.1c-0.3-0.1-0.5-0.2-0.7-0.3c-0.2-0.2-0.2-0.4-0.2-0.7c0-0.3,0.1-0.6,0.3-0.8
		c0.2-0.2,0.6-0.3,1-0.3c0.4,0,0.7,0.1,1,0.2v0.6c-0.3-0.1-0.6-0.2-1-0.2c-0.4,0-0.6,0.1-0.6,0.4c0,0.1,0,0.2,0.1,0.3
		s0.2,0.1,0.4,0.2l0.3,0.1c0.4,0.1,0.6,0.2,0.8,0.4c0.1,0.2,0.2,0.4,0.2,0.7c0,0.4-0.1,0.6-0.4,0.8
		C55.6,202.2,55.3,202.3,54.8,202.3z"/>
	<path class="st16" d="M58.3,202.3c-0.7,0-1-0.3-1-0.9v-2.1h-0.5v-0.6h0.5v-0.8h0.8v0.8h0.9v0.6h-0.9v2c0,0.2,0,0.3,0.1,0.3
		s0.2,0.1,0.4,0.1c0.1,0,0.3,0,0.4-0.1v0.5C58.8,202.2,58.6,202.3,58.3,202.3z"/>
	<path class="st16" d="M59.6,203.2l0.3-1.4h0.9l-0.5,1.4H59.6z"/>
	<path class="st16" d="M65.7,202.3c-0.7,0-1.2-0.2-1.6-0.6c-0.4-0.4-0.6-1-0.6-1.8v-0.2c0-0.8,0.2-1.4,0.6-1.8
		c0.4-0.4,1-0.6,1.6-0.6c0.5,0,0.9,0.1,1.2,0.3v0.7c-0.4-0.1-0.8-0.2-1.1-0.2c-0.9,0-1.4,0.5-1.4,1.6v0.2c0,0.6,0.1,1,0.3,1.3
		c0.2,0.3,0.6,0.4,1.1,0.4c0.4,0,0.8-0.1,1.2-0.3v0.7C66.7,202.2,66.3,202.3,65.7,202.3z"/>
	<path class="st16" d="M67.7,203.2l0.3-1.4h0.9l-0.5,1.4H67.7z"/>
	<path class="st16" d="M73.9,202.3c-0.7,0-1.2-0.2-1.6-0.6s-0.6-1-0.6-1.8v-0.2c0-0.8,0.2-1.4,0.6-1.8c0.4-0.4,1-0.6,1.6-0.6
		c0.5,0,0.9,0.1,1.2,0.3v0.7c-0.4-0.1-0.8-0.2-1.1-0.2c-0.9,0-1.4,0.5-1.4,1.6v0.2c0,0.6,0.1,1,0.3,1.3c0.2,0.3,0.6,0.4,1.1,0.4
		c0.4,0,0.8-0.1,1.2-0.3v0.7C74.8,202.2,74.4,202.3,73.9,202.3z"/>
	<path class="st16" d="M77.1,201.4v-1.2h-1.1v-0.7h1.1v-1.2h0.7v1.2h1.1v0.7h-1.1v1.2H77.1z"/>
	<path class="st16" d="M80.8,201.4v-1.2h-1.1v-0.7h1.1v-1.2h0.7v1.2h1.1v0.7h-1.1v1.2H80.8z"/>
	<path class="st16" d="M28.8,214c-0.4-0.4-0.7-0.8-0.9-1.3s-0.4-1-0.4-1.6v-0.1c0-0.6,0.1-1.1,0.4-1.6s0.6-0.9,0.9-1.3h0.7
		c-0.3,0.4-0.6,0.8-0.8,1.3c-0.2,0.5-0.3,1-0.3,1.5v0.2c0,0.5,0.1,1,0.3,1.6c0.2,0.5,0.5,1,0.8,1.3H28.8z"/>
	<path class="st16" d="M32.7,212.9c-0.3,0.3-0.7,0.4-1.3,0.4c-0.6,0-1-0.1-1.4-0.3v-0.7c0.4,0.2,0.9,0.3,1.4,0.3
		c0.6,0,0.9-0.2,0.9-0.7c0-0.2,0-0.3-0.2-0.4c-0.1-0.1-0.3-0.2-0.5-0.3l-0.5-0.1c-0.4-0.1-0.6-0.3-0.8-0.5c-0.2-0.2-0.3-0.5-0.3-0.9
		c0-0.4,0.1-0.8,0.4-1c0.3-0.2,0.7-0.4,1.2-0.4c0.5,0,0.9,0.1,1.2,0.3v0.7c-0.4-0.2-0.8-0.2-1.2-0.2c-0.3,0-0.4,0.1-0.6,0.2
		s-0.2,0.2-0.2,0.4s0,0.3,0.1,0.4c0.1,0.1,0.2,0.2,0.5,0.2l0.4,0.1c0.4,0.1,0.7,0.3,0.9,0.5s0.3,0.5,0.3,0.9
		C33.1,212.3,32.9,212.7,32.7,212.9z"/>
	<path class="st16" d="M35.5,213.3c-0.5,0-1-0.2-1.3-0.5c-0.3-0.3-0.4-0.8-0.4-1.3v-0.1c0-0.6,0.2-1,0.5-1.3
		c0.3-0.3,0.7-0.5,1.2-0.5c0.5,0,1,0.2,1.3,0.5s0.4,0.8,0.4,1.3v0.1c0,0.6-0.2,1-0.5,1.3C36.4,213.2,36,213.3,35.5,213.3z
		 M35.5,212.7c0.6,0,0.9-0.4,0.9-1.1v-0.2c0-0.4-0.1-0.7-0.2-0.9c-0.2-0.2-0.4-0.3-0.6-0.3c-0.3,0-0.5,0.1-0.6,0.3
		c-0.2,0.2-0.2,0.5-0.2,0.9v0.2c0,0.4,0.1,0.7,0.2,0.9C35,212.6,35.2,212.7,35.5,212.7z"/>
	<path class="st16" d="M38.1,213.2v-5.1h0.8v5.1H38.1z"/>
	<path class="st16" d="M40.9,213.3c-0.3,0-0.6-0.1-0.8-0.3c-0.2-0.2-0.3-0.4-0.3-0.8c0-0.6,0.4-1,1.2-1.1l0.8-0.1v-0.3
		c0-0.2-0.1-0.4-0.2-0.5c-0.1-0.1-0.3-0.1-0.6-0.1c-0.3,0-0.6,0-0.9,0.1v-0.6c0.3-0.1,0.7-0.2,1.2-0.2c0.9,0,1.3,0.4,1.3,1.1v2.6H42
		l-0.1-0.3h0C41.7,213.2,41.4,213.3,40.9,213.3z M41.2,212.7c0.3,0,0.5-0.1,0.7-0.2v-0.9l-0.7,0.1c-0.2,0-0.3,0.1-0.4,0.1
		c-0.1,0.1-0.1,0.2-0.1,0.4c0,0.2,0,0.3,0.2,0.4C40.9,212.7,41,212.7,41.2,212.7z"/>
	<path class="st16" d="M43.7,213.2v-3.6h0.8v0.3h0c0.4-0.3,0.7-0.4,1.2-0.4c0.4,0,0.6,0.1,0.8,0.2c0.2,0.2,0.3,0.4,0.3,0.8v2.7h-0.8
		v-2.5c0-0.2,0-0.3-0.1-0.4s-0.2-0.1-0.5-0.1c-0.3,0-0.5,0.1-0.8,0.2v2.8H43.7z"/>
	<path class="st16" d="M48.7,213.3c-0.3,0-0.6-0.1-0.8-0.3c-0.2-0.2-0.3-0.4-0.3-0.8c0-0.6,0.4-1,1.2-1.1l0.8-0.1v-0.3
		c0-0.2-0.1-0.4-0.2-0.5c-0.1-0.1-0.3-0.1-0.6-0.1c-0.3,0-0.6,0-0.9,0.1v-0.6c0.3-0.1,0.7-0.2,1.2-0.2c0.9,0,1.3,0.4,1.3,1.1v2.6
		h-0.7l-0.1-0.3h0C49.5,213.2,49.1,213.3,48.7,213.3z M49,212.7c0.3,0,0.5-0.1,0.7-0.2v-0.9l-0.7,0.1c-0.2,0-0.3,0.1-0.4,0.1
		c-0.1,0.1-0.1,0.2-0.1,0.4c0,0.2,0,0.3,0.2,0.4C48.7,212.7,48.8,212.7,49,212.7z"/>
	<path class="st16" d="M53.6,213.2v-4.8h1.7c1.1,0,1.6,0.4,1.6,1.2c0,0.5-0.3,0.9-0.8,1v0c0.7,0.1,1,0.5,1,1.1c0,0.4-0.1,0.7-0.4,1
		c-0.3,0.2-0.7,0.4-1.2,0.4H53.6z M54.4,210.5h0.7c0.6,0,0.9-0.2,0.9-0.7c0-0.3-0.1-0.4-0.2-0.5c-0.1-0.1-0.4-0.2-0.6-0.2h-0.7
		V210.5z M54.4,212.6h0.8c0.6,0,0.9-0.3,0.9-0.8c0-0.3-0.1-0.5-0.2-0.6s-0.4-0.2-0.7-0.2h-0.8V212.6z"/>
	<path class="st16" d="M58.1,213.2v-4.8h1.7c0.6,0,1,0.1,1.3,0.4c0.3,0.3,0.4,0.6,0.4,1.1c0,0.5-0.1,0.9-0.4,1.1
		c-0.3,0.3-0.7,0.4-1.2,0.4h-0.9v1.8H58.1z M58.9,210.8h0.7c0.3,0,0.5-0.1,0.7-0.2c0.1-0.1,0.2-0.3,0.2-0.6c0-0.3-0.1-0.5-0.2-0.7
		c-0.1-0.1-0.4-0.2-0.7-0.2h-0.7V210.8z"/>
	<path class="st16" d="M62.4,213.2v-4.8h2.9v0.7h-2.1v1.4h1.6v0.7h-1.6v2H62.4z"/>
	<path class="st16" d="M68.3,213.2v-4.8H70c1.1,0,1.6,0.4,1.6,1.2c0,0.5-0.3,0.9-0.8,1v0c0.7,0.1,1,0.5,1,1.1c0,0.4-0.1,0.7-0.4,1
		c-0.3,0.2-0.7,0.4-1.2,0.4H68.3z M69.2,210.5h0.7c0.6,0,0.9-0.2,0.9-0.7c0-0.3-0.1-0.4-0.2-0.5c-0.1-0.1-0.4-0.2-0.6-0.2h-0.7
		V210.5z M69.2,212.6H70c0.6,0,0.9-0.3,0.9-0.8c0-0.3-0.1-0.5-0.2-0.6s-0.4-0.2-0.7-0.2h-0.8V212.6z"/>
	<path class="st16" d="M73.1,214.3c-0.2,0-0.4,0-0.5-0.1v-0.5c0.1,0,0.2,0,0.3,0c0.2,0,0.3,0,0.4-0.1s0.2-0.2,0.2-0.3l0.1-0.3
		l-1.4-3.3h0.9l0.9,2.3h0l0.8-2.3h0.8l-1.4,3.7c-0.1,0.3-0.3,0.6-0.5,0.7C73.7,214.2,73.5,214.3,73.1,214.3z"/>
	<path class="st16" d="M77.7,213.3c-0.7,0-1-0.3-1-0.9v-2.1h-0.5v-0.6h0.5v-0.8h0.8v0.8h0.9v0.6h-0.9v2c0,0.2,0,0.3,0.1,0.3
		c0.1,0.1,0.2,0.1,0.4,0.1c0.1,0,0.3,0,0.4-0.1v0.5C78.2,213.2,78,213.3,77.7,213.3z"/>
	<path class="st16" d="M80.9,213.3c-0.6,0-1-0.2-1.3-0.5c-0.3-0.3-0.5-0.8-0.5-1.3v-0.1c0-0.6,0.2-1,0.5-1.3s0.7-0.5,1.2-0.5
		c0.5,0,0.9,0.1,1.2,0.4c0.2,0.3,0.4,0.7,0.4,1.3v0.3h-2.4c0,0.4,0.1,0.6,0.3,0.8c0.2,0.2,0.5,0.2,0.8,0.2c0.4,0,0.8-0.1,1.1-0.3
		v0.6C81.8,213.2,81.4,213.3,80.9,213.3z M80.7,210.2c-0.5,0-0.8,0.3-0.8,0.9h1.5c0-0.3-0.1-0.6-0.2-0.7
		C81.1,210.3,81,210.2,80.7,210.2z"/>
	<path class="st16" d="M84.7,213.3c-0.5,0-1-0.2-1.3-0.5c-0.3-0.3-0.5-0.7-0.5-1.3v-0.1c0-0.6,0.2-1.1,0.5-1.4
		c0.3-0.3,0.7-0.5,1.3-0.5c0.4,0,0.7,0.1,1,0.2v0.6c-0.3-0.1-0.6-0.2-0.9-0.2c-0.3,0-0.5,0.1-0.7,0.3c-0.2,0.2-0.3,0.5-0.3,0.8v0.2
		c0,0.4,0.1,0.7,0.3,0.9s0.4,0.3,0.8,0.3c0.3,0,0.6-0.1,0.9-0.2v0.6C85.4,213.2,85.1,213.3,84.7,213.3z"/>
	<path class="st16" d="M88.1,213.3c-0.5,0-1-0.2-1.3-0.5c-0.3-0.3-0.4-0.8-0.4-1.3v-0.1c0-0.6,0.2-1,0.5-1.3
		c0.3-0.3,0.7-0.5,1.2-0.5c0.5,0,1,0.2,1.3,0.5c0.3,0.3,0.4,0.8,0.4,1.3v0.1c0,0.6-0.2,1-0.5,1.3S88.6,213.3,88.1,213.3z
		 M88.1,212.7c0.6,0,0.9-0.4,0.9-1.1v-0.2c0-0.4-0.1-0.7-0.2-0.9s-0.4-0.3-0.6-0.3c-0.3,0-0.5,0.1-0.6,0.3c-0.2,0.2-0.2,0.5-0.2,0.9
		v0.2c0,0.4,0.1,0.7,0.2,0.9C87.6,212.6,87.8,212.7,88.1,212.7z"/>
	<path class="st16" d="M91.9,213.3c-0.4,0-0.8-0.1-1-0.4c-0.3-0.3-0.4-0.7-0.4-1.3v-0.1c0-0.6,0.1-1.1,0.4-1.4
		c0.3-0.3,0.7-0.5,1.2-0.5c0.3,0,0.6,0.1,0.9,0.2v-1.7h0.8v5.1h-0.7L93,213h0C92.7,213.2,92.4,213.3,91.9,213.3z M92.2,212.7
		c0.3,0,0.5-0.1,0.7-0.2v-2.1c-0.2-0.1-0.4-0.2-0.7-0.2c-0.3,0-0.5,0.1-0.7,0.3c-0.2,0.2-0.2,0.5-0.2,0.9v0.1c0,0.4,0.1,0.7,0.2,0.9
		C91.7,212.6,91.9,212.7,92.2,212.7z"/>
	<path class="st16" d="M96.4,213.3c-0.6,0-1-0.2-1.3-0.5c-0.3-0.3-0.5-0.8-0.5-1.3v-0.1c0-0.6,0.2-1,0.5-1.3s0.7-0.5,1.2-0.5
		c0.5,0,0.9,0.1,1.2,0.4c0.2,0.3,0.4,0.7,0.4,1.3v0.3h-2.4c0,0.4,0.1,0.6,0.3,0.8c0.2,0.2,0.5,0.2,0.8,0.2c0.4,0,0.8-0.1,1.1-0.3
		v0.6C97.4,213.2,96.9,213.3,96.4,213.3z M96.3,210.2c-0.5,0-0.8,0.3-0.8,0.9H97c0-0.3-0.1-0.6-0.2-0.7
		C96.7,210.3,96.5,210.2,96.3,210.2z"/>
	<path class="st16" d="M98.3,214c0.3-0.4,0.6-0.8,0.8-1.3c0.2-0.5,0.3-1,0.3-1.5v-0.2c0-0.5-0.1-1-0.3-1.6s-0.5-1-0.8-1.3H99
		c0.4,0.4,0.7,0.8,0.9,1.3c0.2,0.5,0.4,1,0.4,1.6v0.1c0,0.6-0.1,1.1-0.4,1.6c-0.2,0.5-0.6,0.9-0.9,1.3H98.3z"/>
</g>
<linearGradient id="SVGID_00000168075172583638549570000010972849052773494431_" gradientUnits="userSpaceOnUse" x1="124.989" y1="193.7966" x2="225.122" y2="193.7966">
	<stop  offset="0" style="stop-color:#52C1EA"/>
	<stop  offset="0.8386" style="stop-color:#3362AB"/>
	<stop  offset="1" style="stop-color:#2B4E9C"/>
</linearGradient>
<path style="fill:none;stroke:url(#SVGID_00000168075172583638549570000010972849052773494431_);stroke-width:0.75;stroke-miterlimit:10;" d="
	M219.1,230.8h-88c-3.1,0-5.7-2.5-5.7-5.7v-62.6c0-3.1,2.5-5.7,5.7-5.7h88c3.1,0,5.7,2.5,5.7,5.7v62.6
	C224.7,228.2,222.2,230.8,219.1,230.8z"/>
<linearGradient id="SVGID_00000008146662897654749670000014185031688412918154_" gradientUnits="userSpaceOnUse" x1="123.5788" y1="164.0765" x2="226.5321" y2="223.5166">
	<stop  offset="0" style="stop-color:#52C1EA"/>
	<stop  offset="0.5" style="stop-color:#3362AB"/>
	<stop  offset="1" style="stop-color:#2B4E9C"/>
</linearGradient>
<linearGradient id="SVGID_00000014619577476922846670000009649148373648470155_" gradientUnits="userSpaceOnUse" x1="124.989" y1="193.7966" x2="225.122" y2="193.7966">
	<stop  offset="0" style="stop-color:#52C1EA"/>
	<stop  offset="0.8386" style="stop-color:#3362AB"/>
	<stop  offset="1" style="stop-color:#2B4E9C"/>
</linearGradient>
<path style="opacity:0.1;fill:url(#SVGID_00000008146662897654749670000014185031688412918154_);stroke:url(#SVGID_00000014619577476922846670000009649148373648470155_);stroke-width:0.75;stroke-miterlimit:10;" d="
	M219.1,230.8h-88c-3.1,0-5.7-2.5-5.7-5.7v-62.6c0-3.1,2.5-5.7,5.7-5.7h88c3.1,0,5.7,2.5,5.7,5.7v62.6
	C224.7,228.2,222.2,230.8,219.1,230.8z"/>
<path class="st12" d="M218.3,226.5h-86.5c-2,0-3.6-1.6-3.6-3.6v-34.2c0-2,1.6-3.6,3.6-3.6h86.5c2,0,3.6,1.6,3.6,3.6V223
	C221.9,224.9,220.3,226.5,218.3,226.5z"/>
<g>
	<path class="st12" d="M166.2,174c-0.9,0-1.6-0.3-2-0.8c-0.5-0.5-0.7-1.3-0.7-2.3v-0.2c0-1,0.3-1.8,0.8-2.3c0.5-0.5,1.2-0.7,2.1-0.7
		c0.6,0,1.2,0.1,1.5,0.3v0.9c-0.5-0.2-1-0.3-1.5-0.3c-1.2,0-1.8,0.7-1.8,2v0.3c0,0.7,0.1,1.3,0.4,1.7c0.3,0.4,0.7,0.6,1.4,0.6
		c0.5,0,1-0.1,1.5-0.3v0.9C167.4,173.9,166.9,174,166.2,174z"/>
	<path class="st12" d="M169.1,173.9v-6.6h1v6.6H169.1z"/>
	<path class="st12" d="M171.6,168.5v-0.9h1.1v0.9H171.6z M171.6,173.9v-4.6h1v4.6H171.6z"/>
	<path class="st12" d="M176.1,174c-0.8,0-1.3-0.2-1.7-0.6s-0.6-1-0.6-1.7v-0.1c0-0.8,0.2-1.3,0.6-1.7c0.4-0.4,0.9-0.6,1.5-0.6
		c0.7,0,1.2,0.2,1.5,0.6s0.5,0.9,0.5,1.7v0.4h-3c0,0.5,0.2,0.8,0.4,1s0.6,0.3,1,0.3c0.5,0,1-0.1,1.4-0.3v0.7
		C177.3,173.9,176.7,174,176.1,174z M175.9,170c-0.6,0-1,0.4-1,1.2h2c0-0.4-0.1-0.7-0.2-0.9C176.4,170.1,176.2,170,175.9,170z"/>
	<path class="st12" d="M179,173.9v-4.6h1v0.4h0c0.5-0.3,1-0.5,1.5-0.5c0.5,0,0.8,0.1,1,0.3c0.2,0.2,0.3,0.5,0.3,1v3.4h-1v-3.2
		c0-0.2-0.1-0.4-0.2-0.5c-0.1-0.1-0.3-0.1-0.6-0.1c-0.3,0-0.7,0.1-1,0.3v3.6H179z"/>
	<path class="st12" d="M185.9,174c-0.9,0-1.3-0.4-1.3-1.2v-2.7h-0.6v-0.8h0.6v-1.1h1v1.1h1.1v0.8h-1.1v2.5c0,0.2,0,0.3,0.1,0.4
		c0.1,0.1,0.3,0.1,0.5,0.1c0.2,0,0.4,0,0.5-0.1v0.7C186.5,173.9,186.2,174,185.9,174z"/>
</g>
<g>
	<path class="st16" d="M134.6,200.7c-0.7,0-1.2-0.2-1.6-0.6c-0.4-0.4-0.6-1-0.6-1.8v-0.2c0-0.8,0.2-1.4,0.6-1.8
		c0.4-0.4,1-0.6,1.6-0.6c0.5,0,0.9,0.1,1.2,0.3v0.7c-0.4-0.1-0.8-0.2-1.1-0.2c-0.9,0-1.4,0.5-1.4,1.6v0.2c0,0.6,0.1,1,0.3,1.3
		c0.2,0.3,0.6,0.4,1.1,0.4c0.4,0,0.8-0.1,1.2-0.3v0.7C135.6,200.6,135.2,200.7,134.6,200.7z"/>
	<path class="st16" d="M138.4,200.6c-0.5,0-1-0.2-1.3-0.5s-0.4-0.8-0.4-1.3v-0.1c0-0.6,0.2-1,0.5-1.3c0.3-0.3,0.7-0.5,1.2-0.5
		c0.5,0,1,0.2,1.3,0.5c0.3,0.3,0.4,0.8,0.4,1.3v0.1c0,0.6-0.2,1-0.5,1.3C139.3,200.5,138.9,200.6,138.4,200.6z M138.4,200
		c0.6,0,0.9-0.4,0.9-1.1v-0.2c0-0.4-0.1-0.7-0.2-0.9c-0.2-0.2-0.4-0.3-0.6-0.3c-0.3,0-0.5,0.1-0.6,0.3c-0.2,0.2-0.2,0.5-0.2,0.9v0.2
		c0,0.4,0.1,0.7,0.2,0.9C137.9,199.9,138.1,200,138.4,200z"/>
	<path class="st16" d="M141,200.6V197h0.8v0.3h0c0.4-0.3,0.7-0.4,1.1-0.4c0.4,0,0.7,0.1,0.9,0.4h0c0.4-0.3,0.8-0.4,1.2-0.4
		c0.3,0,0.6,0.1,0.7,0.2c0.2,0.2,0.2,0.4,0.2,0.8v2.7h-0.8v-2.5c0-0.2,0-0.3-0.1-0.4s-0.2-0.1-0.4-0.1c-0.2,0-0.5,0.1-0.7,0.2
		c0,0.1,0,0.1,0,0.2v2.6h-0.8v-2.5c0-0.2,0-0.3-0.1-0.4s-0.2-0.1-0.4-0.1c-0.2,0-0.5,0.1-0.7,0.2v2.8H141z"/>
	<path class="st16" d="M147,200.6V197h0.8v0.3h0c0.4-0.3,0.7-0.4,1.1-0.4c0.4,0,0.7,0.1,0.9,0.4h0c0.4-0.3,0.8-0.4,1.2-0.4
		c0.3,0,0.6,0.1,0.7,0.2c0.2,0.2,0.2,0.4,0.2,0.8v2.7h-0.8v-2.5c0-0.2,0-0.3-0.1-0.4c-0.1-0.1-0.2-0.1-0.4-0.1
		c-0.2,0-0.5,0.1-0.7,0.2c0,0.1,0,0.1,0,0.2v2.6h-0.8v-2.5c0-0.2,0-0.3-0.1-0.4s-0.2-0.1-0.4-0.1c-0.2,0-0.5,0.1-0.7,0.2v2.8H147z"
		/>
	<path class="st16" d="M154,200.6c-0.3,0-0.6-0.1-0.8-0.3c-0.2-0.2-0.3-0.4-0.3-0.8c0-0.6,0.4-1,1.2-1.1l0.8-0.1v-0.3
		c0-0.2-0.1-0.4-0.2-0.5c-0.1-0.1-0.3-0.1-0.6-0.1c-0.3,0-0.6,0-0.9,0.1v-0.6c0.3-0.1,0.7-0.2,1.2-0.2c0.9,0,1.3,0.4,1.3,1.1v2.6
		H155l-0.1-0.3h0C154.7,200.5,154.4,200.6,154,200.6z M154.2,200.1c0.3,0,0.5-0.1,0.7-0.2V199l-0.7,0.1c-0.2,0-0.3,0.1-0.4,0.1
		c-0.1,0.1-0.1,0.2-0.1,0.4c0,0.2,0.1,0.3,0.2,0.4C153.9,200,154,200.1,154.2,200.1z"/>
	<path class="st16" d="M156.7,200.6V197h0.8v0.3h0c0.4-0.3,0.8-0.4,1.2-0.4c0.4,0,0.6,0.1,0.8,0.2c0.2,0.2,0.3,0.4,0.3,0.8v2.7H159
		v-2.5c0-0.2,0-0.3-0.1-0.4s-0.2-0.1-0.5-0.1c-0.3,0-0.5,0.1-0.8,0.2v2.8H156.7z"/>
	<path class="st16" d="M162.1,200.6c-0.4,0-0.8-0.1-1-0.4c-0.3-0.3-0.4-0.7-0.4-1.3v-0.1c0-0.6,0.1-1.1,0.4-1.4s0.7-0.5,1.2-0.5
		c0.3,0,0.6,0.1,0.9,0.2v-1.7h0.8v5.1h-0.7l-0.1-0.3h0C162.9,200.5,162.6,200.6,162.1,200.6z M162.4,200c0.3,0,0.5-0.1,0.7-0.2v-2.1
		c-0.2-0.1-0.4-0.2-0.7-0.2c-0.3,0-0.5,0.1-0.7,0.3c-0.2,0.2-0.2,0.5-0.2,0.9v0.1c0,0.4,0.1,0.7,0.2,0.9
		C161.9,199.9,162.1,200,162.4,200z"/>
	<path class="st16" d="M171.1,200.6v-4.8h0.9v4.1h2v0.7H171.1z"/>
	<path class="st16" d="M174.8,196.4v-0.7h0.8v0.7H174.8z M174.8,200.6V197h0.8v3.6H174.8z"/>
	<path class="st16" d="M176.7,200.6V197h0.8v0.3h0c0.4-0.3,0.7-0.4,1.2-0.4c0.4,0,0.6,0.1,0.8,0.2c0.2,0.2,0.3,0.4,0.3,0.8v2.7H179
		v-2.5c0-0.2,0-0.3-0.1-0.4s-0.2-0.1-0.5-0.1c-0.3,0-0.5,0.1-0.8,0.2v2.8H176.7z"/>
	<path class="st16" d="M182.4,200.6c-0.6,0-1-0.2-1.3-0.5c-0.3-0.3-0.5-0.8-0.5-1.3v-0.1c0-0.6,0.2-1,0.5-1.3
		c0.3-0.3,0.7-0.5,1.2-0.5c0.5,0,0.9,0.1,1.2,0.4s0.4,0.7,0.4,1.3v0.3h-2.4c0,0.4,0.1,0.6,0.3,0.8c0.2,0.2,0.5,0.2,0.8,0.2
		c0.4,0,0.8-0.1,1.1-0.3v0.6C183.4,200.5,182.9,200.6,182.4,200.6z M182.3,197.5c-0.5,0-0.8,0.3-0.8,0.9h1.5c0-0.3-0.1-0.6-0.2-0.7
		C182.7,197.6,182.5,197.5,182.3,197.5z"/>
	<path class="st16" d="M186.8,200.6v-4.8h0.9v4.8H186.8z"/>
	<path class="st16" d="M188.9,200.6V197h0.8v0.3h0c0.4-0.3,0.7-0.4,1.2-0.4c0.4,0,0.6,0.1,0.8,0.2c0.2,0.2,0.3,0.4,0.3,0.8v2.7h-0.8
		v-2.5c0-0.2,0-0.3-0.1-0.4s-0.2-0.1-0.5-0.1c-0.3,0-0.5,0.1-0.8,0.2v2.8H188.9z"/>
	<path class="st16" d="M194.2,200.6c-0.7,0-1-0.3-1-0.9v-2.1h-0.5V197h0.5v-0.8h0.8v0.8h0.9v0.6H194v2c0,0.2,0,0.3,0.1,0.3
		s0.2,0.1,0.4,0.1c0.1,0,0.3,0,0.4-0.1v0.5C194.7,200.6,194.5,200.6,194.2,200.6z"/>
	<path class="st16" d="M197.3,200.6c-0.6,0-1-0.2-1.3-0.5c-0.3-0.3-0.5-0.8-0.5-1.3v-0.1c0-0.6,0.2-1,0.5-1.3
		c0.3-0.3,0.7-0.5,1.2-0.5c0.5,0,0.9,0.1,1.2,0.4c0.2,0.3,0.4,0.7,0.4,1.3v0.3h-2.4c0,0.4,0.1,0.6,0.3,0.8s0.5,0.2,0.8,0.2
		c0.4,0,0.8-0.1,1.1-0.3v0.6C198.3,200.5,197.8,200.6,197.3,200.6z M197.2,197.5c-0.5,0-0.8,0.3-0.8,0.9h1.5c0-0.3-0.1-0.6-0.2-0.7
		C197.6,197.6,197.4,197.5,197.2,197.5z"/>
	<path class="st16" d="M199.6,200.6V197h0.8v0.4h0c0.1-0.1,0.2-0.2,0.4-0.3c0.2-0.1,0.4-0.1,0.5-0.1c0.1,0,0.2,0,0.2,0v0.7
		c-0.1,0-0.2,0-0.3,0c-0.3,0-0.6,0.1-0.9,0.2v2.7H199.6z"/>
	<path class="st16" d="M202.4,201.6V197h0.8v0.3h0c0.2-0.2,0.6-0.4,1-0.4c0.4,0,0.8,0.1,1,0.4s0.4,0.7,0.4,1.3v0.1
		c0,1.3-0.5,1.9-1.6,1.9c-0.3,0-0.6-0.1-0.8-0.2v1.2H202.4z M203.9,200c0.3,0,0.5-0.1,0.7-0.3c0.2-0.2,0.2-0.5,0.2-0.9v-0.1
		c0-0.4-0.1-0.7-0.2-0.9c-0.1-0.2-0.4-0.3-0.7-0.3c-0.3,0-0.6,0.1-0.8,0.2v2C203.4,200,203.6,200,203.9,200z"/>
	<path class="st16" d="M207.5,200.6c-0.3,0-0.6-0.1-0.8-0.3s-0.3-0.4-0.3-0.8c0-0.6,0.4-1,1.2-1.1l0.8-0.1v-0.3
		c0-0.2-0.1-0.4-0.2-0.5c-0.1-0.1-0.3-0.1-0.6-0.1c-0.3,0-0.6,0-0.9,0.1v-0.6c0.3-0.1,0.7-0.2,1.2-0.2c0.9,0,1.3,0.4,1.3,1.1v2.6
		h-0.7l-0.1-0.3h0C208.2,200.5,207.9,200.6,207.5,200.6z M207.7,200.1c0.3,0,0.5-0.1,0.7-0.2V199l-0.7,0.1c-0.2,0-0.3,0.1-0.4,0.1
		c-0.1,0.1-0.1,0.2-0.1,0.4c0,0.2,0.1,0.3,0.2,0.4C207.4,200,207.5,200.1,207.7,200.1z"/>
	<path class="st16" d="M211.8,200.6c-0.5,0-1-0.2-1.3-0.5s-0.5-0.7-0.5-1.3v-0.1c0-0.6,0.2-1.1,0.5-1.4c0.3-0.3,0.7-0.5,1.3-0.5
		c0.4,0,0.7,0.1,1,0.2v0.6c-0.3-0.1-0.6-0.2-0.9-0.2c-0.3,0-0.5,0.1-0.7,0.3c-0.2,0.2-0.3,0.5-0.3,0.8v0.2c0,0.4,0.1,0.7,0.3,0.9
		c0.2,0.2,0.4,0.3,0.8,0.3c0.3,0,0.6-0.1,0.9-0.2v0.6C212.5,200.5,212.2,200.6,211.8,200.6z"/>
	<path class="st16" d="M215.3,200.6c-0.6,0-1-0.2-1.3-0.5c-0.3-0.3-0.5-0.8-0.5-1.3v-0.1c0-0.6,0.2-1,0.5-1.3
		c0.3-0.3,0.7-0.5,1.2-0.5c0.5,0,0.9,0.1,1.2,0.4c0.2,0.3,0.4,0.7,0.4,1.3v0.3h-2.4c0,0.4,0.1,0.6,0.3,0.8s0.5,0.2,0.8,0.2
		c0.4,0,0.8-0.1,1.1-0.3v0.6C216.2,200.5,215.8,200.6,215.3,200.6z M215.1,197.5c-0.5,0-0.8,0.3-0.8,0.9h1.5c0-0.3-0.1-0.6-0.2-0.7
		C215.5,197.6,215.4,197.5,215.1,197.5z"/>
	<path class="st16" d="M132.9,211.9c-0.4,0-0.7-0.1-1-0.2v-0.6c0.3,0.1,0.5,0.1,0.8,0.1c0.5,0,0.7-0.2,0.7-0.7v-3.4h0.9v3.5
		c0,0.4-0.1,0.7-0.4,1C133.7,211.8,133.3,211.9,132.9,211.9z"/>
	<path class="st16" d="M136.3,212c-0.3,0-0.6-0.1-0.8-0.3s-0.3-0.4-0.3-0.8c0-0.6,0.4-1,1.2-1.1l0.8-0.1v-0.3c0-0.2-0.1-0.4-0.2-0.5
		c-0.1-0.1-0.3-0.1-0.6-0.1c-0.3,0-0.6,0-0.9,0.1v-0.6c0.3-0.1,0.7-0.2,1.2-0.2c0.9,0,1.3,0.4,1.3,1.1v2.6h-0.7l-0.1-0.3h0
		C137.1,211.8,136.7,212,136.3,212z M136.6,211.4c0.3,0,0.5-0.1,0.7-0.2v-0.9l-0.7,0.1c-0.2,0-0.3,0.1-0.4,0.1
		c-0.1,0.1-0.1,0.2-0.1,0.4c0,0.2,0.1,0.3,0.2,0.4C136.3,211.4,136.4,211.4,136.6,211.4z"/>
	<path class="st16" d="M140.1,211.9l-1.3-3.6h0.9l0.9,2.6h0l0.9-2.6h0.8l-1.3,3.6H140.1z"/>
	<path class="st16" d="M143.9,212c-0.3,0-0.6-0.1-0.8-0.3c-0.2-0.2-0.3-0.4-0.3-0.8c0-0.6,0.4-1,1.2-1.1l0.8-0.1v-0.3
		c0-0.2-0.1-0.4-0.2-0.5c-0.1-0.1-0.3-0.1-0.6-0.1c-0.3,0-0.6,0-0.9,0.1v-0.6c0.3-0.1,0.7-0.2,1.2-0.2c0.9,0,1.3,0.4,1.3,1.1v2.6
		h-0.7l-0.1-0.3h0C144.6,211.8,144.3,212,143.9,212z M144.1,211.4c0.3,0,0.5-0.1,0.7-0.2v-0.9l-0.7,0.1c-0.2,0-0.3,0.1-0.4,0.1
		c-0.1,0.1-0.1,0.2-0.1,0.4c0,0.2,0,0.3,0.2,0.4C143.8,211.4,144,211.4,144.1,211.4z"/>
	<path class="st16" d="M147.6,212c-0.5,0-0.9-0.1-1.2-0.2v-0.6c0.4,0.1,0.7,0.2,1.1,0.2c0.5,0,0.7-0.1,0.7-0.4c0-0.1,0-0.2-0.1-0.3
		c-0.1-0.1-0.2-0.1-0.4-0.2l-0.3-0.1c-0.3-0.1-0.5-0.2-0.7-0.3s-0.2-0.4-0.2-0.7c0-0.3,0.1-0.6,0.3-0.8s0.6-0.3,1-0.3
		c0.4,0,0.7,0.1,1,0.2v0.6c-0.3-0.1-0.6-0.2-1-0.2c-0.4,0-0.6,0.1-0.6,0.4c0,0.1,0,0.2,0.1,0.3s0.2,0.1,0.4,0.2l0.3,0.1
		c0.4,0.1,0.6,0.2,0.8,0.4c0.1,0.2,0.2,0.4,0.2,0.7c0,0.4-0.1,0.6-0.4,0.8C148.4,211.9,148.1,212,147.6,212z"/>
	<path class="st16" d="M151.4,212c-0.5,0-1-0.2-1.3-0.5s-0.5-0.7-0.5-1.3v-0.1c0-0.6,0.2-1.1,0.5-1.4c0.3-0.3,0.7-0.5,1.3-0.5
		c0.4,0,0.7,0.1,1,0.2v0.6c-0.3-0.1-0.6-0.2-0.9-0.2c-0.3,0-0.5,0.1-0.7,0.3c-0.2,0.2-0.3,0.5-0.3,0.8v0.2c0,0.4,0.1,0.7,0.3,0.9
		c0.2,0.2,0.4,0.3,0.8,0.3c0.3,0,0.6-0.1,0.9-0.2v0.6C152.2,211.9,151.8,212,151.4,212z"/>
	<path class="st16" d="M153.3,211.9v-3.6h0.8v0.4h0c0.1-0.1,0.2-0.2,0.4-0.3c0.2-0.1,0.4-0.1,0.5-0.1c0.1,0,0.2,0,0.2,0v0.7
		c-0.1,0-0.2,0-0.3,0c-0.3,0-0.6,0.1-0.9,0.2v2.7H153.3z"/>
	<path class="st16" d="M156.1,207.7V207h0.8v0.7H156.1z M156.1,211.9v-3.6h0.8v3.6H156.1z"/>
	<path class="st16" d="M158.1,212.9v-4.6h0.8v0.3h0c0.2-0.2,0.6-0.4,1-0.4c0.4,0,0.8,0.1,1,0.4s0.4,0.7,0.4,1.3v0.1
		c0,1.3-0.5,1.9-1.6,1.9c-0.3,0-0.6-0.1-0.8-0.2v1.2H158.1z M159.6,211.4c0.3,0,0.5-0.1,0.7-0.3c0.2-0.2,0.2-0.5,0.2-0.9V210
		c0-0.4-0.1-0.7-0.2-0.9c-0.1-0.2-0.4-0.3-0.7-0.3c-0.3,0-0.6,0.1-0.8,0.2v2C159,211.3,159.3,211.4,159.6,211.4z"/>
	<path class="st16" d="M163.5,211.9c-0.7,0-1-0.3-1-0.9v-2.1h-0.5v-0.6h0.5v-0.8h0.8v0.8h0.9v0.6h-0.9v2c0,0.2,0,0.3,0.1,0.3
		s0.2,0.1,0.4,0.1c0.1,0,0.3,0,0.4-0.1v0.5C163.9,211.9,163.7,211.9,163.5,211.9z"/>
	<path class="st16" d="M169.5,211.6c-0.3,0.3-0.7,0.4-1.3,0.4s-1-0.1-1.4-0.3V211c0.4,0.2,0.9,0.3,1.4,0.3c0.6,0,0.9-0.2,0.9-0.7
		c0-0.2-0.1-0.3-0.2-0.4c-0.1-0.1-0.3-0.2-0.5-0.3l-0.5-0.1c-0.4-0.1-0.6-0.3-0.8-0.5c-0.2-0.2-0.3-0.5-0.3-0.9c0-0.4,0.1-0.8,0.4-1
		c0.3-0.2,0.7-0.4,1.2-0.4c0.5,0,0.9,0.1,1.2,0.3v0.7c-0.4-0.2-0.8-0.2-1.2-0.2c-0.3,0-0.4,0.1-0.6,0.2c-0.1,0.1-0.2,0.2-0.2,0.4
		s0,0.3,0.1,0.4s0.2,0.2,0.5,0.2l0.4,0.1c0.4,0.1,0.7,0.3,0.9,0.5c0.2,0.2,0.3,0.5,0.3,0.9C169.9,211,169.8,211.3,169.5,211.6z"/>
	<path class="st16" d="M170.9,211.9v-4.8h1.6c1.5,0,2.3,0.8,2.3,2.3v0.1c0,0.8-0.2,1.4-0.6,1.8c-0.4,0.4-1,0.6-1.7,0.6H170.9z
		 M171.8,211.2h0.7c0.5,0,0.8-0.1,1-0.4c0.2-0.3,0.3-0.7,0.3-1.2v-0.2c0-0.6-0.1-1-0.4-1.2c-0.2-0.2-0.6-0.4-1.1-0.4h-0.7V211.2z"/>
	<path class="st16" d="M175.8,211.9v-4.8h0.9v4.8H175.8z M178.6,211.9l-1.8-2.4c0.6-0.8,1.2-1.5,1.8-2.4h0.9l-1.7,2.3
		c0.8,1.1,1.4,2,1.8,2.5H178.6z"/>
	<path class="st16" d="M186.4,211.5v-4.8h1.6c1.1,0,1.7,0.5,1.7,1.4c0,0.6-0.3,1-0.9,1.2v0l1.2,2.1H189l-1.1-1.9h-0.7v1.9H186.4z
		 M187.2,208.9h0.7c0.3,0,0.5-0.1,0.7-0.2c0.1-0.1,0.2-0.3,0.2-0.6c0-0.3-0.1-0.5-0.2-0.6c-0.1-0.1-0.4-0.2-0.7-0.2h-0.7V208.9z"/>
	<path class="st16" d="M191.8,211.5c-0.7,0-1.1-0.4-1.1-1v-2.6h0.8v2.5c0,0.2,0,0.3,0.1,0.4c0.1,0.1,0.2,0.1,0.5,0.1
		c0.2,0,0.5-0.1,0.8-0.2v-2.8h0.8v3.6H193l-0.1-0.3h0C192.6,211.4,192.2,211.5,191.8,211.5z"/>
	<path class="st16" d="M195.8,211.5c-0.5,0-0.9-0.1-1.2-0.2v-0.6c0.4,0.1,0.7,0.2,1.1,0.2c0.5,0,0.7-0.1,0.7-0.4
		c0-0.1,0-0.2-0.1-0.3c-0.1-0.1-0.2-0.1-0.4-0.2l-0.3-0.1c-0.3-0.1-0.5-0.2-0.7-0.3s-0.2-0.4-0.2-0.7c0-0.3,0.1-0.6,0.3-0.8
		s0.6-0.3,1-0.3c0.4,0,0.7,0.1,1,0.2v0.6c-0.3-0.1-0.6-0.2-1-0.2c-0.4,0-0.6,0.1-0.6,0.4c0,0.1,0,0.2,0.1,0.3s0.2,0.1,0.4,0.2
		l0.3,0.1c0.4,0.1,0.6,0.2,0.8,0.4c0.1,0.2,0.2,0.4,0.2,0.7c0,0.4-0.1,0.6-0.4,0.8C196.6,211.4,196.2,211.5,195.8,211.5z"/>
	<path class="st16" d="M199.3,211.5c-0.7,0-1-0.3-1-0.9v-2.1h-0.5v-0.6h0.5V207h0.8v0.8h0.9v0.6h-0.9v2c0,0.2,0,0.3,0.1,0.3
		c0.1,0.1,0.2,0.1,0.4,0.1c0.1,0,0.3,0,0.4-0.1v0.5C199.8,211.5,199.6,211.5,199.3,211.5z"/>
	<path class="st16" d="M205.3,211.2c-0.3,0.3-0.7,0.4-1.3,0.4c-0.6,0-1-0.1-1.4-0.3v-0.7c0.4,0.2,0.9,0.3,1.4,0.3
		c0.6,0,0.9-0.2,0.9-0.7c0-0.2-0.1-0.3-0.2-0.4c-0.1-0.1-0.3-0.2-0.5-0.3l-0.5-0.1c-0.4-0.1-0.6-0.3-0.8-0.5
		c-0.2-0.2-0.3-0.5-0.3-0.9c0-0.4,0.1-0.8,0.4-1c0.3-0.2,0.7-0.4,1.2-0.4c0.5,0,0.9,0.1,1.2,0.3v0.7c-0.4-0.2-0.8-0.2-1.2-0.2
		c-0.3,0-0.4,0.1-0.6,0.2s-0.2,0.2-0.2,0.4s0,0.3,0.1,0.4c0.1,0.1,0.2,0.2,0.5,0.2l0.4,0.1c0.4,0.1,0.7,0.3,0.9,0.5s0.3,0.5,0.3,0.9
		C205.8,210.6,205.6,210.9,205.3,211.2z"/>
	<path class="st16" d="M206.8,211.5v-4.8h1.6c1.5,0,2.3,0.8,2.3,2.3v0.1c0,0.8-0.2,1.4-0.6,1.8c-0.4,0.4-1,0.6-1.7,0.6H206.8z
		 M207.6,210.8h0.7c0.5,0,0.8-0.1,1-0.4c0.2-0.3,0.3-0.7,0.3-1.2v-0.2c0-0.6-0.1-1-0.4-1.2c-0.2-0.2-0.6-0.4-1.1-0.4h-0.7V210.8z"/>
	<path class="st16" d="M211.7,211.5v-4.8h0.9v4.8H211.7z M214.4,211.5l-1.8-2.4c0.6-0.8,1.2-1.5,1.8-2.4h0.9l-1.7,2.3
		c0.8,1.1,1.4,2,1.8,2.5H214.4z"/>
	<path class="st16" d="M149,222.1c-0.3,0-0.5,0-0.8-0.1c-0.3-0.1-0.5-0.1-0.6-0.2l0.1-0.6c0.1,0.1,0.3,0.1,0.5,0.2
		c0.2,0.1,0.4,0.1,0.6,0.1c0.3,0,0.6-0.1,0.8-0.2c0.2-0.1,0.3-0.3,0.3-0.6c0-0.5-0.3-0.7-1-0.7l-0.5,0v-0.6l0.4,0
		c0.3,0,0.5-0.1,0.7-0.2s0.3-0.3,0.3-0.5c0-0.4-0.3-0.7-0.9-0.7c-0.3,0-0.7,0.1-1,0.3l-0.1-0.6c0.1-0.1,0.4-0.2,0.6-0.2
		c0.3-0.1,0.5-0.1,0.7-0.1c0.5,0,0.8,0.1,1.1,0.3s0.4,0.5,0.4,0.9c0,0.5-0.3,0.9-0.9,1.1c0.7,0.1,1,0.5,1,1.2c0,0.4-0.2,0.8-0.5,1
		S149.6,222.1,149,222.1z"/>
	<path class="st16" d="M151.7,222.1v-3.6h0.8v0.4h0c0.1-0.1,0.2-0.2,0.4-0.3c0.2-0.1,0.4-0.1,0.5-0.1c0.1,0,0.2,0,0.2,0v0.7
		c-0.1,0-0.2,0-0.3,0c-0.3,0-0.6,0.1-0.9,0.2v2.7H151.7z"/>
	<path class="st16" d="M155.8,222.1c-0.4,0-0.8-0.1-1-0.4c-0.3-0.3-0.4-0.7-0.4-1.3v-0.1c0-0.6,0.1-1.1,0.4-1.4
		c0.3-0.3,0.7-0.5,1.2-0.5c0.3,0,0.6,0.1,0.9,0.2V217h0.8v5.1h-0.7l-0.1-0.3h0C156.6,222,156.2,222.1,155.8,222.1z M156.1,221.5
		c0.3,0,0.5-0.1,0.7-0.2v-2.1c-0.2-0.1-0.4-0.2-0.7-0.2c-0.3,0-0.5,0.1-0.7,0.3c-0.2,0.2-0.2,0.5-0.2,0.9v0.1c0,0.4,0.1,0.7,0.2,0.9
		C155.6,221.4,155.8,221.5,156.1,221.5z"/>
	<path class="st16" d="M160.8,222.1v-4.8h1.7c0.6,0,1,0.1,1.3,0.4s0.4,0.6,0.4,1.1c0,0.5-0.1,0.9-0.4,1.1s-0.7,0.4-1.2,0.4h-0.9v1.8
		H160.8z M161.6,219.6h0.7c0.3,0,0.5-0.1,0.7-0.2c0.1-0.1,0.2-0.3,0.2-0.6c0-0.3-0.1-0.5-0.2-0.7c-0.1-0.1-0.4-0.2-0.7-0.2h-0.7
		V219.6z"/>
	<path class="st16" d="M165.9,222.1c-0.3,0-0.6-0.1-0.8-0.3c-0.2-0.2-0.3-0.4-0.3-0.8c0-0.6,0.4-1,1.2-1.1l0.8-0.1v-0.3
		c0-0.2-0.1-0.4-0.2-0.5c-0.1-0.1-0.3-0.1-0.6-0.1c-0.3,0-0.6,0-0.9,0.1v-0.6c0.3-0.1,0.7-0.2,1.2-0.2c0.9,0,1.3,0.4,1.3,1.1v2.6
		h-0.7l-0.1-0.3h0C166.6,222,166.3,222.1,165.9,222.1z M166.1,221.6c0.3,0,0.5-0.1,0.7-0.2v-0.9l-0.7,0.1c-0.2,0-0.3,0.1-0.4,0.1
		c-0.1,0.1-0.1,0.2-0.1,0.4c0,0.2,0.1,0.3,0.2,0.4C165.8,221.5,166,221.6,166.1,221.6z"/>
	<path class="st16" d="M168.7,222.1v-3.6h0.8v0.4h0c0.1-0.1,0.2-0.2,0.4-0.3c0.2-0.1,0.4-0.1,0.5-0.1c0.1,0,0.2,0,0.2,0v0.7
		c-0.1,0-0.2,0-0.3,0c-0.3,0-0.6,0.1-0.9,0.2v2.7H168.7z"/>
	<path class="st16" d="M172.7,222.1c-0.7,0-1-0.3-1-0.9v-2.1h-0.5v-0.6h0.5v-0.8h0.8v0.8h0.9v0.6h-0.9v2c0,0.2,0,0.3,0.1,0.3
		s0.2,0.1,0.4,0.1c0.1,0,0.3,0,0.4-0.1v0.5C173.2,222.1,172.9,222.1,172.7,222.1z"/>
	<path class="st16" d="M174.6,223.1c-0.2,0-0.4,0-0.5-0.1v-0.5c0.1,0,0.2,0,0.4,0c0.2,0,0.3,0,0.4-0.1c0.1-0.1,0.2-0.2,0.2-0.3
		l0.1-0.3l-1.4-3.3h0.9l0.9,2.3h0l0.8-2.3h0.8l-1.4,3.7c-0.1,0.3-0.3,0.6-0.5,0.7C175.2,223,175,223.1,174.6,223.1z"/>
	<path class="st16" d="M182.5,221.8c-0.3,0.3-0.7,0.4-1.3,0.4s-1-0.1-1.4-0.3v-0.7c0.4,0.2,0.9,0.3,1.4,0.3c0.6,0,0.9-0.2,0.9-0.7
		c0-0.2,0-0.3-0.2-0.4c-0.1-0.1-0.3-0.2-0.5-0.3l-0.5-0.1c-0.4-0.1-0.6-0.3-0.8-0.5c-0.2-0.2-0.3-0.5-0.3-0.9c0-0.4,0.1-0.8,0.4-1
		c0.3-0.2,0.7-0.4,1.2-0.4c0.5,0,0.9,0.1,1.2,0.3v0.7c-0.4-0.2-0.8-0.2-1.2-0.2c-0.3,0-0.4,0.1-0.6,0.2c-0.1,0.1-0.2,0.2-0.2,0.4
		s0,0.3,0.1,0.4s0.2,0.2,0.5,0.2l0.4,0.1c0.4,0.1,0.7,0.3,0.9,0.5c0.2,0.2,0.3,0.5,0.3,0.9C183,221.2,182.8,221.5,182.5,221.8z"/>
	<path class="st16" d="M184,222.1v-4.8h1.6c1.5,0,2.3,0.8,2.3,2.3v0.1c0,0.8-0.2,1.4-0.6,1.8c-0.4,0.4-1,0.6-1.7,0.6H184z
		 M184.8,221.4h0.7c0.5,0,0.8-0.1,1-0.4c0.2-0.3,0.3-0.7,0.3-1.2v-0.2c0-0.6-0.1-1-0.4-1.2c-0.2-0.2-0.6-0.4-1.1-0.4h-0.7V221.4z"/>
	<path class="st16" d="M188.9,222.1v-4.8h0.9v4.8H188.9z M191.6,222.1l-1.8-2.4c0.6-0.8,1.2-1.5,1.8-2.4h0.9l-1.7,2.3
		c0.8,1.1,1.4,2,1.8,2.5H191.6z"/>
	<path class="st16" d="M194.3,222.1c-0.5,0-0.9-0.1-1.2-0.2v-0.6c0.4,0.1,0.7,0.2,1.1,0.2c0.5,0,0.7-0.1,0.7-0.4
		c0-0.1,0-0.2-0.1-0.3c-0.1-0.1-0.2-0.1-0.4-0.2l-0.3-0.1c-0.3-0.1-0.5-0.2-0.7-0.3c-0.2-0.2-0.2-0.4-0.2-0.7c0-0.3,0.1-0.6,0.3-0.8
		c0.2-0.2,0.6-0.3,1-0.3c0.4,0,0.7,0.1,1,0.2v0.6c-0.3-0.1-0.6-0.2-1-0.2c-0.4,0-0.6,0.1-0.6,0.4c0,0.1,0,0.2,0.1,0.3
		s0.2,0.1,0.4,0.2l0.3,0.1c0.4,0.1,0.6,0.2,0.8,0.4c0.1,0.2,0.2,0.4,0.2,0.7c0,0.4-0.1,0.6-0.4,0.8
		C195.1,222,194.8,222.1,194.3,222.1z"/>
	<path class="st16" d="M196.6,222.2v-0.8h0.9v0.8H196.6z"/>
	<path class="st16" d="M198.5,222.2v-0.8h0.9v0.8H198.5z"/>
	<path class="st16" d="M200.4,222.2v-0.8h0.9v0.8H200.4z"/>
</g>
<linearGradient id="SVGID_00000020364070681434576320000002906982670626681249_" gradientUnits="userSpaceOnUse" x1="85.0102" y1="384.0501" x2="166.6113" y2="384.0501">
	<stop  offset="0" style="stop-color:#52C1EA"/>
	<stop  offset="0.8386" style="stop-color:#3362AB"/>
	<stop  offset="1" style="stop-color:#2B4E9C"/>
</linearGradient>
<path style="fill:none;stroke:url(#SVGID_00000020364070681434576320000002906982670626681249_);stroke-width:0.75;stroke-miterlimit:10;" d="
	M160.6,436.3H91.1c-3.1,0-5.7-2.5-5.7-5.7v-93.1c0-3.1,2.5-5.7,5.7-5.7h69.5c3.1,0,5.7,2.5,5.7,5.7v93.1
	C166.2,433.7,163.7,436.3,160.6,436.3z"/>
<g>
	<path class="st12" d="M96.7,344c-0.4,0.3-0.9,0.5-1.7,0.5s-1.3-0.1-1.8-0.4v-0.9c0.6,0.3,1.2,0.4,1.8,0.4c0.8,0,1.2-0.3,1.2-0.9
		c0-0.3-0.1-0.4-0.2-0.6s-0.4-0.2-0.7-0.4l-0.6-0.2c-0.5-0.1-0.8-0.3-1-0.6s-0.4-0.7-0.4-1.2c0-0.5,0.2-1,0.5-1.3s0.9-0.5,1.5-0.5
		c0.6,0,1.2,0.1,1.6,0.3v0.9c-0.5-0.2-1-0.3-1.6-0.3c-0.3,0-0.6,0.1-0.7,0.2c-0.2,0.1-0.3,0.3-0.3,0.6s0.1,0.4,0.2,0.6
		c0.1,0.1,0.3,0.2,0.6,0.3l0.6,0.2c0.5,0.1,0.9,0.4,1.2,0.6c0.3,0.3,0.4,0.6,0.4,1.2C97.3,343.2,97.1,343.7,96.7,344z"/>
	<path class="st12" d="M100.4,344.5c-0.7,0-1.2-0.2-1.6-0.6s-0.6-1-0.6-1.7V342c0-0.7,0.2-1.3,0.6-1.7c0.4-0.4,0.9-0.6,1.6-0.6
		c0.7,0,1.2,0.2,1.6,0.6c0.4,0.4,0.6,1,0.6,1.7v0.1c0,0.7-0.2,1.3-0.6,1.7S101.1,344.5,100.4,344.5z M100.4,343.7
		c0.7,0,1.1-0.5,1.1-1.5V342c0-0.6-0.1-1-0.3-1.2c-0.2-0.2-0.5-0.3-0.8-0.3c-0.4,0-0.6,0.1-0.8,0.4c-0.2,0.3-0.3,0.6-0.3,1.1v0.2
		c0,0.6,0.1,1,0.3,1.2S100.1,343.7,100.4,343.7z"/>
	<path class="st12" d="M103.8,344.4v-6.6h1v6.6H103.8z"/>
	<path class="st12" d="M107.4,344.5c-0.4,0-0.8-0.1-1-0.3c-0.3-0.2-0.4-0.5-0.4-1c0-0.8,0.5-1.2,1.5-1.4l1.1-0.1v-0.4
		c0-0.3-0.1-0.5-0.2-0.6c-0.2-0.1-0.4-0.2-0.8-0.2c-0.4,0-0.8,0-1.1,0.1v-0.7c0.4-0.2,0.9-0.3,1.5-0.3c1.1,0,1.7,0.5,1.7,1.4v3.3
		h-0.9l-0.1-0.4h-0.1C108.3,344.3,107.9,344.5,107.4,344.5z M107.7,343.7c0.4,0,0.6-0.1,0.8-0.3v-1.1l-0.9,0.1
		c-0.2,0-0.4,0.1-0.5,0.2c-0.1,0.1-0.2,0.3-0.2,0.5c0,0.2,0.1,0.4,0.2,0.5C107.3,343.7,107.5,343.7,107.7,343.7z"/>
	<path class="st12" d="M111,344.4v-4.6h1v0.4h0c0.5-0.3,1-0.5,1.5-0.5c0.5,0,0.8,0.1,1,0.3c0.2,0.2,0.3,0.5,0.3,1v3.4h-1v-3.2
		c0-0.2-0.1-0.4-0.2-0.5c-0.1-0.1-0.3-0.1-0.6-0.1c-0.3,0-0.7,0.1-1,0.3v3.6H111z"/>
	<path class="st12" d="M117.4,344.5c-0.4,0-0.8-0.1-1-0.3c-0.3-0.2-0.4-0.5-0.4-1c0-0.8,0.5-1.2,1.5-1.4l1.1-0.1v-0.4
		c0-0.3-0.1-0.5-0.2-0.6c-0.2-0.1-0.4-0.2-0.8-0.2c-0.4,0-0.8,0-1.1,0.1v-0.7c0.4-0.2,0.9-0.3,1.5-0.3c1.1,0,1.7,0.5,1.7,1.4v3.3
		h-0.9l-0.1-0.4h-0.1C118.3,344.3,117.9,344.5,117.4,344.5z M117.7,343.7c0.4,0,0.6-0.1,0.8-0.3v-1.1l-0.9,0.1
		c-0.2,0-0.4,0.1-0.5,0.2c-0.1,0.1-0.2,0.3-0.2,0.5c0,0.2,0.1,0.4,0.2,0.5C117.3,343.7,117.5,343.7,117.7,343.7z"/>
	<path class="st12" d="M123.6,344.4v-6.2h1.2l2.6,4.4h0v-4.4h1v6.2h-1.1l-2.7-4.7h0v4.7H123.6z"/>
	<path class="st12" d="M132,344.5c-0.8,0-1.3-0.2-1.7-0.6s-0.6-1-0.6-1.7V342c0-0.8,0.2-1.3,0.6-1.7c0.4-0.4,0.9-0.6,1.5-0.6
		c0.7,0,1.2,0.2,1.5,0.6s0.5,0.9,0.5,1.7v0.4h-3c0,0.5,0.2,0.8,0.4,1s0.6,0.3,1,0.3c0.5,0,1-0.1,1.4-0.3v0.7
		C133.2,344.3,132.7,344.5,132,344.5z M131.8,340.4c-0.6,0-1,0.4-1,1.2h2c0-0.4-0.1-0.7-0.2-0.9
		C132.4,340.5,132.1,340.4,131.8,340.4z"/>
	<path class="st12" d="M136.5,344.4c-0.9,0-1.3-0.4-1.3-1.2v-2.7h-0.6v-0.8h0.6v-1.1h1v1.1h1.1v0.8h-1.1v2.5c0,0.2,0,0.3,0.1,0.4
		c0.1,0.1,0.3,0.1,0.5,0.1c0.2,0,0.4,0,0.5-0.1v0.7C137.1,344.4,136.8,344.4,136.5,344.4z"/>
	<path class="st12" d="M139.4,344.4l-1.3-4.6h1.1l0.8,3.3h0l0.9-3.3h0.8l0.9,3.3h0l0.8-3.3h0.9l-1.3,4.6h-1l-0.9-3.1h0l-0.9,3.1
		H139.4z"/>
	<path class="st12" d="M147.6,344.5c-0.7,0-1.2-0.2-1.6-0.6s-0.6-1-0.6-1.7V342c0-0.7,0.2-1.3,0.6-1.7s0.9-0.6,1.6-0.6
		c0.7,0,1.2,0.2,1.6,0.6c0.4,0.4,0.6,1,0.6,1.7v0.1c0,0.7-0.2,1.3-0.6,1.7C148.7,344.3,148.2,344.5,147.6,344.5z M147.6,343.7
		c0.7,0,1.1-0.5,1.1-1.5V342c0-0.6-0.1-1-0.3-1.2s-0.5-0.3-0.8-0.3c-0.4,0-0.6,0.1-0.8,0.4s-0.3,0.6-0.3,1.1v0.2
		c0,0.6,0.1,1,0.3,1.2C146.9,343.6,147.2,343.7,147.6,343.7z"/>
	<path class="st12" d="M150.9,344.4v-4.6h1v0.5h0c0.1-0.2,0.3-0.3,0.5-0.4c0.2-0.1,0.5-0.2,0.7-0.2c0.1,0,0.2,0,0.3,0v0.9
		c-0.1,0-0.2,0-0.4,0c-0.4,0-0.8,0.1-1.1,0.3v3.4H150.9z"/>
	<path class="st12" d="M154.5,344.4v-6.6h1v6.6H154.5z M157.2,344.4c0,0-0.3-0.4-0.8-1.2c-0.5-0.8-0.8-1.2-0.8-1.2
		c0,0,0.3-0.4,0.8-1.1c0.5-0.7,0.8-1.1,0.8-1.1h1.1c0,0-0.3,0.4-0.8,1.1c-0.5,0.7-0.8,1-0.8,1.1c0,0,0.1,0.1,0.3,0.4
		s0.4,0.5,0.6,0.8c0.2,0.3,0.4,0.5,0.6,0.8c0.2,0.3,0.3,0.4,0.3,0.4H157.2z"/>
</g>
<linearGradient id="SVGID_00000065791440425426339560000016323445548366380715_" gradientUnits="userSpaceOnUse" x1="101.5731" y1="378.2906" x2="162.3017" y2="413.3523">
	<stop  offset="0" style="stop-color:#52C1EA"/>
	<stop  offset="0.5" style="stop-color:#3362AB"/>
	<stop  offset="1" style="stop-color:#2B4E9C"/>
</linearGradient>
<path style="opacity:0.2;fill:url(#SVGID_00000065791440425426339560000016323445548366380715_);" d="M151.8,428.7h-39.7
	c-1.6,0-2.8-1.3-2.8-2.8v-60.1c0-1.6,1.3-2.8,2.8-2.8h39.7c1.6,0,2.8,1.3,2.8,2.8v60.1C154.6,427.4,153.4,428.7,151.8,428.7z"/>
<linearGradient id="SVGID_00000151519112399035965940000005491580568695143300_" gradientUnits="userSpaceOnUse" x1="95.4465" y1="373.7941" x2="156.1751" y2="408.8557">
	<stop  offset="0" style="stop-color:#52C1EA"/>
	<stop  offset="0.5" style="stop-color:#3362AB"/>
	<stop  offset="1" style="stop-color:#2B4E9C"/>
</linearGradient>
<path style="opacity:0.4;fill:url(#SVGID_00000151519112399035965940000005491580568695143300_);" d="M145.7,424.2h-39.7
	c-1.6,0-2.8-1.3-2.8-2.8v-60.1c0-1.6,1.3-2.8,2.8-2.8h39.7c1.6,0,2.8,1.3,2.8,2.8v60.1C148.5,422.9,147.2,424.2,145.7,424.2z"/>
<g>
	
		<linearGradient id="SVGID_00000106833036747485126930000013628160621585070243_" gradientUnits="userSpaceOnUse" x1="-53.8134" y1="-351.3706" x2="-52.9125" y2="-351.3706" gradientTransform="matrix(67.5813 39.0181 39.0181 -67.5813 17435.832 -21277.5332)">
		<stop  offset="0" style="stop-color:#E6F4FA"/>
		<stop  offset="0.5" style="stop-color:#E5EEF9"/>
		<stop  offset="1" style="stop-color:#E5EBF7"/>
	</linearGradient>
	<path style="fill:url(#SVGID_00000106833036747485126930000013628160621585070243_);" d="M139.9,353.6H99.5c-1.4,0-2.5,1.2-2.5,2.6
		v60.5c0,1.5,1.1,2.6,2.5,2.6h40.4c1.4,0,2.5-1.2,2.5-2.6v-60.5C142.4,354.7,141.3,353.6,139.9,353.6"/>
</g>
<g>
	
		<linearGradient id="SVGID_00000119813680208376984490000005456701790264478616_" gradientUnits="userSpaceOnUse" x1="-53.8134" y1="-351.3706" x2="-52.9125" y2="-351.3706" gradientTransform="matrix(67.5813 39.0181 39.0181 -67.5813 17435.832 -21277.5332)">
		<stop  offset="0" style="stop-color:#E6F4FA"/>
		<stop  offset="0.5" style="stop-color:#E5EEF9"/>
		<stop  offset="1" style="stop-color:#E5EBF7"/>
	</linearGradient>
	<path style="fill:url(#SVGID_00000119813680208376984490000005456701790264478616_);" d="M139.9,353.6H99.5c-1.4,0-2.5,1.2-2.5,2.6
		v60.5c0,1.5,1.1,2.6,2.5,2.6h40.4c1.4,0,2.5-1.2,2.5-2.6v-60.5C142.4,354.7,141.3,353.6,139.9,353.6"/>
</g>
<g>
	<path class="st16" d="M108.8,388.5V383h1.1l2.3,3.9h0V383h0.9v5.5h-1l-2.4-4.1h0v4.1H108.8z"/>
	<path class="st16" d="M116.1,388.6c-0.6,0-1.1-0.2-1.4-0.5c-0.3-0.4-0.5-0.9-0.5-1.5v-0.1c0-0.7,0.2-1.2,0.5-1.5s0.8-0.6,1.4-0.6
		c0.6,0,1.1,0.2,1.4,0.5c0.3,0.4,0.5,0.9,0.5,1.5v0.1c0,0.7-0.2,1.2-0.5,1.5S116.7,388.6,116.1,388.6z M116.1,387.9
		c0.7,0,1-0.4,1-1.3v-0.2c0-0.5-0.1-0.9-0.3-1.1s-0.4-0.3-0.7-0.3c-0.3,0-0.6,0.1-0.7,0.3c-0.2,0.2-0.3,0.6-0.3,1v0.2
		c0,0.5,0.1,0.8,0.3,1C115.5,387.8,115.8,387.9,116.1,387.9z"/>
	<path class="st16" d="M120.5,388.6c-0.5,0-0.9-0.2-1.2-0.5c-0.3-0.3-0.5-0.8-0.5-1.5v-0.1c0-0.7,0.2-1.3,0.5-1.6
		c0.3-0.4,0.8-0.5,1.3-0.5c0.4,0,0.7,0.1,1,0.2v-1.9h0.9v5.8h-0.8l-0.1-0.3h0C121.4,388.4,121,388.6,120.5,388.6z M120.8,387.9
		c0.3,0,0.6-0.1,0.8-0.3v-2.3c-0.2-0.1-0.5-0.2-0.8-0.2c-0.3,0-0.6,0.1-0.8,0.3s-0.3,0.6-0.3,1v0.2c0,0.5,0.1,0.8,0.3,1
		S120.5,387.9,120.8,387.9z"/>
	<path class="st16" d="M125.6,388.6c-0.7,0-1.2-0.2-1.5-0.5c-0.3-0.4-0.5-0.9-0.5-1.5v-0.1c0-0.7,0.2-1.2,0.5-1.5s0.8-0.5,1.4-0.5
		c0.6,0,1,0.2,1.3,0.5c0.3,0.3,0.4,0.8,0.4,1.5v0.4h-2.7c0,0.4,0.1,0.7,0.4,0.9c0.2,0.2,0.5,0.3,0.9,0.3c0.5,0,0.9-0.1,1.3-0.3v0.6
		C126.7,388.4,126.2,388.6,125.6,388.6z M125.5,385c-0.6,0-0.9,0.4-0.9,1.1h1.8c0-0.4-0.1-0.7-0.2-0.8
		C126,385.1,125.8,385,125.5,385z"/>
	<path class="st16" d="M129.4,388.6c-0.6,0-1-0.1-1.4-0.3v-0.7c0.4,0.2,0.8,0.3,1.2,0.3c0.5,0,0.8-0.2,0.8-0.5c0-0.1,0-0.3-0.1-0.3
		c-0.1-0.1-0.2-0.1-0.5-0.2l-0.4-0.1c-0.3-0.1-0.6-0.2-0.8-0.4c-0.2-0.2-0.3-0.5-0.3-0.8c0-0.4,0.1-0.7,0.4-0.9
		c0.3-0.2,0.6-0.3,1.1-0.3c0.5,0,0.8,0.1,1.2,0.2v0.7c-0.3-0.1-0.7-0.2-1.1-0.2c-0.5,0-0.7,0.2-0.7,0.5c0,0.1,0,0.2,0.1,0.3
		c0.1,0.1,0.2,0.1,0.4,0.2l0.4,0.1c0.4,0.1,0.7,0.2,0.9,0.4s0.3,0.5,0.3,0.8c0,0.4-0.1,0.7-0.4,1
		C130.3,388.5,129.9,388.6,129.4,388.6z"/>
</g>
<g class="st24">
	
		<linearGradient id="SVGID_00000089550576031776593090000012000362894423683985_" gradientUnits="userSpaceOnUse" x1="-69.5832" y1="-372.6538" x2="-68.5832" y2="-372.6538" gradientTransform="matrix(40.5283 23.399 23.399 -40.5283 11668.7871 -13200.8818)">
		<stop  offset="0" style="stop-color:#E7F4FA"/>
		<stop  offset="0.5" style="stop-color:#E6EEF9"/>
		<stop  offset="1" style="stop-color:#E6ECF8"/>
	</linearGradient>
	<path style="fill:url(#SVGID_00000089550576031776593090000012000362894423683985_);" d="M166.7,272.1h-35c-1.6,0-2.8,1.3-2.8,2.8
		v21.6c0,1.6,1.3,2.8,2.8,2.8h35c1.6,0,2.8-1.3,2.8-2.8v-21.6C169.6,273.3,168.3,272.1,166.7,272.1"/>
</g>
<linearGradient id="SVGID_00000174596965955114172080000017212362722308493474_" gradientUnits="userSpaceOnUse" x1="128.4808" y1="285.6788" x2="169.9478" y2="285.6788">
	<stop  offset="0" style="stop-color:#52C1EA"/>
	<stop  offset="0.8386" style="stop-color:#3362AB"/>
	<stop  offset="1" style="stop-color:#2B4E9C"/>
</linearGradient>
<path style="fill:none;stroke:url(#SVGID_00000174596965955114172080000017212362722308493474_);stroke-width:0.75;stroke-linecap:round;stroke-miterlimit:10;stroke-dasharray:0,1.9846,0,1.9846,0,1.9846;" d="
	M166.7,299.3h-35c-1.6,0-2.8-1.3-2.8-2.8v-21.6c0-1.6,1.3-2.8,2.8-2.8h35c1.6,0,2.8,1.3,2.8,2.8v21.6
	C169.6,298,168.3,299.3,166.7,299.3z"/>
<g>
	<path class="st12" d="M32.3,257.7V253h1.4c0.7,0,1.3,0.2,1.6,0.6s0.6,0.9,0.6,1.7v0.1c0,0.8-0.2,1.3-0.5,1.7
		c-0.4,0.4-0.9,0.6-1.6,0.6H32.3z M32.9,257.1h0.8c0.5,0,0.9-0.1,1.1-0.4c0.2-0.3,0.4-0.7,0.4-1.3v-0.2c0-0.6-0.1-1-0.4-1.3
		c-0.3-0.3-0.7-0.4-1.2-0.4h-0.7V257.1z"/>
	<path class="st12" d="M38.2,257.7c-0.5,0-0.9-0.2-1.2-0.5c-0.3-0.3-0.4-0.7-0.4-1.3v-0.1c0-0.5,0.1-1,0.4-1.3
		c0.3-0.3,0.7-0.5,1.2-0.5c0.5,0,0.9,0.2,1.2,0.5s0.4,0.7,0.4,1.3v0.1c0,0.5-0.1,1-0.4,1.3C39.1,257.6,38.7,257.7,38.2,257.7z
		 M38.2,257.2c0.3,0,0.5-0.1,0.7-0.3c0.2-0.2,0.2-0.5,0.2-0.9v-0.2c0-0.8-0.3-1.2-1-1.2c-0.3,0-0.5,0.1-0.7,0.3s-0.3,0.5-0.3,0.9
		v0.2C37.2,256.8,37.6,257.2,38.2,257.2z"/>
	<path class="st12" d="M40.7,258.7v-4.5h0.6v0.3h0c0.2-0.2,0.6-0.3,1-0.3c0.4,0,0.8,0.1,1,0.4s0.4,0.7,0.4,1.3v0.1
		c0,0.6-0.1,1.1-0.4,1.4c-0.3,0.3-0.7,0.4-1.2,0.4c-0.3,0-0.6-0.1-0.9-0.2v1.2H40.7z M42.1,257.2c0.7,0,1-0.4,1-1.3v-0.2
		c0-0.4-0.1-0.8-0.2-0.9c-0.2-0.2-0.4-0.3-0.7-0.3c-0.4,0-0.6,0.1-0.8,0.2v2.1C41.4,257.2,41.7,257.2,42.1,257.2z"/>
	<path class="st12" d="M44.6,257.7v-5h0.6v5H44.6z"/>
	<path class="st12" d="M47.7,257.7c-0.5,0-0.9-0.2-1.2-0.5s-0.4-0.7-0.4-1.3v-0.1c0-0.5,0.1-1,0.4-1.3c0.3-0.3,0.7-0.5,1.2-0.5
		c0.5,0,0.9,0.2,1.2,0.5c0.3,0.3,0.4,0.7,0.4,1.3v0.1c0,0.5-0.1,1-0.4,1.3C48.5,257.6,48.2,257.7,47.7,257.7z M47.7,257.2
		c0.3,0,0.5-0.1,0.7-0.3c0.2-0.2,0.2-0.5,0.2-0.9v-0.2c0-0.8-0.3-1.2-1-1.2c-0.3,0-0.5,0.1-0.7,0.3s-0.3,0.5-0.3,0.9v0.2
		C46.7,256.8,47,257.2,47.7,257.2z"/>
	<path class="st12" d="M50.4,258.7c-0.2,0-0.3,0-0.4-0.1v-0.4c0.1,0,0.2,0,0.3,0c0.4,0,0.6-0.1,0.7-0.3l0.2-0.5l-1.3-3.3h0.6l1,2.5
		h0l0.9-2.5h0.6l-1.4,3.8c-0.1,0.3-0.2,0.5-0.4,0.6C50.9,258.7,50.7,258.7,50.4,258.7z"/>
	<path class="st12" d="M55.7,257.7V253h1.4c1,0,1.6,0.4,1.6,1.3c0,0.6-0.3,1-0.9,1.2v0l1.2,2.1h-0.7l-1.1-2h-0.8v2H55.7z
		 M56.3,255.2H57c0.3,0,0.6-0.1,0.7-0.2c0.2-0.1,0.2-0.4,0.2-0.7c0-0.3-0.1-0.5-0.2-0.6c-0.2-0.1-0.4-0.2-0.7-0.2h-0.7V255.2z"/>
	<path class="st12" d="M60.8,257.7c-0.3,0-0.6-0.1-0.8-0.3c-0.2-0.2-0.3-0.4-0.3-0.8v-2.5h0.6v2.4c0,0.2,0,0.4,0.1,0.5
		c0.1,0.1,0.3,0.1,0.5,0.1c0.3,0,0.6-0.1,0.9-0.3v-2.8h0.6v3.5h-0.5l-0.1-0.3h0C61.5,257.6,61.1,257.7,60.8,257.7z"/>
	<path class="st12" d="M64.4,257.7c-0.5,0-0.8-0.1-1.1-0.2V257c0.4,0.1,0.7,0.2,1,0.2c0.5,0,0.7-0.2,0.7-0.5c0-0.1,0-0.3-0.1-0.3
		c-0.1-0.1-0.2-0.2-0.4-0.2l-0.3-0.1c-0.3-0.1-0.5-0.2-0.6-0.3s-0.2-0.4-0.2-0.6c0-0.3,0.1-0.6,0.3-0.8s0.5-0.3,0.9-0.3
		c0.4,0,0.7,0.1,1,0.2v0.5c-0.3-0.1-0.6-0.2-0.9-0.2c-0.4,0-0.7,0.2-0.7,0.5c0,0.1,0,0.2,0.1,0.3c0.1,0.1,0.2,0.1,0.4,0.2l0.3,0.1
		c0.3,0.1,0.6,0.2,0.7,0.4c0.1,0.1,0.2,0.4,0.2,0.7c0,0.3-0.1,0.6-0.3,0.8C65.1,257.6,64.8,257.7,64.4,257.7z"/>
	<path class="st12" d="M67.7,257.7c-0.6,0-0.9-0.3-0.9-0.9v-2.2h-0.5v-0.5h0.5v-0.8h0.6v0.8h0.9v0.5h-0.9v2.1c0,0.2,0,0.3,0.1,0.4
		c0.1,0.1,0.2,0.1,0.4,0.1c0.1,0,0.3,0,0.4-0.1v0.4C68.1,257.7,67.9,257.7,67.7,257.7z"/>
	<path class="st12" d="M32.3,266.1v-4.7h1.5c0.5,0,0.9,0.1,1.2,0.4c0.3,0.2,0.4,0.6,0.4,1c0,0.5-0.1,0.8-0.4,1.1s-0.6,0.4-1.1,0.4
		h-0.9v1.9H32.3z M32.9,263.7h0.8c0.3,0,0.6-0.1,0.7-0.2c0.2-0.1,0.2-0.4,0.2-0.7c0-0.3-0.1-0.6-0.2-0.7c-0.1-0.1-0.4-0.2-0.7-0.2
		h-0.8V263.7z"/>
	<path class="st12" d="M36.2,266.1v-3.5h0.6v0.4h0c0.1-0.1,0.2-0.2,0.4-0.3c0.2-0.1,0.4-0.1,0.5-0.1c0.1,0,0.2,0,0.2,0v0.5
		c-0.1,0-0.2,0-0.3,0c-0.3,0-0.6,0.1-0.9,0.3v2.7H36.2z"/>
	<path class="st12" d="M40.1,266.1c-0.5,0-0.9-0.2-1.2-0.5s-0.4-0.7-0.4-1.3v-0.1c0-0.5,0.1-1,0.4-1.3s0.7-0.5,1.2-0.5
		c0.5,0,0.9,0.2,1.2,0.5c0.3,0.3,0.4,0.7,0.4,1.3v0.1c0,0.5-0.1,1-0.4,1.3C40.9,266,40.5,266.1,40.1,266.1z M40.1,265.6
		c0.3,0,0.5-0.1,0.7-0.3c0.2-0.2,0.2-0.5,0.2-0.9v-0.2c0-0.8-0.3-1.2-1-1.2c-0.3,0-0.5,0.1-0.7,0.3s-0.3,0.5-0.3,0.9v0.2
		C39.1,265.2,39.4,265.6,40.1,265.6z"/>
	<path class="st12" d="M43.7,267.1c-1,0-1.6-0.3-1.6-0.8c0-0.2,0.1-0.3,0.2-0.4s0.3-0.2,0.5-0.3v0c-0.2-0.1-0.4-0.2-0.4-0.4
		c0-0.2,0.1-0.4,0.4-0.6c-0.3-0.2-0.4-0.5-0.4-0.8v-0.1c0-0.4,0.1-0.6,0.4-0.8c0.2-0.2,0.6-0.3,1-0.3c0.2,0,0.4,0,0.5,0.1h1.2v0.4
		h-0.6c0.1,0.1,0.2,0.3,0.2,0.6v0.1c0,0.4-0.1,0.6-0.4,0.8s-0.6,0.3-1,0.3c-0.2,0-0.4,0-0.6-0.1c-0.1,0.1-0.1,0.2-0.1,0.3
		c0,0.1,0,0.1,0.1,0.2c0.1,0,0.1,0,0.3,0h1c0.7,0,1.1,0.3,1.1,0.9C45.4,266.8,44.9,267.1,43.7,267.1z M43.7,266.6
		c0.4,0,0.7,0,0.8-0.1c0.2-0.1,0.2-0.2,0.2-0.4c0-0.1,0-0.2-0.1-0.3s-0.2-0.1-0.5-0.1h-1c-0.3,0.1-0.4,0.3-0.4,0.5
		c0,0.1,0.1,0.2,0.2,0.3S43.4,266.6,43.7,266.6z M43.7,264.3c0.5,0,0.7-0.2,0.7-0.6v-0.1c0-0.2-0.1-0.4-0.2-0.5S44,263,43.7,263
		s-0.4,0.1-0.5,0.2c-0.1,0.1-0.2,0.3-0.2,0.5v0.1C43,264.1,43.3,264.3,43.7,264.3z"/>
	<path class="st12" d="M46.2,266.1v-3.5h0.6v0.4h0c0.1-0.1,0.2-0.2,0.4-0.3c0.2-0.1,0.4-0.1,0.5-0.1c0.1,0,0.2,0,0.2,0v0.5
		c-0.1,0-0.2,0-0.3,0c-0.3,0-0.6,0.1-0.9,0.3v2.7H46.2z"/>
	<path class="st12" d="M49.5,266.1c-0.3,0-0.6-0.1-0.8-0.3c-0.2-0.2-0.3-0.4-0.3-0.7c0-0.6,0.4-0.9,1-1l0.9-0.1v-0.3
		c0-0.3-0.1-0.4-0.2-0.5c-0.1-0.1-0.3-0.1-0.7-0.1c-0.2,0-0.5,0-0.8,0.1v-0.4c0.3-0.1,0.7-0.2,1.1-0.2c0.8,0,1.2,0.3,1.2,1v2.5h-0.5
		l-0.1-0.3h0C50.2,266,49.9,266.1,49.5,266.1z M49.7,265.7c0.3,0,0.6-0.1,0.7-0.2v-1l-0.8,0.1c-0.2,0-0.4,0.1-0.4,0.2
		c-0.1,0.1-0.1,0.2-0.1,0.4c0,0.2,0.1,0.3,0.2,0.4C49.3,265.6,49.5,265.7,49.7,265.7z"/>
	<path class="st12" d="M52.1,266.1v-3.5h0.6v0.3h0c0.4-0.2,0.7-0.4,1.1-0.4c0.4,0,0.7,0.1,0.8,0.4h0c0.4-0.3,0.8-0.4,1.2-0.4
		c0.6,0,1,0.3,1,1v2.6h-0.6v-2.5c0-0.2,0-0.4-0.1-0.4c-0.1-0.1-0.2-0.1-0.5-0.1c-0.2,0-0.5,0.1-0.8,0.2c0,0.1,0,0.2,0,0.2v2.6h-0.6
		v-2.5c0-0.2,0-0.4-0.1-0.4c-0.1-0.1-0.2-0.1-0.5-0.1c-0.2,0-0.5,0.1-0.8,0.2v2.8H52.1z"/>
	<path class="st12" d="M60.9,266.1c-0.6,0-0.9-0.3-0.9-0.9v-2.2h-0.5v-0.5H60v-0.8h0.6v0.8h0.9v0.5h-0.9v2.1c0,0.2,0,0.3,0.1,0.4
		s0.2,0.1,0.4,0.1c0.1,0,0.3,0,0.4-0.1v0.4C61.3,266.1,61.1,266.1,60.9,266.1z"/>
	<path class="st12" d="M63.7,266.1c-0.5,0-0.9-0.2-1.2-0.5s-0.4-0.7-0.4-1.3v-0.1c0-0.5,0.1-1,0.4-1.3s0.7-0.5,1.2-0.5
		c0.5,0,0.9,0.2,1.2,0.5c0.3,0.3,0.4,0.7,0.4,1.3v0.1c0,0.5-0.1,1-0.4,1.3C64.6,266,64.2,266.1,63.7,266.1z M63.7,265.6
		c0.3,0,0.5-0.1,0.7-0.3c0.2-0.2,0.2-0.5,0.2-0.9v-0.2c0-0.8-0.3-1.2-1-1.2c-0.3,0-0.5,0.1-0.7,0.3s-0.3,0.5-0.3,0.9v0.2
		C62.7,265.2,63.1,265.6,63.7,265.6z"/>
	<path class="st12" d="M70.4,265.8c-0.3,0.2-0.7,0.4-1.2,0.4s-1-0.1-1.4-0.3v-0.5c0.4,0.2,0.8,0.3,1.3,0.3c0.7,0,1-0.3,1-0.8
		c0-0.2-0.1-0.4-0.2-0.5c-0.1-0.1-0.3-0.2-0.6-0.3l-0.5-0.2c-0.3-0.1-0.6-0.3-0.8-0.5c-0.2-0.2-0.3-0.5-0.3-0.8
		c0-0.4,0.1-0.7,0.4-0.9c0.3-0.2,0.6-0.3,1.1-0.3c0.4,0,0.8,0.1,1.1,0.3v0.5c-0.4-0.2-0.8-0.3-1.2-0.3c-0.3,0-0.5,0.1-0.6,0.2
		c-0.1,0.1-0.2,0.3-0.2,0.5c0,0.2,0,0.4,0.1,0.5c0.1,0.1,0.3,0.2,0.5,0.3l0.5,0.2c0.4,0.1,0.7,0.3,0.8,0.5s0.3,0.5,0.3,0.8
		C70.8,265.2,70.7,265.5,70.4,265.8z"/>
	<path class="st12" d="M73.1,266.1c-0.5,0-0.9-0.2-1.2-0.5c-0.3-0.3-0.4-0.7-0.4-1.3v-0.1c0-0.5,0.1-1,0.4-1.3
		c0.3-0.3,0.7-0.5,1.2-0.5c0.5,0,0.9,0.2,1.2,0.5c0.3,0.3,0.4,0.7,0.4,1.3v0.1c0,0.5-0.1,1-0.4,1.3C74,266,73.6,266.1,73.1,266.1z
		 M73.1,265.6c0.3,0,0.5-0.1,0.7-0.3c0.2-0.2,0.2-0.5,0.2-0.9v-0.2c0-0.8-0.3-1.2-1-1.2c-0.3,0-0.5,0.1-0.7,0.3s-0.3,0.5-0.3,0.9
		v0.2C72.1,265.2,72.5,265.6,73.1,265.6z"/>
	<path class="st12" d="M75.6,266.1v-5h0.6v5H75.6z"/>
	<path class="st12" d="M78.1,266.1c-0.3,0-0.6-0.1-0.8-0.3c-0.2-0.2-0.3-0.4-0.3-0.7c0-0.6,0.4-0.9,1-1L79,264v-0.3
		c0-0.3-0.1-0.4-0.2-0.5c-0.1-0.1-0.3-0.1-0.7-0.1c-0.2,0-0.5,0-0.8,0.1v-0.4c0.3-0.1,0.7-0.2,1.1-0.2c0.8,0,1.2,0.3,1.2,1v2.5h-0.5
		l-0.1-0.3h0C78.8,266,78.5,266.1,78.1,266.1z M78.3,265.7c0.3,0,0.6-0.1,0.7-0.2v-1l-0.8,0.1c-0.2,0-0.4,0.1-0.4,0.2
		c-0.1,0.1-0.1,0.2-0.1,0.4c0,0.2,0.1,0.3,0.2,0.4C78,265.6,78.1,265.7,78.3,265.7z"/>
	<path class="st12" d="M80.7,266.1v-3.5h0.6v0.3h0c0.3-0.2,0.7-0.4,1.2-0.4c0.3,0,0.6,0.1,0.8,0.2s0.2,0.4,0.2,0.7v2.6h-0.6v-2.5
		c0-0.2,0-0.4-0.1-0.4c-0.1-0.1-0.3-0.1-0.5-0.1c-0.3,0-0.6,0.1-0.9,0.2v2.8H80.7z"/>
	<path class="st12" d="M85.4,266.1c-0.3,0-0.6-0.1-0.8-0.3c-0.2-0.2-0.3-0.4-0.3-0.7c0-0.6,0.4-0.9,1-1l0.9-0.1v-0.3
		c0-0.3-0.1-0.4-0.2-0.5c-0.1-0.1-0.3-0.1-0.7-0.1c-0.2,0-0.5,0-0.8,0.1v-0.4c0.3-0.1,0.7-0.2,1.1-0.2c0.8,0,1.2,0.3,1.2,1v2.5h-0.5
		l-0.1-0.3h0C86.1,266,85.8,266.1,85.4,266.1z M85.6,265.7c0.3,0,0.6-0.1,0.7-0.2v-1l-0.8,0.1c-0.2,0-0.4,0.1-0.4,0.2
		c-0.1,0.1-0.1,0.2-0.1,0.4c0,0.2,0.1,0.3,0.2,0.4C85.2,265.6,85.4,265.7,85.6,265.7z"/>
</g>
<g>
	<path class="st12" d="M164,258.4v-4.2h-1.4v-0.5h3.4v0.5h-1.4v4.2H164z"/>
	<path class="st12" d="M166.8,258.4V255h0.6v0.4h0c0.1-0.1,0.2-0.2,0.4-0.3c0.2-0.1,0.4-0.1,0.5-0.1c0.1,0,0.2,0,0.2,0v0.5
		c-0.1,0-0.2,0-0.3,0c-0.3,0-0.6,0.1-0.9,0.3v2.7H166.8z"/>
	<path class="st12" d="M170.1,258.5c-0.3,0-0.6-0.1-0.8-0.3c-0.2-0.2-0.3-0.4-0.3-0.7c0-0.6,0.3-0.9,1-1l0.9-0.1v-0.3
		c0-0.3-0.1-0.4-0.2-0.5c-0.1-0.1-0.3-0.1-0.7-0.1c-0.2,0-0.5,0-0.8,0.1v-0.4c0.3-0.1,0.7-0.2,1.1-0.2c0.8,0,1.2,0.3,1.2,1v2.5h-0.5
		l-0.1-0.3h0C170.8,258.4,170.5,258.5,170.1,258.5z M170.3,258c0.3,0,0.6-0.1,0.7-0.2v-1l-0.8,0.1c-0.2,0-0.4,0.1-0.4,0.2
		c-0.1,0.1-0.1,0.2-0.1,0.4c0,0.2,0.1,0.3,0.2,0.4C169.9,258,170.1,258,170.3,258z"/>
	<path class="st12" d="M172.7,258.4V255h0.6v0.3h0c0.3-0.2,0.7-0.4,1.2-0.4c0.3,0,0.6,0.1,0.8,0.2c0.2,0.2,0.2,0.4,0.2,0.7v2.6h-0.6
		V256c0-0.2,0-0.4-0.1-0.4c-0.1-0.1-0.3-0.1-0.5-0.1c-0.3,0-0.6,0.1-0.9,0.2v2.8H172.7z"/>
	<path class="st12" d="M177.4,258.5c-0.5,0-0.8-0.1-1.1-0.2v-0.5c0.4,0.1,0.7,0.2,1,0.2c0.5,0,0.7-0.2,0.7-0.5c0-0.1,0-0.3-0.1-0.3
		c-0.1-0.1-0.2-0.2-0.4-0.2l-0.3-0.1c-0.3-0.1-0.5-0.2-0.6-0.3c-0.1-0.1-0.2-0.4-0.2-0.6c0-0.3,0.1-0.6,0.3-0.8
		c0.2-0.2,0.5-0.3,0.9-0.3c0.4,0,0.7,0.1,1,0.2v0.5c-0.3-0.1-0.6-0.2-0.9-0.2c-0.4,0-0.7,0.2-0.7,0.5c0,0.1,0,0.2,0.1,0.3
		s0.2,0.1,0.4,0.2l0.3,0.1c0.3,0.1,0.6,0.2,0.7,0.4s0.2,0.4,0.2,0.7c0,0.3-0.1,0.6-0.3,0.8C178.1,258.4,177.8,258.5,177.4,258.5z"/>
	<path class="st12" d="M180.4,258.5c-0.3,0-0.6-0.1-0.8-0.3c-0.2-0.2-0.3-0.4-0.3-0.7c0-0.6,0.3-0.9,1-1l0.9-0.1v-0.3
		c0-0.3-0.1-0.4-0.2-0.5c-0.1-0.1-0.3-0.1-0.7-0.1c-0.2,0-0.5,0-0.8,0.1v-0.4c0.3-0.1,0.7-0.2,1.1-0.2c0.8,0,1.2,0.3,1.2,1v2.5h-0.5
		l-0.1-0.3h0C181.1,258.4,180.8,258.5,180.4,258.5z M180.5,258c0.3,0,0.6-0.1,0.7-0.2v-1l-0.8,0.1c-0.2,0-0.4,0.1-0.4,0.2
		c-0.1,0.1-0.1,0.2-0.1,0.4c0,0.2,0.1,0.3,0.2,0.4C180.2,258,180.4,258,180.5,258z"/>
	<path class="st12" d="M184.3,258.5c-0.5,0-0.9-0.1-1.2-0.4c-0.3-0.3-0.4-0.7-0.4-1.3v-0.1c0-0.6,0.2-1,0.5-1.3
		c0.3-0.3,0.7-0.4,1.2-0.4c0.4,0,0.7,0.1,0.9,0.2v0.5c-0.3-0.1-0.7-0.2-1-0.2c-0.3,0-0.6,0.1-0.7,0.3c-0.2,0.2-0.3,0.5-0.3,0.9v0.2
		c0,0.4,0.1,0.7,0.3,0.9c0.2,0.2,0.4,0.3,0.8,0.3c0.3,0,0.6-0.1,1-0.2v0.5C185.1,258.4,184.7,258.5,184.3,258.5z"/>
	<path class="st12" d="M187.3,258.5c-0.6,0-0.9-0.3-0.9-0.9v-2.2h-0.5V255h0.5v-0.8h0.6v0.8h0.9v0.5H187v2.1c0,0.2,0,0.3,0.1,0.4
		c0.1,0.1,0.2,0.1,0.4,0.1c0.1,0,0.3,0,0.4-0.1v0.4C187.7,258.4,187.5,258.5,187.3,258.5z"/>
	<path class="st12" d="M188.7,254.3v-0.6h0.6v0.6H188.7z M188.7,258.4V255h0.6v3.5H188.7z"/>
	<path class="st12" d="M191.8,258.5c-0.5,0-0.9-0.2-1.2-0.5c-0.3-0.3-0.4-0.7-0.4-1.3v-0.1c0-0.5,0.1-1,0.4-1.3
		c0.3-0.3,0.7-0.5,1.2-0.5c0.5,0,0.9,0.2,1.2,0.5c0.3,0.3,0.4,0.7,0.4,1.3v0.1c0,0.5-0.1,1-0.4,1.3S192.3,258.5,191.8,258.5z
		 M191.8,258c0.3,0,0.5-0.1,0.7-0.3c0.2-0.2,0.2-0.5,0.2-0.9v-0.2c0-0.8-0.3-1.2-1-1.2c-0.3,0-0.5,0.1-0.7,0.3s-0.3,0.5-0.3,0.9v0.2
		C190.9,257.6,191.2,258,191.8,258z"/>
	<path class="st12" d="M194.3,258.4V255h0.6v0.3h0c0.3-0.2,0.7-0.4,1.2-0.4c0.3,0,0.6,0.1,0.8,0.2c0.2,0.2,0.2,0.4,0.2,0.7v2.6h-0.6
		V256c0-0.2,0-0.4-0.1-0.4c-0.1-0.1-0.3-0.1-0.5-0.1c-0.3,0-0.6,0.1-0.9,0.2v2.8H194.3z"/>
</g>
<g>
	<path class="st16" d="M142.2,283.9c-0.4,0-0.7-0.1-0.9-0.2v-0.5c0.3,0.1,0.5,0.2,0.8,0.2c0.5,0,0.7-0.3,0.7-0.8v-3.5h0.6v3.5
		c0,0.4-0.1,0.7-0.3,0.9C142.9,283.8,142.6,283.9,142.2,283.9z"/>
	<path class="st16" d="M146.9,283.6c-0.3,0.2-0.7,0.4-1.2,0.4s-1-0.1-1.4-0.3v-0.5c0.4,0.2,0.8,0.3,1.3,0.3c0.7,0,1-0.3,1-0.8
		c0-0.2-0.1-0.4-0.2-0.5s-0.3-0.2-0.6-0.3l-0.5-0.2c-0.3-0.1-0.6-0.3-0.8-0.5c-0.2-0.2-0.3-0.5-0.3-0.8c0-0.4,0.1-0.7,0.4-0.9
		s0.6-0.3,1.1-0.3c0.4,0,0.8,0.1,1.1,0.3v0.5c-0.4-0.2-0.8-0.3-1.2-0.3c-0.3,0-0.5,0.1-0.6,0.2c-0.1,0.1-0.2,0.3-0.2,0.5
		c0,0.2,0,0.4,0.1,0.5c0.1,0.1,0.3,0.2,0.5,0.3l0.5,0.2c0.4,0.1,0.7,0.3,0.8,0.5c0.2,0.2,0.3,0.5,0.3,0.8
		C147.3,283,147.2,283.3,146.9,283.6z"/>
	<path class="st16" d="M150.1,283.9c-0.6,0-1.1-0.2-1.5-0.6c-0.4-0.4-0.5-1-0.5-1.8v-0.1c0-0.7,0.2-1.3,0.6-1.7s0.9-0.6,1.5-0.6
		c0.6,0,1.1,0.2,1.5,0.6c0.4,0.4,0.5,1,0.5,1.8v0.1c0,0.7-0.2,1.3-0.5,1.7C151.3,283.7,150.7,283.9,150.1,283.9z M150.1,283.4
		c0.5,0,0.8-0.2,1-0.5s0.4-0.7,0.4-1.3v-0.2c0-1.2-0.5-1.9-1.4-1.9c-0.5,0-0.8,0.2-1,0.5c-0.2,0.3-0.4,0.7-0.4,1.3v0.2
		C148.7,282.8,149.2,283.4,150.1,283.4z"/>
	<path class="st16" d="M153.2,283.9v-4.7h0.7l2.2,3.7h0v-3.7h0.6v4.7H156l-2.2-3.9h0v3.9H153.2z"/>
	<path class="st16" d="M137.6,292.3v-4.7h1.4c1,0,1.6,0.4,1.6,1.3c0,0.6-0.3,1-0.9,1.2v0l1.2,2.1h-0.7l-1.1-2h-0.8v2H137.6z
		 M138.2,289.8h0.7c0.3,0,0.6-0.1,0.7-0.2c0.2-0.1,0.2-0.4,0.2-0.7c0-0.3-0.1-0.5-0.2-0.6c-0.2-0.1-0.4-0.2-0.7-0.2h-0.7V289.8z"/>
	<path class="st16" d="M141.7,292.3v-4.7h1.5c0.5,0,0.9,0.1,1.2,0.4s0.4,0.6,0.4,1c0,0.5-0.1,0.8-0.4,1.1s-0.6,0.4-1.1,0.4h-0.9v1.9
		H141.7z M142.3,289.9h0.8c0.3,0,0.6-0.1,0.7-0.2c0.2-0.1,0.2-0.4,0.2-0.7c0-0.3-0.1-0.6-0.2-0.7c-0.1-0.1-0.4-0.2-0.7-0.2h-0.8
		V289.9z"/>
	<path class="st16" d="M147.5,292.3c-0.6,0-1.1-0.2-1.5-0.6s-0.5-1-0.5-1.8v-0.2c0-0.4,0.1-0.8,0.2-1.1s0.3-0.5,0.5-0.7
		c0.2-0.2,0.4-0.3,0.7-0.4c0.3-0.1,0.5-0.1,0.8-0.1c0.5,0,0.8,0.1,1.2,0.3v0.5c-0.4-0.2-0.8-0.2-1.2-0.2c-0.4,0-0.8,0.1-1.1,0.4
		c-0.3,0.3-0.4,0.7-0.4,1.3v0.3c0,1.2,0.5,1.8,1.5,1.8c0.4,0,0.8-0.1,1.2-0.3v0.5C148.5,292.2,148,292.3,147.5,292.3z"/>
	<path class="st16" d="M151.3,292.3l1.7-4.7h0.6l1.7,4.7h-0.6l-0.5-1.3h-1.8l-0.5,1.3H151.3z M153.2,288.4l-0.7,2h1.5L153.2,288.4
		L153.2,288.4z"/>
	<path class="st16" d="M156.1,292.3v-4.7h1.5c0.5,0,0.9,0.1,1.2,0.4s0.4,0.6,0.4,1c0,0.5-0.1,0.8-0.4,1.1s-0.6,0.4-1.1,0.4h-0.9v1.9
		H156.1z M156.7,289.9h0.8c0.3,0,0.6-0.1,0.7-0.2c0.2-0.1,0.2-0.4,0.2-0.7c0-0.3-0.1-0.6-0.2-0.7c-0.1-0.1-0.4-0.2-0.7-0.2h-0.8
		V289.9z"/>
	<path class="st16" d="M160.1,292.3v-4.7h0.6v4.7H160.1z"/>
</g>
<g>
	<path class="st12" d="M120.1,255.5c0,1.2-0.5,1.9-1.4,2.2l1.6,0.4l-0.2,0.6l-2.7-0.8c-1-0.3-1.5-1.1-1.5-2.3v-0.1
		c0-0.7,0.2-1.3,0.6-1.7c0.4-0.4,0.9-0.6,1.5-0.6c0.6,0,1.1,0.2,1.5,0.6c0.4,0.4,0.5,1,0.5,1.8V255.5z M118,257.4
		c0.5,0,0.8-0.2,1-0.5c0.2-0.3,0.4-0.8,0.4-1.3v-0.2c0-1.2-0.5-1.9-1.4-1.9c-0.5,0-0.8,0.2-1,0.5c-0.2,0.3-0.4,0.7-0.4,1.3v0.2
		C116.6,256.7,117.1,257.4,118,257.4z"/>
	<path class="st12" d="M122,257.9c-0.3,0-0.6-0.1-0.8-0.3c-0.2-0.2-0.3-0.4-0.3-0.8v-2.5h0.6v2.4c0,0.2,0,0.4,0.1,0.5
		c0.1,0.1,0.3,0.1,0.5,0.1c0.3,0,0.6-0.1,0.9-0.3v-2.8h0.6v3.5h-0.5l-0.1-0.3h0C122.7,257.7,122.4,257.9,122,257.9z"/>
	<path class="st12" d="M126.2,257.9c-0.5,0-1-0.2-1.2-0.5c-0.3-0.3-0.4-0.7-0.4-1.3V256c0-0.6,0.1-1,0.4-1.3s0.7-0.4,1.1-0.4
		c0.9,0,1.4,0.5,1.4,1.6v0.3h-2.3c0,0.4,0.1,0.7,0.3,0.9s0.5,0.3,0.8,0.3c0.4,0,0.7-0.1,1.1-0.3v0.4
		C127.1,257.7,126.7,257.9,126.2,257.9z M126.1,254.7c-0.2,0-0.4,0.1-0.6,0.2c-0.2,0.2-0.3,0.4-0.3,0.8h1.7c0-0.4-0.1-0.6-0.2-0.8
		S126.4,254.7,126.1,254.7z"/>
	<path class="st12" d="M128.4,257.8v-3.5h0.6v0.4h0c0.1-0.1,0.2-0.2,0.4-0.3c0.2-0.1,0.4-0.1,0.5-0.1c0.1,0,0.2,0,0.2,0v0.5
		c-0.1,0-0.2,0-0.3,0c-0.3,0-0.6,0.1-0.9,0.3v2.7H128.4z"/>
	<path class="st12" d="M131.1,258.8c-0.2,0-0.3,0-0.4-0.1v-0.4c0.1,0,0.2,0,0.3,0c0.4,0,0.6-0.1,0.7-0.3l0.2-0.5l-1.3-3.3h0.6l1,2.5
		h0l0.9-2.5h0.6l-1.4,3.8c-0.1,0.3-0.2,0.5-0.4,0.6C131.7,258.8,131.5,258.8,131.1,258.8z"/>
</g>
</svg>
