<?xml version="1.0" encoding="utf-8"?>
<!-- Generator: Adobe Illustrator 26.3.1, SVG Export Plug-In . SVG Version: 6.00 Build 0)  -->
<svg version="1.1" id="Layer_1" xmlns="http://www.w3.org/2000/svg" xmlns:xlink="http://www.w3.org/1999/xlink" x="0px" y="0px"
	 viewBox="0 0 464.6 373.5" style="enable-background:new 0 0 464.6 373.5;" xml:space="preserve">
<style type="text/css">
	.st0{display:none;}
	.st1{display:inline;stroke:#FFFFFF;stroke-miterlimit:10;}
	.st2{fill:#2F9AB2;}
	.st3{fill:#1F8EA0;}
	.st4{fill:#3AABCE;}
	.st5{fill:#52C1EB;}
	.st6{fill:#066266;}
	.st7{fill:#117782;}
	.st8{fill:#5ABDE5;}
	.st9{fill:#FFFFFF;}
</style>
<g id="Layer_2_00000056412312823722977310000005188093476515479690_" class="st0">
	<rect x="-30" y="-23.8" class="st1" width="589.7" height="452.5"/>
</g>
<path class="st2" d="M252.8,288.6c-24.6,0-47.4-7.8-66-21.1l-28.9,40.8c26.8,19.1,59.6,30.3,94.9,30.3l0,0V288.6L252.8,288.6z"/>
<path class="st3" d="M144.5,210.6l-47.4,15.9c11.2,33.3,32.7,61.9,60.8,81.9l28.9-40.8C167.3,253.7,152.3,233.8,144.5,210.6z"/>
<path class="st4" d="M316.2,269.4c-18.1,12.1-39.9,19.2-63.3,19.2v50c33.7,0,65-10.2,91.1-27.6L316.2,269.4z"/>
<path class="st5" d="M367.1,174.4c0,39.6-20.2,74.5-50.9,95l27.7,41.6c44.1-29.5,73.2-79.7,73.2-136.6
	c0-90.6-73.7-164.2-164.2-164.2v50C315.8,60.1,367.1,111.4,367.1,174.4z"/>
<path class="st6" d="M252.8,60.1L252.8,60.1v-50l0,0c-90.6,0-164.2,73.7-164.2,164.2h50C138.6,111.4,189.9,60.1,252.8,60.1z"/>
<path class="st7" d="M138.6,174.4L138.6,174.4h-50l0,0c0,18.2,3,35.7,8.5,52.1l47.4-15.9C140.7,199.2,138.6,187,138.6,174.4z"/>
<g>
	<path class="st8" d="M229.6,167.8v-11.6h-3.8v-2.1h10.5v2.1h-3.9v11.6H229.6z"/>
	<path class="st8" d="M242.3,168c-1.6,0-2.9-0.4-3.7-1.4c-0.9-0.9-1.3-2.2-1.3-3.8v-0.3c0-1.6,0.5-2.9,1.4-3.9
		c0.9-0.9,2.1-1.4,3.6-1.4c1.6,0,2.8,0.4,3.7,1.4c0.9,0.9,1.3,2.2,1.3,3.9v0.3c0,1.7-0.5,3-1.4,3.9C245,167.5,243.8,168,242.3,168z
		 M242.4,166.1c1.5,0,2.3-1.1,2.3-3.1v-0.5c0-1.2-0.2-2.1-0.6-2.5c-0.4-0.5-1-0.7-1.7-0.7c-1.5,0-2.3,1.1-2.3,3.2v0.4
		c0,1.2,0.2,2,0.6,2.5C241.1,165.8,241.6,166.1,242.4,166.1z"/>
	<path class="st8" d="M249.1,167.8v-14.6h2.6v14.6H249.1z M255.4,167.8c-1.6-2.4-2.8-4.2-3.6-5.4c0.6-0.8,1.7-2.5,3.5-5h2.7
		l-3.4,4.8c0.6,1,1.9,2.8,3.7,5.5H255.4z"/>
	<path class="st8" d="M264.3,168c-1.7,0-3-0.4-3.9-1.4s-1.3-2.2-1.3-3.9v-0.3c0-1.7,0.5-2.9,1.3-3.9c0.9-0.9,2.1-1.4,3.5-1.4
		c1.5,0,2.7,0.4,3.4,1.3c0.7,0.9,1.1,2.1,1.1,3.8v1h-6.6c0.1,1,0.4,1.6,0.9,2.1c0.5,0.4,1.2,0.6,2.2,0.6c1,0,2.1-0.2,3.1-0.7v1.7
		C267.1,167.7,265.9,168,264.3,168z M263.9,159.1c-0.5,0-1,0.2-1.4,0.6c-0.4,0.4-0.6,1-0.7,1.9h4.1c0-0.9-0.2-1.5-0.5-1.9
		S264.5,159.1,263.9,159.1z"/>
	<path class="st8" d="M270.2,167.8v-10.4h2.5v0.9h0.1c1-0.8,2.1-1.1,3.4-1.1c1,0,1.8,0.2,2.3,0.7s0.8,1.2,0.8,2.2v7.7h-2.6v-7.1
		c0-0.5-0.1-0.9-0.4-1.1s-0.7-0.3-1.3-0.3c-0.6,0-1.3,0.2-2.1,0.5v7.9L270.2,167.8L270.2,167.8z"/>
	<path class="st8" d="M201.7,191.8v-13.7h4.7c4.4,0,6.7,2.2,6.7,6.5v0.4c0,2.2-0.6,3.9-1.7,5.1s-2.8,1.7-5,1.7H201.7z M204.6,189.6
		h1.9c1.3,0,2.2-0.3,2.8-1s0.9-1.8,0.9-3.4v-0.7c0-1.6-0.3-2.7-0.9-3.4s-1.6-1-2.9-1h-1.7V189.6z"/>
	<path class="st8" d="M215,179.9v-2.2h2.7v2.2H215z M215.1,191.8v-10.4h2.6v10.4H215.1z"/>
	<path class="st8" d="M223,192c-1.4,0-2.6-0.2-3.4-0.7v-1.9c1,0.4,2,0.6,3.1,0.6c1.3,0,2-0.4,2-1.1c0-0.3-0.1-0.6-0.3-0.8
		s-0.6-0.3-1.1-0.4l-1-0.2c-0.9-0.2-1.5-0.5-2-1s-0.7-1.2-0.7-2.1c0-1,0.3-1.8,1-2.4s1.6-0.9,3-0.9c1.2,0,2.2,0.2,3.1,0.6v1.9
		c-1-0.3-1.9-0.5-2.8-0.5c-1.2,0-1.8,0.4-1.8,1.1c0,0.3,0.1,0.6,0.3,0.7s0.6,0.3,1,0.4l1,0.2c1,0.2,1.7,0.6,2.2,1s0.6,1.2,0.6,2.1
		c0,1.1-0.4,1.9-1.1,2.5S224.3,192,223,192z"/>
	<path class="st8" d="M232.5,191.9c-1,0-1.7-0.2-2.3-0.6s-0.8-1.1-0.8-2.1v-5.8h-1.4v-1.9h1.4V179h2.6v2.4h2.4v1.9h-2.4v5.4
		c0,0.4,0.1,0.8,0.3,0.9c0.2,0.2,0.6,0.3,1.1,0.3c0.4,0,0.8-0.1,1.1-0.2v1.7C234,191.8,233.3,191.9,232.5,191.9z"/>
	<path class="st8" d="M236.3,191.8v-10.4h2.5v1.2h0.1c0.3-0.4,0.7-0.7,1.1-1s1-0.4,1.5-0.4c0.3,0,0.5,0,0.6,0.1v2.3
		c-0.3-0.1-0.6-0.1-0.8-0.1c-0.9,0-1.7,0.2-2.5,0.6v7.5H236.3z"/>
	<path class="st8" d="M243.8,179.9v-2.2h2.7v2.2H243.8z M243.8,191.8v-10.4h2.6v10.4H243.8z"/>
	<path class="st8" d="M253,192c-1.6,0-3-0.2-4.2-0.6v-14.2h2.6v4.9h0.1c0.8-0.6,1.8-0.9,3-0.9c1.1,0,2,0.4,2.8,1.2s1.1,2.1,1.1,3.8
		v0.3C258.5,190.2,256.6,192,253,192z M253.1,190.1c1.8,0,2.6-1.1,2.6-3.2v-0.4c0-1.2-0.2-2-0.6-2.5c-0.4-0.4-1-0.7-1.9-0.7
		c-0.5,0-1.1,0.1-1.9,0.5v6C251.9,190,252.5,190.1,253.1,190.1z"/>
	<path class="st8" d="M263.4,192c-2.1,0-3.1-1-3.1-3v-7.5h2.6v7c0,0.5,0.1,0.9,0.4,1.1s0.6,0.3,1.2,0.3c0.6,0,1.3-0.2,2.1-0.6v-7.9
		h2.6v10.4h-2.3l-0.2-0.9h-0.1C265.5,191.6,264.5,192,263.4,192z"/>
	<path class="st8" d="M271.5,191.8v-10.4h2.5v1.2h0.1c0.3-0.4,0.7-0.7,1.1-1s1-0.4,1.5-0.4c0.3,0,0.5,0,0.6,0.1v2.3
		c-0.3-0.1-0.6-0.1-0.8-0.1c-0.9,0-1.7,0.2-2.5,0.6v7.5H271.5z"/>
	<path class="st8" d="M279,179.9v-2.2h2.7v2.2H279z M279,191.8v-10.4h2.6v10.4H279z"/>
	<path class="st8" d="M288.4,192c-1.6,0-2.9-0.4-3.7-1.4c-0.9-0.9-1.3-2.2-1.3-3.8v-0.3c0-1.6,0.5-2.9,1.4-3.9
		c0.9-0.9,2.1-1.4,3.6-1.4c1.6,0,2.8,0.4,3.7,1.4c0.9,0.9,1.3,2.2,1.3,3.9v0.3c0,1.7-0.5,3-1.4,3.9C291.1,191.5,289.9,192,288.4,192
		z M288.5,190.1c1.5,0,2.3-1.1,2.3-3.1v-0.5c0-1.2-0.2-2.1-0.6-2.5s-1-0.7-1.7-0.7c-1.5,0-2.3,1.1-2.3,3.2v0.4c0,1.2,0.2,2,0.6,2.5
		C287.2,189.8,287.7,190.1,288.5,190.1z"/>
	<path class="st8" d="M295.2,191.8v-10.4h2.5v0.9h0.1c1-0.8,2.1-1.1,3.4-1.1c1,0,1.8,0.2,2.3,0.7s0.8,1.2,0.8,2.2v7.7h-2.6v-7.1
		c0-0.5-0.1-0.9-0.4-1.1s-0.7-0.3-1.3-0.3c-0.6,0-1.3,0.2-2.1,0.5v7.9L295.2,191.8L295.2,191.8z"/>
</g>
<g>
	<path class="st8" d="M368.7,31.6v-8.9h5.7v1.4h-3.9v2.3h3v1.4h-3v2.5h4v1.4C374.5,31.6,368.7,31.6,368.7,31.6z"/>
	<path class="st8" d="M378.4,31.8c-1,0-1.8-0.3-2.4-0.9c-0.6-0.6-0.8-1.4-0.8-2.5v-0.2c0-1.1,0.3-2,0.9-2.6c0.6-0.6,1.4-0.9,2.5-0.9
		c0.8,0,1.4,0.1,1.8,0.4v1.3c-0.6-0.2-1.1-0.3-1.7-0.3s-1,0.2-1.3,0.5c-0.3,0.3-0.5,0.8-0.5,1.5v0.3c0,0.7,0.1,1.3,0.4,1.6
		s0.8,0.5,1.4,0.5c0.6,0,1.1-0.1,1.7-0.4v1.2C379.9,31.6,379.2,31.8,378.4,31.8z"/>
	<path class="st8" d="M384.1,31.8c-1,0-1.9-0.3-2.4-0.9c-0.6-0.6-0.8-1.4-0.8-2.5v-0.2c0-1.1,0.3-1.9,0.9-2.5
		c0.6-0.6,1.4-0.9,2.4-0.9c1,0,1.8,0.3,2.4,0.9c0.6,0.6,0.8,1.4,0.8,2.5v0.2c0,1.1-0.3,1.9-0.9,2.5
		C385.9,31.5,385.1,31.8,384.1,31.8z M384.2,30.5c1,0,1.5-0.7,1.5-2v-0.3c0-0.8-0.1-1.3-0.4-1.6s-0.6-0.5-1.1-0.5
		c-1,0-1.5,0.7-1.5,2.1v0.3c0,0.8,0.1,1.3,0.4,1.6S383.7,30.5,384.2,30.5z"/>
	<path class="st8" d="M390.1,31.8c-0.9,0-1.7-0.2-2.2-0.5v-1.2c0.6,0.3,1.3,0.4,2,0.4c0.9,0,1.3-0.2,1.3-0.7c0-0.2-0.1-0.4-0.2-0.5
		c-0.1-0.1-0.4-0.2-0.7-0.3l-0.6-0.1c-0.6-0.1-1-0.3-1.3-0.6c-0.3-0.3-0.4-0.8-0.4-1.4c0-0.6,0.2-1.2,0.6-1.5s1.1-0.5,1.9-0.5
		c0.8,0,1.4,0.1,2,0.4v1.2c-0.6-0.2-1.2-0.3-1.8-0.3c-0.8,0-1.1,0.2-1.1,0.7c0,0.2,0.1,0.4,0.2,0.5s0.4,0.2,0.7,0.2l0.6,0.1
		c0.7,0.1,1.1,0.4,1.4,0.7s0.4,0.8,0.4,1.4c0,0.7-0.2,1.2-0.7,1.6C391.7,31.6,391,31.8,390.1,31.8z"/>
	<path class="st8" d="M394.6,33.5c-0.5,0-0.8-0.1-1.1-0.2v-1.2c0.2,0,0.4,0.1,0.7,0.1c0.3,0,0.5,0,0.7-0.1s0.3-0.3,0.4-0.6l0.2-0.6
		l-2.5-6h1.8l1.6,4h0l1.5-4h1.6l-2.4,6.5C396.7,32.8,395.8,33.5,394.6,33.5z"/>
	<path class="st8" d="M402.1,31.8c-0.9,0-1.7-0.2-2.2-0.5v-1.2c0.6,0.3,1.3,0.4,2,0.4c0.9,0,1.3-0.2,1.3-0.7c0-0.2-0.1-0.4-0.2-0.5
		c-0.1-0.1-0.4-0.2-0.7-0.3l-0.6-0.1c-0.6-0.1-1-0.3-1.3-0.6c-0.3-0.3-0.4-0.8-0.4-1.4c0-0.6,0.2-1.2,0.6-1.5s1.1-0.5,1.9-0.5
		c0.8,0,1.4,0.1,2,0.4v1.2c-0.6-0.2-1.2-0.3-1.8-0.3c-0.8,0-1.1,0.2-1.1,0.7c0,0.2,0.1,0.4,0.2,0.5s0.4,0.2,0.7,0.2l0.6,0.1
		c0.7,0.1,1.1,0.4,1.4,0.7s0.4,0.8,0.4,1.4c0,0.7-0.2,1.2-0.7,1.6C403.6,31.6,403,31.8,402.1,31.8z"/>
	<path class="st8" d="M408,31.7c-0.6,0-1.1-0.1-1.5-0.4s-0.5-0.7-0.5-1.4v-3.8h-0.9v-1.3h0.9v-1.6h1.7v1.6h1.5v1.3h-1.5v3.5
		c0,0.3,0.1,0.5,0.2,0.6s0.4,0.2,0.7,0.2c0.3,0,0.5,0,0.7-0.1v1.1C408.9,31.6,408.5,31.7,408,31.7z"/>
	<path class="st8" d="M413.1,31.8c-1.1,0-2-0.3-2.5-0.9c-0.6-0.6-0.9-1.4-0.9-2.5v-0.2c0-1.1,0.3-1.9,0.9-2.5s1.3-0.9,2.3-0.9
		c1,0,1.7,0.3,2.2,0.8s0.7,1.4,0.7,2.5v0.6h-4.3c0.1,0.6,0.3,1.1,0.6,1.3s0.8,0.4,1.5,0.4c0.7,0,1.4-0.1,2-0.4v1.1
		C414.9,31.6,414.1,31.8,413.1,31.8z M412.9,26c-0.4,0-0.7,0.1-0.9,0.4s-0.4,0.7-0.5,1.2h2.6c0-0.6-0.1-1-0.3-1.2S413.3,26,412.9,26
		z"/>
	<path class="st8" d="M416.6,31.6v-6.7h1.6v0.6h0.1c0.7-0.5,1.3-0.8,2-0.8c0.8,0,1.3,0.2,1.6,0.8h0.1c0.7-0.5,1.5-0.8,2.2-0.8
		c1.2,0,1.9,0.6,1.9,1.8v5h-1.7V27c0-0.3-0.1-0.5-0.2-0.7s-0.4-0.2-0.7-0.2c-0.3,0-0.7,0.1-1.3,0.4c0,0.1,0,0.1,0,0.3v4.9h-1.7V27
		c0-0.3-0.1-0.5-0.2-0.7s-0.4-0.2-0.7-0.2c-0.2,0-0.6,0.1-1.2,0.3v5.1C418.3,31.6,416.6,31.6,416.6,31.6z"/>
	<path class="st8" d="M433.9,31.8v-1.8h-4v-1l4.5-6.4h1.2v6h1.4v1.3h-1.4v1.8L433.9,31.8L433.9,31.8z M431.8,28.7h2.1v-3L431.8,28.7
		z"/>
	<path class="st8" d="M441.3,31.8c-1.1,0-1.9-0.4-2.6-1.1s-1-1.8-1-3.3V27c0-0.8,0.1-1.5,0.3-2s0.5-1,0.8-1.4
		c0.3-0.3,0.7-0.6,1.1-0.8s0.9-0.2,1.4-0.2c1,0,1.9,0.4,2.6,1.1c0.7,0.7,1,1.8,1,3.3v0.5c0,1.5-0.3,2.6-1,3.3
		C443.2,31.4,442.3,31.8,441.3,31.8z M441.3,30.4c0.6,0,1-0.2,1.3-0.7c0.3-0.5,0.4-1.2,0.4-2.2V27c0-2-0.5-3-1.7-3
		c-0.6,0-1,0.2-1.2,0.7c-0.3,0.5-0.4,1.2-0.4,2.2v0.6c0,1,0.1,1.8,0.4,2.3C440.3,30.2,440.7,30.4,441.3,30.4z"/>
	<path class="st8" d="M449.6,26.9c-0.4,0.4-1,0.7-1.7,0.7s-1.2-0.2-1.6-0.6s-0.6-1-0.6-1.8V25c0-0.8,0.2-1.4,0.6-1.8
		c0.4-0.4,1-0.7,1.6-0.7c0.7,0,1.2,0.2,1.7,0.6c0.4,0.4,0.6,1,0.6,1.7v0.2C450.2,25.9,450,26.5,449.6,26.9z M447.9,26.6
		c0.3,0,0.5-0.1,0.7-0.3c0.1-0.2,0.2-0.6,0.2-1.1v-0.3c0-0.9-0.3-1.4-0.9-1.4c-0.5,0-0.8,0.5-0.8,1.4v0.3c0,0.5,0.1,0.9,0.2,1.1
		C447.4,26.5,447.6,26.6,447.9,26.6z M447.3,32.1l6-9.6h1.3l-6,9.6H447.3z M454.2,31.7c-0.7,0-1.2-0.2-1.6-0.6s-0.6-1-0.6-1.8v-0.2
		c0-0.8,0.2-1.4,0.6-1.8c0.4-0.4,1-0.7,1.7-0.7c0.7,0,1.2,0.2,1.6,0.6s0.6,1,0.6,1.7v0.2c0,0.8-0.2,1.4-0.6,1.8
		C455.4,31.5,454.9,31.7,454.2,31.7z M454.2,30.7c0.3,0,0.5-0.1,0.6-0.3s0.2-0.6,0.2-1v-0.3c0-0.9-0.3-1.4-0.9-1.4
		c-0.3,0-0.5,0.1-0.6,0.3c-0.1,0.2-0.2,0.6-0.2,1v0.3c0,0.5,0.1,0.8,0.2,1S453.9,30.7,454.2,30.7z"/>
</g>
<g>
	<path class="st8" d="M321.8,351.8v-8.9h2.6l2,6.3h0l2-6.3h2.5v8.9h-1.8v-6.7h0l-2.1,6.7h-1.4l-2.1-6.7h0v6.7H321.8z"/>
	<path class="st8" d="M334,352c-0.6,0-1.1-0.2-1.5-0.5s-0.6-0.8-0.6-1.4c0-1.1,0.8-1.8,2.2-2l1.5-0.2v-0.5c0-0.4-0.1-0.7-0.3-0.8
		s-0.6-0.2-1.2-0.2c-0.7,0-1.2,0.1-1.7,0.2v-1.2c0.7-0.2,1.5-0.4,2.4-0.4c1.7,0,2.5,0.7,2.5,2v4.8h-1.4l-0.1-0.5h-0.1
		C335.4,351.7,334.8,352,334,352z M334.5,350.8c0.5,0,0.9-0.1,1.1-0.4v-1.6l-1.1,0.1c-0.3,0-0.6,0.1-0.7,0.3s-0.2,0.4-0.2,0.7
		C333.6,350.5,333.9,350.8,334.5,350.8z"/>
	<path class="st8" d="M338.5,351.8v-6.7h1.6v0.8h0.1c0.2-0.3,0.4-0.5,0.7-0.6c0.3-0.2,0.6-0.2,1-0.2c0.2,0,0.4,0,0.4,0v1.5
		c-0.2,0-0.4,0-0.5,0c-0.6,0-1.1,0.1-1.6,0.4v4.9L338.5,351.8L338.5,351.8z"/>
	<path class="st8" d="M343,351.8v-9.5h1.7v9.5H343z M347.1,351.8c-1.1-1.6-1.9-2.8-2.3-3.5c0.4-0.5,1.1-1.6,2.3-3.2h1.7l-2.2,3.1
		c0.4,0.6,1.2,1.8,2.4,3.6H347.1z"/>
	<path class="st8" d="M352.6,352c-1.1,0-2-0.3-2.5-0.9c-0.6-0.6-0.9-1.4-0.9-2.5v-0.2c0-1.1,0.3-1.9,0.9-2.5s1.3-0.9,2.3-0.9
		c1,0,1.7,0.3,2.2,0.8s0.7,1.4,0.7,2.5v0.6h-4.3c0.1,0.6,0.3,1.1,0.6,1.3c0.3,0.3,0.8,0.4,1.5,0.4c0.7,0,1.4-0.1,2-0.4v1.1
		C354.4,351.7,353.5,352,352.6,352z M352.3,346.2c-0.4,0-0.7,0.1-0.9,0.4s-0.4,0.7-0.5,1.2h2.6c0-0.6-0.1-1-0.3-1.2
		S352.7,346.2,352.3,346.2z"/>
	<path class="st8" d="M358.5,351.9c-0.6,0-1.1-0.1-1.5-0.4s-0.5-0.7-0.5-1.4v-3.8h-0.9v-1.3h0.9v-1.6h1.7v1.6h1.5v1.3h-1.5v3.5
		c0,0.3,0.1,0.5,0.2,0.6c0.1,0.1,0.4,0.2,0.7,0.2c0.3,0,0.5,0,0.7-0.1v1.1C359.4,351.8,359,351.9,358.5,351.9z"/>
	<path class="st8" d="M360.6,344.1v-1.5h1.7v1.5H360.6z M360.6,351.8v-6.7h1.7v6.7H360.6z"/>
	<path class="st8" d="M363.5,351.8v-6.7h1.6v0.6h0.1c0.6-0.5,1.4-0.7,2.2-0.7c0.7,0,1.1,0.1,1.5,0.4c0.3,0.3,0.5,0.8,0.5,1.4v5h-1.7
		v-4.6c0-0.3-0.1-0.6-0.2-0.7c-0.1-0.1-0.4-0.2-0.8-0.2c-0.4,0-0.8,0.1-1.4,0.3v5.1L363.5,351.8L363.5,351.8z"/>
	<path class="st8" d="M373.1,353.8c-2.1,0-3.2-0.5-3.2-1.5c0-0.6,0.4-1.1,1.3-1.3v-0.1c-0.5-0.2-0.7-0.5-0.7-0.9
		c0-0.2,0.1-0.4,0.2-0.6c0.1-0.1,0.3-0.3,0.6-0.6c-0.6-0.3-0.9-0.9-0.9-1.6v-0.1c0-0.7,0.2-1.2,0.7-1.6c0.5-0.4,1.2-0.5,2-0.5
		c0.4,0,0.8,0,1.1,0.1h2.3v1h-1c0.2,0.2,0.3,0.5,0.3,0.9v0.1c0,0.7-0.2,1.2-0.7,1.5c-0.5,0.3-1.1,0.5-2,0.5c-0.4,0-0.8,0-1-0.1
		c-0.1,0.1-0.2,0.2-0.2,0.3c0,0.2,0,0.2,0.1,0.3s0.2,0,0.5,0h1.9c1.5,0,2.2,0.6,2.2,1.8c0,0.7-0.3,1.2-0.9,1.7
		C375.1,353.5,374.2,353.8,373.1,353.8z M373,352.6c0.6,0,1.1-0.1,1.4-0.2s0.4-0.3,0.4-0.6c0-0.2-0.1-0.4-0.2-0.5s-0.4-0.1-0.8-0.1
		h-1.6c-0.4,0.1-0.6,0.4-0.6,0.8c0,0.2,0.1,0.4,0.3,0.5C372.1,352.6,372.5,352.6,373,352.6z M373.1,348.1c0.7,0,1.1-0.3,1.1-1V347
		c0-0.4-0.1-0.6-0.3-0.8s-0.5-0.2-0.8-0.2c-0.7,0-1.1,0.3-1.1,1v0.2C372,347.8,372.4,348.1,373.1,348.1z"/>
	<path class="st8" d="M381.3,351.9v-7.2l-1.5,0.3v-1.1l2.4-1h1v9H381.3z"/>
	<path class="st8" d="M388.2,352c-1.1,0-1.9-0.4-2.6-1.1s-1-1.8-1-3.3v-0.5c0-0.8,0.1-1.5,0.3-2s0.5-1,0.8-1.4
		c0.3-0.3,0.7-0.6,1.1-0.8s0.9-0.2,1.4-0.2c1,0,1.9,0.4,2.6,1.1c0.7,0.7,1,1.8,1,3.3v0.5c0,1.5-0.3,2.6-1,3.3
		C390.1,351.6,389.2,352,388.2,352z M388.2,350.6c0.6,0,1-0.2,1.3-0.7c0.3-0.5,0.4-1.2,0.4-2.2v-0.6c0-2-0.5-3-1.7-3
		c-0.6,0-1,0.2-1.2,0.7s-0.4,1.2-0.4,2.2v0.6c0,1,0.1,1.8,0.4,2.3C387.2,350.4,387.6,350.6,388.2,350.6z"/>
	<path class="st8" d="M396.5,347.1c-0.4,0.4-1,0.7-1.7,0.7s-1.2-0.2-1.6-0.6s-0.6-1-0.6-1.8v-0.2c0-0.8,0.2-1.4,0.6-1.8
		c0.4-0.4,1-0.7,1.6-0.7c0.7,0,1.2,0.2,1.7,0.6c0.4,0.4,0.6,1,0.6,1.7v0.2C397.1,346.1,396.9,346.7,396.5,347.1z M394.8,346.8
		c0.3,0,0.5-0.1,0.7-0.3c0.1-0.2,0.2-0.6,0.2-1.1v-0.3c0-0.9-0.3-1.4-0.9-1.4c-0.5,0-0.8,0.5-0.8,1.4v0.3c0,0.5,0.1,0.9,0.2,1.1
		C394.3,346.7,394.5,346.8,394.8,346.8z M394.2,352.3l6-9.6h1.3l-6,9.6H394.2z M401.1,351.9c-0.7,0-1.2-0.2-1.6-0.6s-0.6-1-0.6-1.8
		v-0.2c0-0.8,0.2-1.4,0.6-1.8s1-0.7,1.7-0.7c0.7,0,1.2,0.2,1.6,0.6s0.6,1,0.6,1.7v0.2c0,0.8-0.2,1.4-0.6,1.8
		C402.3,351.7,401.8,351.9,401.1,351.9z M401.1,350.9c0.3,0,0.5-0.1,0.6-0.3c0.1-0.2,0.2-0.6,0.2-1v-0.3c0-0.9-0.3-1.4-0.9-1.4
		c-0.3,0-0.5,0.1-0.6,0.3c-0.1,0.2-0.2,0.6-0.2,1v0.3c0,0.5,0.1,0.8,0.2,1S400.8,350.9,401.1,350.9z"/>
</g>
<g>
	<path class="st8" d="M94.7,351.8v-8.9h3.1c2.9,0,4.3,1.4,4.3,4.2v0.3c0,1.5-0.4,2.5-1.1,3.3c-0.7,0.8-1.8,1.1-3.2,1.1L94.7,351.8
		L94.7,351.8z M96.6,350.4h1.2c0.8,0,1.4-0.2,1.8-0.7s0.6-1.2,0.6-2.2v-0.4c0-1-0.2-1.8-0.6-2.2s-1-0.6-1.9-0.6h-1.1V350.4z"/>
	<path class="st8" d="M106.1,352c-1.1,0-2-0.3-2.5-0.9c-0.6-0.6-0.9-1.4-0.9-2.5v-0.2c0-1.1,0.3-1.9,0.9-2.5s1.3-0.9,2.3-0.9
		c1,0,1.7,0.3,2.2,0.8s0.7,1.4,0.7,2.5v0.6h-4.3c0.1,0.6,0.3,1.1,0.6,1.3c0.3,0.3,0.8,0.4,1.5,0.4c0.7,0,1.4-0.1,2-0.4v1.1
		C107.9,351.7,107.1,352,106.1,352z M105.8,346.2c-0.4,0-0.7,0.1-0.9,0.4c-0.3,0.2-0.4,0.7-0.5,1.2h2.6c0-0.6-0.1-1-0.3-1.2
		S106.2,346.2,105.8,346.2z"/>
	<path class="st8" d="M111.4,351.8l-2.4-6.7h1.8l1.6,4.7h0.1l1.6-4.7h1.6l-2.4,6.7L111.4,351.8L111.4,351.8z"/>
	<path class="st8" d="M119.2,352c-1.1,0-2-0.3-2.5-0.9c-0.6-0.6-0.9-1.4-0.9-2.5v-0.2c0-1.1,0.3-1.9,0.9-2.5s1.3-0.9,2.3-0.9
		c1,0,1.7,0.3,2.2,0.8s0.7,1.4,0.7,2.5v0.6h-4.3c0.1,0.6,0.3,1.1,0.6,1.3c0.3,0.3,0.8,0.4,1.5,0.4c0.7,0,1.4-0.1,2-0.4v1.1
		C121,351.7,120.2,352,119.2,352z M118.9,346.2c-0.4,0-0.7,0.1-0.9,0.4c-0.3,0.2-0.4,0.7-0.5,1.2h2.6c0-0.6-0.1-1-0.3-1.2
		S119.4,346.2,118.9,346.2z"/>
	<path class="st8" d="M122.8,351.8v-9.5h1.7v9.5H122.8z"/>
	<path class="st8" d="M128.6,352c-1.1,0-1.8-0.3-2.4-0.9c-0.6-0.6-0.8-1.4-0.8-2.5v-0.2c0-1.1,0.3-1.9,0.9-2.5
		c0.6-0.6,1.4-0.9,2.4-0.9c1,0,1.8,0.3,2.4,0.9c0.6,0.6,0.8,1.4,0.8,2.5v0.2c0,1.1-0.3,1.9-0.9,2.5C130.4,351.6,129.6,352,128.6,352
		z M128.6,350.7c1,0,1.5-0.7,1.5-2v-0.3c0-0.8-0.1-1.3-0.4-1.6s-0.6-0.5-1.1-0.5c-1,0-1.5,0.7-1.5,2.1v0.3c0,0.8,0.1,1.3,0.4,1.6
		C127.8,350.5,128.1,350.7,128.6,350.7z"/>
	<path class="st8" d="M132.7,353.7v-8.6h1.6v0.6h0.1c0.5-0.5,1.1-0.7,1.9-0.7c0.8,0,1.4,0.3,1.9,0.8s0.7,1.4,0.7,2.5v0.1
		c0,2.4-1,3.5-3.1,3.5c-0.6,0-1.1-0.1-1.5-0.4v2.1H132.7z M135.7,350.7c0.5,0,0.9-0.2,1.2-0.5s0.4-0.9,0.4-1.6v-0.2
		c0-0.8-0.1-1.3-0.4-1.6c-0.2-0.3-0.6-0.4-1.1-0.4c-0.5,0-1,0.1-1.3,0.4v3.7C134.7,350.6,135.1,350.7,135.7,350.7z"/>
	<path class="st8" d="M139.8,351.8v-6.7h1.6v0.6h0.1c0.7-0.5,1.3-0.8,2.1-0.8c0.8,0,1.3,0.2,1.6,0.8h0.1c0.7-0.5,1.5-0.8,2.2-0.8
		c1.2,0,1.9,0.6,1.9,1.8v5h-1.7v-4.6c0-0.3-0.1-0.5-0.2-0.7s-0.4-0.2-0.7-0.2c-0.3,0-0.7,0.1-1.3,0.4c0,0.1,0,0.1,0,0.3v4.9h-1.7
		v-4.6c0-0.3-0.1-0.5-0.2-0.7s-0.4-0.2-0.7-0.2c-0.2,0-0.6,0.1-1.2,0.3v5.1H139.8z"/>
	<path class="st8" d="M153.5,352c-1.1,0-2-0.3-2.5-0.9c-0.6-0.6-0.9-1.4-0.9-2.5v-0.2c0-1.1,0.3-1.9,0.9-2.5s1.3-0.9,2.3-0.9
		c1,0,1.7,0.3,2.2,0.8s0.7,1.4,0.7,2.5v0.6h-4.3c0.1,0.6,0.3,1.1,0.6,1.3c0.3,0.3,0.8,0.4,1.5,0.4c0.7,0,1.4-0.1,2-0.4v1.1
		C155.3,351.7,154.5,352,153.5,352z M153.2,346.2c-0.4,0-0.7,0.1-0.9,0.4s-0.4,0.7-0.5,1.2h2.6c0-0.6-0.1-1-0.3-1.2
		S153.7,346.2,153.2,346.2z"/>
	<path class="st8" d="M157,351.8v-6.7h1.6v0.6h0.1c0.6-0.5,1.4-0.7,2.2-0.7c0.7,0,1.1,0.1,1.5,0.4c0.3,0.3,0.5,0.8,0.5,1.4v5h-1.7
		v-4.6c0-0.3-0.1-0.6-0.2-0.7c-0.1-0.1-0.4-0.2-0.8-0.2c-0.4,0-0.8,0.1-1.4,0.3v5.1L157,351.8L157,351.8z"/>
	<path class="st8" d="M166.4,351.9c-0.6,0-1.1-0.1-1.5-0.4s-0.5-0.7-0.5-1.4v-3.8h-0.9v-1.3h0.9v-1.6h1.7v1.6h1.6v1.3h-1.6v3.5
		c0,0.3,0.1,0.5,0.2,0.6c0.1,0.1,0.4,0.2,0.7,0.2c0.3,0,0.5,0,0.7-0.1v1.1C167.4,351.8,166.9,351.9,166.4,351.9z"/>
	<path class="st8" d="M172.7,351.9v-7.2l-1.5,0.3v-1.1l2.4-1h0.9v9H172.7z"/>
	<path class="st8" d="M179.6,352c-1.1,0-1.9-0.4-2.6-1.1s-1-1.8-1-3.3v-0.5c0-0.8,0.1-1.5,0.3-2s0.5-1,0.8-1.4
		c0.3-0.3,0.7-0.6,1.1-0.8s0.9-0.2,1.4-0.2c1,0,1.9,0.4,2.6,1.1c0.7,0.7,1,1.8,1,3.3v0.5c0,1.5-0.3,2.6-1,3.3S180.6,352,179.6,352z
		 M179.6,350.6c0.6,0,1-0.2,1.3-0.7c0.3-0.5,0.4-1.2,0.4-2.2v-0.6c0-2-0.6-3-1.7-3c-0.6,0-1,0.2-1.2,0.7s-0.4,1.2-0.4,2.2v0.6
		c0,1,0.1,1.8,0.4,2.3C178.6,350.4,179,350.6,179.6,350.6z"/>
	<path class="st8" d="M187.9,347.1c-0.4,0.4-1,0.7-1.7,0.7s-1.2-0.2-1.6-0.6s-0.6-1-0.6-1.8v-0.2c0-0.8,0.2-1.4,0.6-1.8
		c0.4-0.4,1-0.7,1.6-0.7s1.2,0.2,1.7,0.6c0.4,0.4,0.6,1,0.6,1.7v0.2C188.5,346.1,188.3,346.7,187.9,347.1z M186.2,346.8
		c0.3,0,0.5-0.1,0.7-0.3c0.1-0.2,0.2-0.6,0.2-1.1v-0.3c0-0.9-0.3-1.4-0.9-1.4c-0.6,0-0.8,0.5-0.8,1.4v0.3c0,0.5,0.1,0.9,0.2,1.1
		C185.7,346.7,185.9,346.8,186.2,346.8z M185.6,352.3l6-9.6h1.3l-6,9.6H185.6z M192.5,351.9c-0.7,0-1.2-0.2-1.6-0.6s-0.6-1-0.6-1.8
		v-0.2c0-0.8,0.2-1.4,0.6-1.8s1-0.7,1.7-0.7c0.7,0,1.2,0.2,1.6,0.6s0.6,1,0.6,1.7v0.2c0,0.8-0.2,1.4-0.6,1.8
		C193.7,351.7,193.2,351.9,192.5,351.9z M192.5,350.9c0.3,0,0.5-0.1,0.6-0.3c0.1-0.2,0.2-0.6,0.2-1v-0.3c0-0.9-0.3-1.4-0.9-1.4
		c-0.3,0-0.5,0.1-0.6,0.3c-0.1,0.2-0.2,0.6-0.2,1v0.3c0,0.5,0.1,0.8,0.2,1S192.2,350.9,192.5,350.9z"/>
</g>
<g>
	<path class="st8" d="M50.1,287.3v-7.5h-2.5v-1.4h6.8v1.4h-2.5v7.5H50.1z"/>
	<path class="st8" d="M58.2,287.4c-1.1,0-2-0.3-2.5-0.9c-0.6-0.6-0.9-1.4-0.9-2.5v-0.2c0-1.1,0.3-1.9,0.9-2.5
		c0.6-0.6,1.3-0.9,2.3-0.9c1,0,1.7,0.3,2.2,0.8s0.7,1.4,0.7,2.5v0.6h-4.3c0.1,0.6,0.3,1.1,0.6,1.3c0.3,0.3,0.8,0.4,1.5,0.4
		c0.7,0,1.4-0.1,2-0.4v1.1C60,287.2,59.2,287.4,58.2,287.4z M57.9,281.6c-0.4,0-0.7,0.1-0.9,0.4s-0.4,0.7-0.5,1.2h2.6
		c0-0.6-0.1-1-0.3-1.2S58.3,281.6,57.9,281.6z"/>
	<path class="st8" d="M63.4,287.4c-0.6,0-1.2-0.2-1.5-0.5c-0.4-0.3-0.6-0.8-0.6-1.4c0-1.1,0.8-1.8,2.2-2l1.5-0.2v-0.5
		c0-0.4-0.1-0.7-0.3-0.8s-0.6-0.2-1.2-0.2c-0.7,0-1.2,0.1-1.7,0.2v-1.2c0.7-0.2,1.5-0.4,2.3-0.4c1.7,0,2.5,0.7,2.5,2v4.8h-1.4
		l-0.1-0.5h-0.1C64.8,287.1,64.2,287.4,63.4,287.4z M63.9,286.2c0.5,0,0.8-0.1,1.1-0.4v-1.6l-1.1,0.1c-0.3,0-0.6,0.1-0.7,0.3
		s-0.2,0.4-0.2,0.7C63,285.9,63.3,286.2,63.9,286.2z"/>
	<path class="st8" d="M67.9,287.3v-6.7h1.6v0.6h0.1c0.7-0.5,1.3-0.8,2.1-0.8c0.8,0,1.3,0.2,1.6,0.8h0.1c0.7-0.5,1.5-0.8,2.2-0.8
		c1.2,0,1.9,0.6,1.9,1.8v5h-1.7v-4.6c0-0.3-0.1-0.5-0.2-0.7s-0.4-0.2-0.7-0.2c-0.3,0-0.7,0.1-1.3,0.4c0,0.1,0,0.1,0,0.3v4.9h-1.7
		v-4.6c0-0.3-0.1-0.5-0.2-0.7s-0.4-0.2-0.7-0.2c-0.2,0-0.7,0.1-1.2,0.3v5.1H67.9z"/>
	<path class="st8" d="M82.7,287.3v-7.2l-1.5,0.3v-1.1l2.4-1h0.9v9H82.7z"/>
	<path class="st8" d="M89.6,287.4c-1.1,0-1.9-0.4-2.6-1.1s-1-1.8-1-3.3v-0.5c0-0.8,0.1-1.5,0.3-2s0.5-1,0.8-1.4
		c0.3-0.3,0.7-0.6,1.1-0.8s0.9-0.2,1.4-0.2c1,0,1.9,0.4,2.6,1.1c0.7,0.7,1,1.8,1,3.3v0.5c0,1.5-0.3,2.6-1,3.3
		C91.5,287.1,90.6,287.4,89.6,287.4z M89.6,286c0.6,0,1-0.2,1.3-0.7c0.3-0.5,0.4-1.2,0.4-2.2v-0.6c0-2-0.6-3-1.7-3
		c-0.6,0-1,0.2-1.2,0.7s-0.4,1.2-0.4,2.2v0.6c0,1,0.1,1.8,0.4,2.3C88.6,285.8,89,286,89.6,286z"/>
	<path class="st8" d="M97.9,282.5c-0.4,0.4-1,0.7-1.7,0.7s-1.2-0.2-1.6-0.6c-0.4-0.4-0.6-1-0.6-1.8v-0.2c0-0.8,0.2-1.4,0.6-1.8
		c0.4-0.4,1-0.7,1.6-0.7s1.2,0.2,1.7,0.6c0.4,0.4,0.7,1,0.7,1.7v0.2C98.5,281.5,98.3,282.1,97.9,282.5z M96.2,282.2
		c0.3,0,0.5-0.1,0.7-0.3c0.1-0.2,0.2-0.6,0.2-1.1v-0.3c0-0.9-0.3-1.4-0.9-1.4c-0.6,0-0.8,0.5-0.8,1.4v0.3c0,0.5,0.1,0.9,0.2,1.1
		C95.7,282.1,95.9,282.2,96.2,282.2z M95.6,287.7l6-9.6h1.3l-6,9.6H95.6z M102.4,287.4c-0.7,0-1.2-0.2-1.6-0.6
		c-0.4-0.4-0.6-1-0.6-1.8v-0.2c0-0.8,0.2-1.4,0.6-1.8s1-0.7,1.7-0.7c0.7,0,1.2,0.2,1.6,0.6s0.6,1,0.6,1.7v0.2c0,0.8-0.2,1.4-0.6,1.8
		C103.7,287.1,103.2,287.4,102.4,287.4z M102.5,286.4c0.3,0,0.5-0.1,0.6-0.3c0.1-0.2,0.2-0.6,0.2-1v-0.3c0-0.9-0.3-1.4-0.8-1.4
		c-0.3,0-0.5,0.1-0.7,0.3c-0.1,0.2-0.2,0.6-0.2,1v0.3c0,0.5,0.1,0.8,0.2,1S102.2,286.4,102.5,286.4z"/>
</g>
<g>
	<path class="st8" d="M7.2,207.4l3.2-8.9h1.9l3.1,8.9h-1.9l-0.7-2.1H9.6l-0.7,2.1H7.2z M11.2,200.6l-1.1,3.4h2.3L11.2,200.6
		L11.2,200.6z"/>
	<path class="st8" d="M18.4,207.5c-0.4,0-0.7-0.1-1-0.2s-0.6-0.3-0.9-0.6c-0.3-0.2-0.5-0.6-0.6-1c-0.1-0.4-0.2-0.9-0.2-1.5v-0.2
		c0-1.2,0.3-2.1,0.8-2.7c0.5-0.6,1.3-0.9,2.2-0.9c0.6,0,1.1,0.1,1.5,0.4v-3H22v9.5h-1.5l-0.1-0.5h-0.1
		C19.9,207.3,19.2,207.5,18.4,207.5z M19,206.2c0.5,0,0.9-0.1,1.2-0.4v-3.7c-0.2-0.2-0.7-0.3-1.2-0.3c-0.5,0-0.9,0.2-1.2,0.5
		c-0.3,0.3-0.4,0.9-0.4,1.6v0.2c0,0.8,0.1,1.3,0.4,1.6S18.5,206.2,19,206.2z"/>
	<path class="st8" d="M25,207.4l-2.4-6.7h1.8l1.5,4.7h0l1.6-4.7h1.6l-2.4,6.7H25z"/>
	<path class="st8" d="M29.8,199.6v-1.5h1.7v1.5H29.8z M29.8,207.4v-6.7h1.7v6.7H29.8z"/>
	<path class="st8" d="M34.6,207.5c-0.9,0-1.7-0.2-2.2-0.5v-1.2c0.7,0.3,1.3,0.4,2,0.4c0.8,0,1.3-0.2,1.3-0.7c0-0.2-0.1-0.4-0.2-0.5
		s-0.4-0.2-0.7-0.3l-0.6-0.1c-0.6-0.1-1-0.3-1.3-0.6c-0.3-0.3-0.4-0.8-0.4-1.4c0-0.6,0.2-1.2,0.7-1.5s1.1-0.6,1.9-0.6
		c0.8,0,1.4,0.1,2,0.4v1.2c-0.6-0.2-1.2-0.3-1.8-0.3c-0.8,0-1.1,0.2-1.1,0.7c0,0.2,0.1,0.4,0.2,0.5s0.4,0.2,0.7,0.2l0.6,0.1
		c0.7,0.1,1.1,0.4,1.4,0.7s0.4,0.8,0.4,1.4c0,0.7-0.2,1.2-0.7,1.6C36.2,207.3,35.5,207.5,34.6,207.5z"/>
	<path class="st8" d="M41,207.5c-1,0-1.8-0.3-2.4-0.9c-0.6-0.6-0.8-1.4-0.8-2.5V204c0-1.1,0.3-1.9,0.9-2.5c0.6-0.6,1.4-0.9,2.4-0.9
		c1,0,1.8,0.3,2.4,0.9c0.6,0.6,0.8,1.4,0.8,2.5v0.2c0,1.1-0.3,1.9-0.9,2.5C42.8,207.2,42,207.5,41,207.5z M41,206.3
		c1,0,1.5-0.7,1.5-2v-0.3c0-0.8-0.1-1.3-0.4-1.6s-0.6-0.5-1.1-0.5c-1,0-1.5,0.7-1.5,2.1v0.3c0,0.8,0.1,1.3,0.4,1.6
		C40.2,206.1,40.6,206.3,41,206.3z"/>
	<path class="st8" d="M45.1,207.4v-6.7h1.6v0.8h0.1c0.2-0.3,0.4-0.5,0.7-0.6c0.3-0.2,0.7-0.2,1-0.2c0.2,0,0.3,0,0.4,0.1v1.5
		c-0.2,0-0.4-0.1-0.5-0.1c-0.6,0-1.1,0.1-1.6,0.4v4.9L45.1,207.4L45.1,207.4z"/>
	<path class="st8" d="M57.4,206.7c-0.6,0.6-1.4,0.8-2.4,0.8s-1.9-0.2-2.6-0.6l0.3-1.4c0.6,0.3,1.2,0.5,1.8,0.5
		c0.6,0,1.1-0.1,1.4-0.4c0.3-0.3,0.5-0.6,0.5-1.1c0-1-0.6-1.5-1.8-1.5c-0.2,0-0.5,0.1-0.9,0.2s-0.7,0.2-0.9,0.3l0.3-5h4.7v1.4h-3.4
		l-0.1,2c0.3-0.1,0.6-0.2,1-0.2c0.9,0,1.6,0.2,2.1,0.7s0.8,1.2,0.8,2.1C58.3,205.4,58,206.1,57.4,206.7z"/>
	<path class="st8" d="M62.8,202.7c-0.4,0.4-1,0.7-1.7,0.7s-1.2-0.2-1.6-0.6s-0.6-1-0.6-1.8v-0.2c0-0.8,0.2-1.4,0.6-1.8
		c0.4-0.4,1-0.7,1.6-0.7s1.2,0.2,1.7,0.6c0.4,0.4,0.7,1,0.7,1.7v0.2C63.4,201.6,63.2,202.2,62.8,202.7z M61.1,202.3
		c0.3,0,0.5-0.1,0.7-0.3c0.1-0.2,0.2-0.6,0.2-1.1v-0.3c0-0.9-0.3-1.4-0.9-1.4c-0.5,0-0.8,0.5-0.8,1.4v0.3c0,0.5,0.1,0.9,0.2,1.1
		C60.6,202.2,60.8,202.3,61.1,202.3z M60.5,207.9l6-9.6h1.3l-6,9.6H60.5z M67.3,207.5c-0.7,0-1.2-0.2-1.6-0.6
		c-0.4-0.4-0.6-1-0.6-1.8v-0.2c0-0.8,0.2-1.4,0.6-1.8s1-0.7,1.7-0.7c0.7,0,1.2,0.2,1.6,0.6s0.6,1,0.6,1.7v0.2c0,0.8-0.2,1.4-0.6,1.8
		C68.6,207.3,68,207.5,67.3,207.5z M67.3,206.5c0.3,0,0.5-0.1,0.6-0.3s0.2-0.6,0.2-1.1v-0.3c0-0.9-0.3-1.4-0.8-1.4
		c-0.3,0-0.5,0.1-0.7,0.3c-0.1,0.2-0.2,0.6-0.2,1.1v0.3c0,0.5,0.1,0.8,0.2,1.1S67.1,206.5,67.3,206.5z"/>
</g>
<g>
	<path class="st8" d="M62.1,31.6v-8.9h3.2c2.1,0,3.2,0.9,3.2,2.6c0,1.1-0.5,1.9-1.6,2.3v0.1l2.2,3.9H67l-1.8-3.5H64v3.5
		C64,31.6,62.1,31.6,62.1,31.6z M64,26.9h1.1c0.5,0,0.9-0.1,1.2-0.4s0.4-0.6,0.4-1.1c0-0.5-0.1-0.8-0.4-1c-0.2-0.2-0.6-0.3-1.2-0.3
		H64L64,26.9L64,26.9z"/>
	<path class="st8" d="M72.7,31.8c-1.1,0-2-0.3-2.5-0.9c-0.6-0.6-0.9-1.4-0.9-2.5v-0.2c0-1.1,0.3-1.9,0.9-2.5s1.3-0.9,2.3-0.9
		c1,0,1.7,0.3,2.2,0.8s0.7,1.4,0.7,2.5v0.6h-4.3c0.1,0.6,0.3,1.1,0.6,1.3c0.3,0.3,0.8,0.4,1.5,0.4c0.7,0,1.4-0.1,2-0.4v1.1
		C74.6,31.6,73.7,31.8,72.7,31.8z M72.5,26c-0.4,0-0.7,0.1-0.9,0.4c-0.3,0.2-0.4,0.7-0.5,1.2h2.6c0-0.6-0.1-1-0.3-1.2
		S72.9,26,72.5,26z"/>
	<path class="st8" d="M78.2,31.8c-0.9,0-1.7-0.2-2.2-0.5v-1.2c0.7,0.3,1.3,0.4,2,0.4c0.8,0,1.3-0.2,1.3-0.7c0-0.2-0.1-0.4-0.2-0.5
		s-0.4-0.2-0.7-0.3l-0.6-0.1c-0.6-0.1-1-0.3-1.3-0.6c-0.3-0.3-0.4-0.8-0.4-1.4c0-0.6,0.2-1.2,0.7-1.5s1.1-0.5,1.9-0.5
		c0.8,0,1.4,0.1,2,0.4v1.2c-0.6-0.2-1.2-0.3-1.8-0.3c-0.8,0-1.1,0.2-1.1,0.7c0,0.2,0.1,0.4,0.2,0.5s0.4,0.2,0.7,0.2l0.6,0.1
		c0.7,0.1,1.1,0.4,1.4,0.7c0.3,0.3,0.4,0.8,0.4,1.4c0,0.7-0.2,1.2-0.7,1.6C79.7,31.6,79,31.8,78.2,31.8z"/>
	<path class="st8" d="M84.7,31.8c-1.1,0-2-0.3-2.5-0.9c-0.6-0.6-0.9-1.4-0.9-2.5v-0.2c0-1.1,0.3-1.9,0.9-2.5s1.3-0.9,2.3-0.9
		c1,0,1.7,0.3,2.2,0.8s0.7,1.4,0.7,2.5v0.6H83c0.1,0.6,0.3,1.1,0.6,1.3c0.3,0.3,0.8,0.4,1.5,0.4c0.7,0,1.4-0.1,2-0.4v1.1
		C86.5,31.6,85.7,31.8,84.7,31.8z M84.4,26c-0.4,0-0.7,0.1-0.9,0.4c-0.3,0.2-0.4,0.7-0.5,1.2h2.6c0-0.6-0.1-1-0.3-1.2
		S84.8,26,84.4,26z"/>
	<path class="st8" d="M88.2,31.6v-6.7h1.6v0.8h0.1c0.2-0.3,0.4-0.5,0.7-0.6c0.3-0.2,0.7-0.2,1-0.2c0.2,0,0.3,0,0.4,0v1.5
		c-0.2,0-0.4,0-0.5,0c-0.6,0-1.1,0.1-1.6,0.4v4.9L88.2,31.6L88.2,31.6z"/>
	<path class="st8" d="M94.6,31.6l-2.4-6.7h1.8l1.6,4.7h0.1l1.6-4.7h1.6l-2.4,6.7H94.6z"/>
	<path class="st8" d="M102.4,31.8c-1.1,0-2-0.3-2.5-0.9c-0.6-0.6-0.8-1.4-0.8-2.5v-0.2c0-1.1,0.3-1.9,0.9-2.5s1.3-0.9,2.3-0.9
		c1,0,1.7,0.3,2.2,0.8s0.7,1.4,0.7,2.5v0.6h-4.3c0.1,0.6,0.3,1.1,0.6,1.3c0.3,0.3,0.8,0.4,1.5,0.4c0.7,0,1.4-0.1,2-0.4v1.1
		C104.2,31.6,103.4,31.8,102.4,31.8z M102.1,26c-0.4,0-0.7,0.1-0.9,0.4c-0.3,0.2-0.4,0.7-0.5,1.2h2.6c0-0.6-0.1-1-0.3-1.2
		S102.5,26,102.1,26z"/>
	<path class="st8" d="M108.9,31.6v-1.1l1.6-1.6c0.5-0.5,0.9-1,1.2-1.3s0.5-0.7,0.8-1.1s0.4-0.8,0.4-1.1c0-0.5-0.1-0.9-0.4-1.1
		c-0.3-0.2-0.7-0.3-1.3-0.3c-0.5,0-1.1,0.2-1.8,0.5l-0.2-1.3c0.8-0.4,1.6-0.6,2.6-0.6c1,0,1.8,0.2,2.3,0.7s0.8,1.1,0.8,1.9
		c0,0.4-0.1,0.8-0.2,1.2s-0.4,0.8-0.7,1.2c-0.3,0.4-0.6,0.7-0.7,0.9c-0.2,0.2-0.4,0.5-0.8,0.9l-0.9,0.9h3.4v1.4L108.9,31.6
		L108.9,31.6z"/>
	<path class="st8" d="M120.3,30.9c-0.6,0.6-1.4,0.8-2.4,0.8s-1.9-0.2-2.6-0.6l0.3-1.4c0.6,0.3,1.2,0.5,1.8,0.5
		c0.6,0,1.1-0.1,1.4-0.4c0.3-0.3,0.5-0.6,0.5-1.1c0-1-0.6-1.5-1.8-1.5c-0.2,0-0.5,0-0.9,0.2s-0.7,0.2-0.9,0.3l0.3-5h4.7v1.4h-3.4
		l-0.1,2c0.3-0.1,0.6-0.2,1-0.2c0.9,0,1.6,0.2,2.1,0.7s0.8,1.2,0.8,2.1C121.2,29.7,120.9,30.4,120.3,30.9z"/>
	<path class="st8" d="M125.6,26.9c-0.4,0.4-1,0.7-1.7,0.7s-1.2-0.2-1.6-0.6c-0.4-0.4-0.6-1-0.6-1.8V25c0-0.8,0.2-1.4,0.6-1.8
		c0.4-0.4,1-0.7,1.6-0.7s1.2,0.2,1.7,0.6c0.4,0.4,0.7,1,0.7,1.7v0.2C126.3,25.9,126.1,26.5,125.6,26.9z M124,26.6
		c0.3,0,0.5-0.1,0.7-0.3c0.1-0.2,0.2-0.6,0.2-1.1v-0.3c0-0.9-0.3-1.4-0.9-1.4c-0.6,0-0.8,0.5-0.8,1.4v0.3c0,0.5,0.1,0.9,0.2,1.1
		C123.5,26.5,123.7,26.6,124,26.6z M123.4,32.1l6-9.6h1.3l-6,9.6H123.4z M130.2,31.7c-0.7,0-1.2-0.2-1.6-0.6s-0.6-1-0.6-1.8v-0.2
		c0-0.8,0.2-1.4,0.6-1.8c0.4-0.4,1-0.7,1.7-0.7c0.7,0,1.2,0.2,1.6,0.6s0.6,1,0.6,1.7v0.2c0,0.8-0.2,1.4-0.6,1.8
		C131.5,31.5,130.9,31.7,130.2,31.7z M130.2,30.7c0.3,0,0.5-0.1,0.6-0.3s0.2-0.6,0.2-1v-0.3c0-0.9-0.3-1.4-0.9-1.4
		c-0.3,0-0.5,0.1-0.6,0.3c-0.1,0.2-0.2,0.6-0.2,1v0.3c0,0.5,0.1,0.8,0.2,1S129.9,30.7,130.2,30.7z"/>
</g>
<path class="st9" d="M340.4,57.2c-0.2,0-0.5-0.1-0.6-0.3c-0.2-0.3-0.2-0.8,0.1-1l26-20.2c0.1-0.1,0.3-0.2,0.5-0.2H457
	c0.4,0,0.8,0.3,0.8,0.8s-0.3,0.8-0.8,0.8h-90.3l-25.8,20C340.7,57.2,340.5,57.2,340.4,57.2z"/>
<path class="st9" d="M403.8,358.1h-87.6c-0.3,0-0.5-0.2-0.7-0.4l-17.8-36.3c-0.2-0.4,0-0.8,0.3-1s0.8,0,1,0.3l17.6,35.9h87.2
	c0.4,0,0.8,0.3,0.8,0.8S404.2,358.1,403.8,358.1z"/>
<path class="st9" d="M198.2,358.1h-104c-0.4,0-0.8-0.3-0.8-0.8s0.3-0.8,0.8-0.8h103.5l13.3-35.8c0.1-0.4,0.6-0.6,1-0.4
	c0.4,0.1,0.6,0.6,0.4,1l-13.4,36.3C198.8,358,198.5,358.1,198.2,358.1z"/>
<path class="st9" d="M107.2,292.7H47.7c-0.4,0-0.8-0.3-0.8-0.8s0.3-0.8,0.8-0.8h59.1l31.6-28.1c0.3-0.3,0.8-0.2,1.1,0.1
	c0.3,0.3,0.2,0.8-0.1,1.1l-31.8,28.2C107.5,292.6,107.4,292.7,107.2,292.7z"/>
<path class="st9" d="M76.2,213.3H6.4c-0.4,0-0.8-0.3-0.8-0.8s0.3-0.8,0.8-0.8H76l32.6-17.8c0.4-0.2,0.8-0.1,1,0.3
	c0.2,0.4,0.1,0.8-0.3,1l-32.7,17.9C76.5,213.3,76.4,213.3,76.2,213.3z"/>
<path class="st9" d="M152.9,65.8c-0.2,0-0.5-0.1-0.6-0.4L135,37.1H60c-0.4,0-0.8-0.3-0.8-0.8s0.3-0.8,0.8-0.8h75.5
	c0.3,0,0.5,0.1,0.6,0.4l17.5,28.7c0.2,0.3,0.1,0.8-0.2,1C153.2,65.7,153.1,65.8,152.9,65.8z"/>
</svg>
